<svg width="512" height="512" viewBox="0 0 512 512" fill="none" xmlns="http://www.w3.org/2000/svg">
<g clip-path="url(#clip0_90_4)">
<path d="M255.625 -0.312485C256.643 -0.31033 257.661 -0.308175 258.71 -0.305954C273.319 -0.256283 287.651 -0.00538683 302 3.00002C302.975 3.19869 303.95 3.39737 304.954 3.60207C344.012 11.7722 380.449 27.3979 412 52C412.884 52.6729 413.769 53.3458 414.68 54.0391C430.267 66.1401 444.892 80.4384 457 96C457.776 96.9591 458.552 97.9181 459.352 98.9063C493.883 142.317 512.439 197.448 512.316 252.727C512.313 255.667 512.336 258.605 512.361 261.545C512.406 274.918 511.201 287.814 509 301C508.718 302.706 508.718 302.706 508.43 304.446C501.404 343.557 484.422 380.74 460 412C459.241 412.972 458.481 413.944 457.699 414.945C445.365 430.325 431.564 444.878 416 457C415.064 457.764 414.128 458.529 413.164 459.316C381.211 484.903 342.045 501.413 302 509C301.191 509.164 300.381 509.327 299.547 509.496C269.506 515.367 234.863 514.273 205 508C203.477 507.687 203.477 507.687 201.923 507.367C164.78 499.474 129.916 483.371 100 460C99.0281 459.241 98.0561 458.481 97.0547 457.699C81.6751 445.365 67.1224 431.564 55 416C53.8534 414.596 53.8534 414.596 52.6836 413.164C27.0967 381.211 10.587 342.045 3.00001 302C2.8363 301.191 2.67259 300.381 2.50392 299.547C-2.96568 271.561 -2.84476 237.906 3.00001 210C3.19869 209.025 3.39737 208.05 3.60206 207.046C13.689 158.825 35.7259 114.225 70.2178 78.8291C71.992 77.0082 73.7498 75.1725 75.5078 73.336C82.6094 65.9961 90.0234 59.4268 98.2158 53.3311C100.029 51.9786 101.823 50.6041 103.617 49.2266C112.024 42.8399 120.765 37.2983 129.973 32.1392C131.836 31.0924 133.684 30.0232 135.531 28.9492C172.132 8.38211 213.987 -0.471036 255.625 -0.312485ZM108 69C107.124 69.7026 107.124 69.7026 106.23 70.4194C92.231 81.7614 78.8243 94.574 68 109C67.5321 109.608 67.0642 110.216 66.582 110.842C42.4148 142.337 25.9739 179.671 20 219C19.8249 220.132 19.6497 221.263 19.4693 222.429C17.9242 233.401 17.6002 244.241 17.625 255.313C17.6256 256.231 17.6261 257.15 17.6267 258.096C17.7642 308.858 34.0628 360.109 66 400C66.642 400.833 67.2839 401.665 67.9453 402.523C73.2662 409.352 79.0422 415.729 85 422C85.5069 422.536 86.0139 423.071 86.5361 423.623C94.4417 431.918 102.795 439.185 112 446C112.574 446.429 113.147 446.858 113.738 447.3C144.598 470.297 180.906 486.092 219 492C220.136 492.177 221.272 492.353 222.443 492.535C233.409 494.079 244.247 494.4 255.312 494.375C256.231 494.374 257.15 494.374 258.096 494.373C308.858 494.236 360.109 477.937 400 446C400.833 445.358 401.665 444.716 402.523 444.055C409.352 438.734 415.729 432.958 422 427C422.536 426.493 423.071 425.986 423.623 425.464C431.37 418.081 438.266 410.349 444.666 401.774C445.979 400.028 447.322 398.308 448.672 396.59C471.612 366.954 486.387 329.95 492 293C492.175 291.868 492.35 290.737 492.531 289.571C494.076 278.599 494.4 267.759 494.375 256.688C494.374 255.769 494.374 254.85 494.373 253.904C494.236 203.142 477.937 151.891 446 112C445.037 110.751 445.037 110.751 444.055 109.477C432.195 94.2556 418.365 79.6929 403 68C402.376 67.521 401.751 67.0419 401.108 66.5484C359.407 34.7651 309.119 17.5076 256.688 17.625C255.769 17.6256 254.85 17.6261 253.904 17.6267C200.869 17.7704 149.388 35.6893 108 69Z" fill="white"/>
<path d="M224.406 101.839C225.157 101.834 225.909 101.829 226.683 101.824C229.17 101.809 231.657 101.802 234.145 101.797C235.875 101.791 237.605 101.785 239.335 101.78C242.964 101.769 246.593 101.763 250.222 101.76C254.866 101.754 259.509 101.73 264.153 101.702C267.728 101.683 271.302 101.678 274.877 101.676C276.589 101.673 278.3 101.665 280.012 101.652C282.41 101.635 284.808 101.637 287.206 101.644C287.909 101.634 288.612 101.625 289.337 101.616C293.958 101.655 297.073 102.581 301 105C307.5 111.648 308.3 117.625 308.227 126.494C308.227 127.431 308.228 128.368 308.228 129.334C308.227 132.418 308.211 135.502 308.195 138.586C308.192 140.73 308.189 142.873 308.187 145.017C308.179 150.649 308.159 156.282 308.137 161.914C308.117 167.665 308.108 173.417 308.098 179.168C308.076 190.445 308.042 201.723 308 213C309.214 212.993 310.429 212.987 311.68 212.98C323.127 212.919 334.575 212.874 346.022 212.845C351.907 212.829 357.792 212.808 363.677 212.774C369.357 212.741 375.037 212.723 380.717 212.715C382.883 212.71 385.05 212.699 387.216 212.683C390.252 212.661 393.287 212.658 396.323 212.659C397.218 212.649 398.112 212.638 399.034 212.627C404.115 212.652 407.605 213.168 412 216C417.798 221.929 419.245 227.091 419.275 235.255C419.282 236.305 419.282 236.305 419.29 237.377C419.304 239.676 419.303 241.974 419.301 244.273C419.305 245.882 419.309 247.491 419.314 249.1C419.321 252.468 419.321 255.835 419.316 259.202C419.31 263.501 419.327 267.8 419.35 272.1C419.365 275.422 419.366 278.743 419.362 282.065C419.363 283.65 419.368 285.234 419.378 286.818C419.479 304.833 419.479 304.833 414.281 311.059C413.693 311.514 413.106 311.969 412.5 312.437C411.912 312.911 411.324 313.384 410.719 313.871C407.812 315.78 405.299 316.125 401.919 316.12C400.676 316.122 400.676 316.122 399.408 316.124C398.502 316.121 397.596 316.117 396.663 316.113C395.229 316.114 395.229 316.114 393.765 316.114C390.6 316.113 387.435 316.105 384.27 316.098C382.077 316.096 379.884 316.094 377.691 316.093C371.916 316.09 366.14 316.08 360.365 316.069C354.473 316.058 348.581 316.054 342.689 316.049C331.126 316.038 319.563 316.021 308 316C308.01 317.777 308.01 317.777 308.02 319.591C308.081 330.772 308.126 341.954 308.155 353.136C308.171 358.884 308.192 364.633 308.226 370.381C308.259 375.931 308.277 381.481 308.285 387.031C308.29 389.146 308.301 391.261 308.317 393.375C308.339 396.343 308.342 399.311 308.341 402.279C308.351 403.148 308.362 404.017 308.373 404.912C308.341 411.232 307.473 417.038 303.281 422.059C302.693 422.514 302.106 422.969 301.5 423.437C300.912 423.911 300.324 424.384 299.719 424.871C295.882 427.391 292.002 427.154 287.594 427.161C286.843 427.166 286.091 427.171 285.317 427.176C282.83 427.191 280.343 427.198 277.855 427.203C276.125 427.209 274.395 427.215 272.665 427.22C269.036 427.231 265.407 427.237 261.778 427.24C257.134 427.246 252.491 427.27 247.847 427.298C244.272 427.317 240.698 427.322 237.123 427.324C235.411 427.327 233.699 427.335 231.988 427.348C229.59 427.365 227.192 427.363 224.794 427.356C224.091 427.366 223.388 427.375 222.663 427.384C218.042 427.345 214.927 426.419 211 424C204.5 417.352 203.7 411.375 203.773 402.506C203.773 401.569 203.772 400.632 203.772 399.666C203.773 396.582 203.789 393.498 203.805 390.414C203.808 388.27 203.811 386.126 203.813 383.983C203.821 378.35 203.841 372.718 203.863 367.086C203.883 361.335 203.892 355.583 203.902 349.832C203.924 338.555 203.958 327.277 204 316C202.786 316.007 201.571 316.013 200.32 316.02C188.873 316.081 177.425 316.126 165.978 316.155C160.093 316.171 154.208 316.192 148.323 316.226C142.643 316.259 136.963 316.277 131.283 316.285C129.117 316.29 126.95 316.301 124.784 316.317C121.748 316.339 118.713 316.342 115.677 316.341C114.782 316.351 113.888 316.362 112.966 316.373C107.885 316.348 104.395 315.832 100 313C94.2023 307.071 92.7552 301.909 92.7253 293.745C92.7202 293.045 92.7151 292.345 92.7098 291.623C92.696 289.324 92.6969 287.026 92.6992 284.727C92.6953 283.118 92.691 281.509 92.6862 279.9C92.6788 276.532 92.679 273.165 92.6843 269.798C92.6901 265.498 92.6732 261.2 92.65 256.9C92.6352 253.578 92.6344 250.257 92.6375 246.935C92.637 245.35 92.6318 243.766 92.6217 242.182C92.5208 224.167 92.5208 224.167 97.7187 217.941C98.3065 217.486 98.8944 217.031 99.5 216.562C100.088 216.089 100.676 215.616 101.281 215.129C104.188 213.22 106.701 212.875 110.081 212.88C111.324 212.878 111.324 212.878 112.592 212.876C113.498 212.879 114.404 212.883 115.337 212.886C116.771 212.886 116.771 212.886 118.234 212.886C121.4 212.887 124.565 212.894 127.73 212.902C129.923 212.904 132.116 212.906 134.309 212.907C140.084 212.91 145.86 212.92 151.635 212.931C157.527 212.942 163.419 212.946 169.311 212.951C180.874 212.962 192.437 212.979 204 213C203.99 211.223 203.99 211.223 203.98 209.409C203.919 198.228 203.874 187.046 203.845 175.864C203.829 170.116 203.808 164.367 203.774 158.619C203.741 153.069 203.723 147.519 203.715 141.968C203.71 139.854 203.699 137.739 203.683 135.625C203.661 132.656 203.658 129.689 203.659 126.721C203.649 125.852 203.638 124.983 203.627 124.088C203.659 117.768 204.527 111.962 208.719 106.941C209.307 106.486 209.894 106.031 210.5 105.562C211.088 105.089 211.676 104.616 212.281 104.129C216.118 101.609 219.998 101.846 224.406 101.839ZM222 120C221.963 127.617 221.925 135.234 221.887 143.082C221.856 147.899 221.825 152.716 221.791 157.533C221.737 165.184 221.686 172.835 221.654 180.486C221.628 186.652 221.587 192.818 221.537 198.984C221.52 201.34 221.509 203.696 221.502 206.052C221.493 209.345 221.465 212.637 221.432 215.929C221.435 217.4 221.435 217.4 221.437 218.9C221.418 220.244 221.418 220.244 221.399 221.615C221.394 222.394 221.389 223.173 221.385 223.975C220.9 226.528 219.998 227.391 218 229C215.689 230.155 214.346 230.137 211.773 230.158C210.887 230.168 210.001 230.178 209.088 230.188C208.113 230.194 207.138 230.199 206.134 230.205C205.11 230.215 204.085 230.225 203.03 230.235C199.632 230.267 196.234 230.292 192.836 230.316C190.485 230.337 188.133 230.358 185.782 230.379C179.584 230.435 173.386 230.484 167.189 230.532C159.757 230.591 152.326 230.657 144.894 230.722C133.596 230.821 122.298 230.909 111 231C111 253.11 111 275.22 111 298C118.533 298.061 126.067 298.121 133.828 298.184C138.595 298.224 143.362 298.265 148.129 298.307C155.698 298.373 163.268 298.438 170.837 298.497C176.939 298.545 183.04 298.597 189.141 298.653C191.471 298.673 193.801 298.692 196.131 298.709C199.39 298.733 202.649 298.763 205.907 298.795C206.875 298.8 207.842 298.806 208.839 298.812C209.728 298.822 210.617 298.832 211.533 298.842C212.303 298.848 213.074 298.855 213.868 298.861C216.08 299.005 217.923 299.211 220 300C220.929 302.788 221.134 304.502 221.158 307.385C221.168 308.281 221.178 309.177 221.188 310.1C221.194 311.081 221.199 312.061 221.205 313.071C221.215 314.105 221.225 315.14 221.235 316.205C221.267 319.63 221.292 323.055 221.316 326.48C221.337 328.853 221.358 331.225 221.379 333.597C221.435 339.846 221.484 346.095 221.532 352.344C221.591 359.838 221.657 367.333 221.723 374.828C221.821 386.219 221.909 397.609 222 409C244.44 409 266.88 409 290 409C290.037 401.383 290.075 393.766 290.113 385.918C290.144 381.101 290.175 376.284 290.209 371.467C290.263 363.816 290.314 356.165 290.346 348.514C290.372 342.348 290.413 336.182 290.463 330.016C290.48 327.66 290.491 325.304 290.498 322.948C290.507 319.655 290.535 316.363 290.568 313.071C290.566 312.091 290.565 311.11 290.563 310.1C290.576 309.204 290.588 308.308 290.601 307.385C290.606 306.606 290.61 305.827 290.615 305.025C291.1 302.472 292.001 301.609 294 300C296.311 298.845 297.654 298.863 300.227 298.842C301.556 298.827 301.556 298.827 302.912 298.812C304.374 298.803 304.374 298.803 305.866 298.795C306.89 298.785 307.915 298.775 308.97 298.765C312.368 298.733 315.766 298.708 319.164 298.684C321.515 298.663 323.867 298.642 326.218 298.621C332.416 298.565 338.613 298.516 344.811 298.468C352.243 298.409 359.674 298.342 367.105 298.277C378.404 298.179 389.702 298.091 401 298C401 275.89 401 253.78 401 231C393.467 230.951 385.933 230.902 378.172 230.852C373.405 230.816 368.638 230.78 363.871 230.742C356.302 230.682 348.732 230.624 341.163 230.578C335.061 230.541 328.96 230.495 322.859 230.442C320.529 230.423 318.199 230.408 315.868 230.397C312.61 230.38 309.351 230.351 306.093 230.319C305.125 230.317 304.158 230.314 303.161 230.312C302.272 230.301 301.383 230.29 300.467 230.278C299.697 230.273 298.926 230.267 298.132 230.262C295.691 229.962 294.084 229.294 292 228C290.84 225.68 290.863 224.319 290.842 221.735C290.827 220.393 290.827 220.393 290.812 219.024C290.806 218.04 290.801 217.056 290.795 216.042C290.785 215.008 290.775 213.974 290.765 212.909C290.733 209.478 290.708 206.048 290.684 202.617C290.663 200.243 290.642 197.87 290.621 195.496C290.565 189.239 290.516 182.982 290.468 176.725C290.409 169.223 290.343 161.72 290.277 154.218C290.179 142.812 290.091 131.406 290 120C267.56 120 245.12 120 222 120Z" fill="white"/>
</g>
<defs>
<clipPath id="clip0_90_4">
<rect width="512" height="512" fill="white"/>
</clipPath>
</defs>
</svg>
