<svg width="512" height="512" viewBox="0 0 512 512" fill="none" xmlns="http://www.w3.org/2000/svg">
<g clip-path="url(#clip0_78_33)">
<path d="M82.2819 -0.13423C83.3837 -0.138688 84.4855 -0.143146 85.6206 -0.147738C86.836 -0.147554 88.0513 -0.14737 89.3035 -0.14718C90.5908 -0.150856 91.8781 -0.154533 93.2045 -0.158321C96.7851 -0.168345 100.366 -0.172059 103.946 -0.174711C107.806 -0.178612 111.665 -0.188191 115.524 -0.196923C124.847 -0.216691 134.17 -0.226754 143.493 -0.235651C147.883 -0.240034 152.273 -0.245401 156.663 -0.25064C171.254 -0.267653 185.845 -0.282147 200.436 -0.289389C204.223 -0.291299 208.01 -0.293219 211.797 -0.295175C213.208 -0.2959 213.208 -0.2959 214.649 -0.296641C229.898 -0.304942 245.147 -0.33028 260.396 -0.362755C276.049 -0.39582 291.702 -0.413837 307.355 -0.417033C316.145 -0.419199 324.934 -0.427955 333.724 -0.453494C341.209 -0.475193 348.695 -0.483256 356.18 -0.473527C359.999 -0.46898 363.817 -0.470892 367.636 -0.490289C371.778 -0.511146 375.919 -0.500943 380.062 -0.487756C381.868 -0.50421 381.868 -0.50421 383.711 -0.520996C393.468 -0.445893 399.309 1.9401 406.5 8.74999C406.986 9.20882 407.473 9.66764 407.974 10.1404C409.663 11.7468 411.332 13.3715 413 15C413.694 15.6737 414.388 16.3474 415.103 17.0415C417.328 19.2066 419.541 21.382 421.75 23.5625C422.466 24.2654 423.182 24.9682 423.92 25.6924C424.581 26.3521 425.241 27.0117 425.922 27.6914C426.516 28.2812 427.11 28.8711 427.722 29.4788C429 31 429 31 429 33C429.66 33 430.32 33 431 33C431 33.66 431 34.32 431 35C431.577 35.2475 432.155 35.495 432.75 35.75C435.329 37.183 437.061 38.7842 439 41C439 41.66 439 42.32 439 43C439.66 43 440.32 43 441 43C442.41 44.4336 442.41 44.4336 444.062 46.4375C447.413 50.4184 451.036 53.9386 454.887 57.4336C461.941 66.0001 461.569 75.298 461.508 85.8459C461.513 87.5666 461.519 89.2873 461.527 91.008C461.543 95.7229 461.535 100.437 461.523 105.152C461.514 110.243 461.528 115.333 461.539 120.423C461.557 130.389 461.553 140.355 461.541 150.322C461.532 158.423 461.531 166.524 461.535 174.624C461.536 175.778 461.536 176.931 461.537 178.119C461.538 180.462 461.54 182.805 461.541 185.147C461.552 207.114 461.539 229.08 461.518 251.047C461.5 269.891 461.503 288.735 461.521 307.578C461.543 329.465 461.551 351.352 461.539 373.238C461.538 375.573 461.536 377.907 461.535 380.242C461.534 381.965 461.534 381.965 461.533 383.722C461.53 391.812 461.536 399.901 461.545 407.991C461.556 417.852 461.553 427.713 461.532 437.573C461.522 442.604 461.517 447.633 461.531 452.664C461.543 457.271 461.536 461.878 461.515 466.485C461.51 468.149 461.512 469.813 461.522 471.477C461.593 484.621 459.847 493.971 450.516 503.797C444.338 509.207 437.236 512.121 429.068 512.134C427.821 512.139 426.574 512.143 425.289 512.148C423.898 512.148 422.507 512.147 421.115 512.147C419.643 512.15 418.171 512.154 416.699 512.158C412.643 512.168 408.588 512.172 404.532 512.175C400.162 512.179 395.791 512.188 391.421 512.197C380.861 512.217 370.301 512.227 359.74 512.236C354.768 512.24 349.796 512.245 344.824 512.251C328.296 512.268 311.768 512.282 295.239 512.289C290.949 512.291 286.659 512.293 282.369 512.295C280.769 512.296 280.769 512.296 279.138 512.297C261.866 512.305 244.594 512.33 227.323 512.363C209.593 512.396 191.863 512.414 174.133 512.417C164.177 512.419 154.221 512.428 144.266 512.453C135.786 512.475 127.307 512.483 118.828 512.474C114.502 512.469 110.177 512.471 105.852 512.49C101.889 512.508 97.9254 512.507 93.9619 512.491C92.5318 512.489 91.1017 512.493 89.6716 512.505C77.0209 512.604 68.4673 510.314 59.2031 501.516C53.26 494.73 50.8477 487.347 50.8658 478.475C50.8634 477.698 50.8611 476.921 50.8586 476.12C50.8519 473.494 50.8524 470.869 50.8528 468.243C50.8495 466.35 50.8458 464.457 50.8417 462.565C50.8316 457.346 50.8279 452.127 50.8253 446.909C50.8214 441.287 50.8118 435.665 50.8031 430.043C50.7833 416.457 50.7732 402.871 50.7643 389.285C50.76 382.891 50.7546 376.496 50.7493 370.101C50.7323 348.848 50.7178 327.595 50.7106 306.342C50.7101 304.967 50.7096 303.593 50.7092 302.218C50.7089 301.536 50.7087 300.854 50.7085 300.152C50.7073 296.698 50.706 293.244 50.7048 289.79C50.7046 289.104 50.7043 288.419 50.7041 287.713C50.6962 265.492 50.6728 243.271 50.6403 221.05C50.606 197.558 50.5862 174.066 50.583 150.574C50.5808 137.768 50.572 124.962 50.5465 112.156C50.5248 101.25 50.5167 90.3442 50.5265 79.4384C50.531 73.8736 50.5291 68.3091 50.5097 62.7444C50.4921 57.6484 50.493 52.5528 50.5086 47.4568C50.511 45.6149 50.5066 43.7729 50.4948 41.931C50.4121 28.234 51.7292 18.4751 61.4844 8.20312C67.3898 3.03124 74.4286 -0.119513 82.2819 -0.13423ZM71.6875 24.5625C68.7791 28.7635 68.8564 32.4942 68.8686 37.4114C68.8665 38.1762 68.8644 38.941 68.8623 39.729C68.8566 42.3127 68.8581 44.8964 68.8595 47.48C68.857 49.3428 68.8539 51.2055 68.8505 53.0682C68.8424 58.2034 68.8407 63.3385 68.8399 68.4737C68.8381 74.0055 68.8305 79.5373 68.8238 85.0691C68.8102 97.1722 68.8042 109.275 68.7998 121.379C68.797 128.931 68.7928 136.484 68.7883 144.037C68.7761 164.937 68.7658 185.836 68.7624 206.736C68.7622 208.088 68.762 209.439 68.7617 210.791C68.7615 212.146 68.7613 213.501 68.7611 214.856C68.7606 217.575 68.7602 220.293 68.7597 223.012C68.7596 223.686 68.7595 224.36 68.7594 225.054C68.7558 246.915 68.7399 268.776 68.7166 290.637C68.692 313.743 68.6782 336.849 68.677 359.955C68.6761 372.553 68.6703 385.151 68.6522 397.749C68.6369 408.475 68.6317 419.2 68.64 429.926C68.6439 435.401 68.6429 440.876 68.6289 446.351C68.6162 451.361 68.6173 456.37 68.6295 461.379C68.6315 463.194 68.6283 465.009 68.6197 466.824C68.6086 469.287 68.616 471.749 68.628 474.211C68.6204 474.92 68.6129 475.628 68.605 476.358C68.6609 481.632 69.8944 485.744 73.5351 489.645C78.0541 493.1 80.0754 494.125 85.7266 494.134C87.5663 494.141 87.5663 494.141 89.4431 494.148C90.8165 494.148 92.19 494.147 93.5634 494.147C95.0128 494.15 96.4622 494.154 97.9115 494.158C101.909 494.168 105.906 494.172 109.903 494.175C114.209 494.179 118.514 494.188 122.82 494.197C133.225 494.217 143.63 494.227 154.035 494.236C158.931 494.24 163.828 494.245 168.724 494.251C184.996 494.268 201.267 494.282 217.539 494.289C221.763 494.291 225.987 494.293 230.212 494.295C231.787 494.296 231.787 494.296 233.394 494.297C250.409 494.305 267.425 494.33 284.441 494.363C301.9 494.396 319.358 494.414 336.817 494.417C346.624 494.419 356.431 494.428 366.238 494.453C374.588 494.475 382.939 494.483 391.29 494.474C395.552 494.469 399.814 494.471 404.076 494.49C407.977 494.508 411.877 494.507 415.778 494.491C417.19 494.489 418.602 494.493 420.014 494.505C429.873 494.792 429.873 494.792 438 490C442.42 485.102 443.125 481.81 443.123 475.306C443.125 474.275 443.125 474.275 443.127 473.223C443.129 470.903 443.125 468.584 443.12 466.264C443.121 464.591 443.122 462.918 443.123 461.244C443.125 456.634 443.121 452.023 443.116 447.412C443.112 442.445 443.113 437.477 443.114 432.51C443.114 423.9 443.111 415.289 443.106 406.678C443.098 394.229 443.095 381.779 443.094 369.33C443.092 349.133 443.085 328.936 443.075 308.739C443.066 289.116 443.059 269.493 443.055 249.87C443.055 248.661 443.054 247.452 443.054 246.206C443.053 240.142 443.052 234.077 443.05 228.012C443.04 177.675 443.022 127.337 443 77C442.088 76.9906 441.176 76.9813 440.237 76.9717C436.802 76.9272 433.367 76.8654 429.932 76.7925C428.456 76.7645 426.979 76.7432 425.502 76.729C413.001 76.6018 402.335 75.2621 392.945 66.293C387.235 59.5621 384.889 52.1629 384.684 43.4883C384.663 42.76 384.642 42.0318 384.621 41.2815C384.555 38.9586 384.496 36.6356 384.437 34.3125C384.394 32.7363 384.351 31.1601 384.307 29.584C384.2 25.7228 384.098 21.8614 384 18C345.374 17.9085 306.749 17.838 268.123 17.7957C263.564 17.7907 259.005 17.7855 254.447 17.7803C253.539 17.7792 252.632 17.7782 251.697 17.7771C236.996 17.7597 222.295 17.7281 207.594 17.6914C192.513 17.654 177.432 17.6318 162.351 17.6236C153.042 17.6181 143.735 17.6008 134.426 17.5683C128.046 17.5472 121.666 17.5408 115.285 17.546C111.603 17.5486 107.92 17.5446 104.237 17.5232C100.246 17.5001 96.2543 17.508 92.2625 17.519C91.0972 17.5073 89.9318 17.4957 88.7311 17.4837C80.7726 17.5429 77.1009 18.5639 71.6875 24.5625ZM402 31C401.891 33.7094 401.812 36.4144 401.75 39.125C401.716 39.8855 401.683 40.6461 401.648 41.4297C401.556 46.7997 402.461 49.7262 406 54C411.137 58.6355 414.967 59.1441 421.687 59.0625C422.389 59.058 423.091 59.0535 423.814 59.0488C425.543 59.0371 427.271 59.0191 429 59C425.7 54.3282 422.633 50.4416 418 47C417.67 46.34 417.34 45.68 417 45C416.34 45 415.68 45 415 45C415 44.34 415 43.68 415 43C414.34 43 413.68 43 413 43C412.752 42.4225 412.505 41.845 412.25 41.25C410.817 38.6706 409.216 36.9388 407 35C406.34 35 405.68 35 405 35C405 34.34 405 33.68 405 33C404.34 33 403.68 33 403 33C402.67 32.34 402.34 31.68 402 31Z" fill="white"/>
<path d="M225 85C227.875 86.5625 227.875 86.5625 230 89C231.099 92.7767 231.513 94.9118 229.817 98.51C227.77 101.316 225.879 102.593 222.93 104.402C215.023 110.047 207.512 116.01 205.364 125.939C203.957 136.613 204.241 147.383 204.589 158.119C204.627 159.289 204.665 160.459 204.703 161.664C204.789 163.88 204.901 166.096 205.044 168.31C205.473 176.909 203.699 183.291 197.938 189.812C189.947 197.124 179.723 197.601 169.406 197.531C168.138 197.535 166.87 197.539 165.564 197.543C162.898 197.546 160.233 197.54 157.567 197.521C154.181 197.499 150.797 197.512 147.411 197.536C144.139 197.554 140.866 197.541 137.594 197.531C136.394 197.539 135.195 197.547 133.96 197.556C124.829 197.455 116.028 196.187 109.062 189.812C101.869 181.643 101.403 173.241 101.469 162.691C101.466 161.316 101.462 159.94 101.457 158.564C101.451 155.694 101.46 152.824 101.479 149.954C101.501 146.301 101.488 142.65 101.464 138.998C101.45 136.16 101.454 133.323 101.465 130.486C101.469 128.493 101.457 126.5 101.444 124.507C101.534 115.786 102.507 108.249 108.184 101.344C108.927 100.735 109.671 100.127 110.438 99.5C111.549 98.5564 111.549 98.5564 112.684 97.5937C118.461 93.6184 124.698 92.8827 131.587 92.8547C132.659 92.8483 133.73 92.8419 134.835 92.8354C136.55 92.8337 136.55 92.8337 138.301 92.832C139.492 92.8287 140.683 92.8253 141.91 92.8219C144.425 92.8168 146.941 92.8145 149.457 92.8147C153.288 92.8125 157.12 92.7943 160.951 92.7753C163.401 92.7724 165.851 92.7704 168.301 92.7695C169.439 92.7623 170.576 92.7551 171.749 92.7477C188.272 92.7947 188.272 92.7947 194.375 98.125C197.211 100.688 197.211 100.688 201 101C202.775 99.6246 202.775 99.6246 204.504 97.7539C205.162 97.0816 205.82 96.4094 206.498 95.7168C207.179 95.0058 207.861 94.2949 208.562 93.5625C209.916 92.1658 211.271 90.7712 212.629 89.3789C213.228 88.7557 213.827 88.1325 214.444 87.4904C217.696 84.3758 220.633 84.6299 225 85ZM122 114C119.766 117.351 119.74 118.483 119.709 122.402C119.697 123.507 119.684 124.611 119.671 125.75C119.669 126.943 119.666 128.137 119.664 129.367C119.657 130.594 119.651 131.821 119.644 133.085C119.634 135.682 119.629 138.28 119.629 140.877C119.625 144.852 119.589 148.826 119.551 152.801C119.545 155.323 119.541 157.845 119.539 160.367C119.525 161.557 119.51 162.747 119.496 163.972C119.479 170.389 119.479 170.389 121.841 176.227C125.206 178.99 127.997 179.135 132.202 179.193C133.264 179.209 134.325 179.225 135.419 179.242C140.269 179.286 145.118 179.327 149.968 179.35C152.526 179.367 155.083 179.394 157.641 179.432C161.33 179.487 165.018 179.509 168.707 179.523C170.418 179.557 170.418 179.557 172.164 179.592C178.824 179.642 178.824 179.642 184.732 176.935C187.619 173.199 187.698 171.201 187.586 166.512C187.573 165.457 187.573 165.457 187.56 164.381C187.527 162.148 187.452 159.919 187.375 157.687C187.345 156.169 187.318 154.65 187.293 153.131C187.227 149.419 187.124 145.71 187 142C183.391 144.978 179.913 148.005 176.684 151.394C176.147 151.957 175.61 152.52 175.057 153.1C173.966 154.254 172.882 155.415 171.807 156.584C169.244 159.245 167.502 160.822 163.973 162.074C156.232 161.881 151.356 155.936 146.188 150.812C145.412 150.082 144.637 149.352 143.838 148.6C137.62 142.458 137.62 142.458 136.938 137.602C137.024 132.6 137.024 132.6 139 130C142.304 128.348 145.457 128.229 149 129C152.03 130.991 154.485 133.402 157 136C157.825 136.804 158.65 137.609 159.5 138.437C159.995 138.953 160.49 139.469 161 140C164.766 138.437 167.136 136.094 169.984 133.211C170.445 132.748 170.905 132.284 171.38 131.807C172.841 130.334 174.296 128.855 175.75 127.375C176.743 126.372 177.737 125.369 178.73 124.367C181.159 121.917 183.581 119.46 186 117C185.055 114.637 184.425 113.271 182.249 111.884C179.609 110.846 177.595 110.74 174.76 110.725C173.193 110.711 173.193 110.711 171.594 110.696C169.91 110.698 169.91 110.698 168.191 110.699C167.033 110.695 165.874 110.691 164.68 110.686C162.229 110.68 159.779 110.68 157.329 110.684C153.58 110.687 149.832 110.664 146.084 110.639C143.703 110.636 141.322 110.636 138.941 110.637C137.82 110.627 136.699 110.618 135.545 110.609C134.497 110.615 133.449 110.621 132.369 110.628C131.451 110.627 130.533 110.626 129.586 110.626C126.426 111.083 124.572 112.13 122 114Z" fill="white"/>
<path d="M128.337 212.725C129.572 212.716 130.807 212.706 132.08 212.696C133.415 212.697 134.751 212.698 136.086 212.699C137.471 212.695 138.855 212.691 140.24 212.686C143.137 212.679 146.033 212.679 148.93 212.684C152.624 212.69 156.317 212.673 160.011 212.65C162.87 212.635 165.728 212.634 168.587 212.637C170.606 212.637 172.624 212.623 174.642 212.609C183.788 212.655 191.431 213.485 198.274 220.095C205.391 227.95 205.75 236.701 205.664 246.844C205.667 248.263 205.672 249.682 205.679 251.101C205.686 254.06 205.675 257.017 205.652 259.976C205.623 263.742 205.64 267.506 205.67 271.272C205.688 274.198 205.682 277.123 205.669 280.049C205.666 281.436 205.67 282.823 205.681 284.211C205.744 293.681 204.887 301.697 198.245 308.905C190.29 316.431 182.067 316.452 171.598 316.398C170.192 316.4 168.786 316.403 167.38 316.407C164.443 316.411 161.505 316.405 158.568 316.391C154.821 316.374 151.075 316.384 147.328 316.402C144.427 316.413 141.527 316.409 138.626 316.401C137.246 316.399 135.865 316.402 134.484 316.409C124.305 316.449 116.316 315.852 108.539 308.75C103.819 303.383 101.887 297.045 101.823 290.019C101.81 288.787 101.797 287.555 101.784 286.286C101.776 284.938 101.769 283.59 101.762 282.242C101.758 281.561 101.754 280.88 101.749 280.178C101.729 276.569 101.714 272.96 101.705 269.352C101.694 265.643 101.659 261.935 101.62 258.226C101.593 255.359 101.585 252.492 101.582 249.625C101.577 248.259 101.565 246.893 101.547 245.527C101.414 235.16 102.524 226.696 110 219C115.827 214.566 121.037 212.756 128.337 212.725ZM121.743 232.743C118.965 237.935 119.287 242.982 119.336 248.781C119.331 250.027 119.326 251.274 119.321 252.558C119.317 255.864 119.337 259.169 119.365 262.475C119.375 264.498 119.365 266.521 119.348 268.544C119.317 272.436 119.321 276.327 119.336 280.219C119.326 281.424 119.316 282.629 119.305 283.871C119.372 288.629 119.479 292.025 121.743 296.257C126.935 299.035 131.982 298.713 137.781 298.664C139.651 298.671 139.651 298.671 141.558 298.679C144.864 298.683 148.169 298.663 151.475 298.635C153.498 298.625 155.521 298.635 157.544 298.652C161.436 298.683 165.327 298.679 169.219 298.664C171.027 298.679 171.027 298.679 172.871 298.695C177.629 298.628 181.025 298.521 185.257 296.257C188.035 291.065 187.713 286.018 187.664 280.219C187.671 278.349 187.671 278.349 187.679 276.442C187.683 273.136 187.663 269.831 187.635 266.525C187.625 264.501 187.635 262.479 187.652 260.456C187.683 256.564 187.679 252.673 187.664 248.781C187.674 247.576 187.684 246.371 187.695 245.129C187.628 240.371 187.521 236.975 185.257 232.743C180.065 229.965 175.018 230.287 169.219 230.336C167.349 230.329 167.349 230.329 165.442 230.321C162.136 230.317 158.831 230.337 155.525 230.365C153.502 230.375 151.479 230.365 149.456 230.348C145.564 230.317 141.673 230.321 137.781 230.336C135.973 230.321 135.973 230.321 134.129 230.305C129.371 230.372 125.975 230.479 121.743 232.743Z" fill="white"/>
<path d="M138.277 331.566C139.524 331.561 140.772 331.556 142.057 331.551C145.349 331.542 148.64 331.549 151.932 331.561C153.935 331.562 155.937 331.55 157.939 331.533C161.823 331.503 165.706 331.499 169.59 331.504C170.77 331.493 171.951 331.481 173.167 331.47C182.255 331.545 191.009 332.845 197.938 339.187C205.177 347.414 205.604 355.968 205.531 366.562C205.534 367.963 205.538 369.363 205.543 370.764C205.549 373.686 205.54 376.607 205.521 379.528C205.499 383.25 205.512 386.971 205.536 390.693C205.55 393.581 205.546 396.469 205.535 399.357C205.533 400.728 205.536 402.1 205.545 403.471C205.594 412.668 204.809 419.761 199.324 427.305C192.572 433.783 185.726 436.095 176.359 436.161C174.696 436.176 174.696 436.176 172.999 436.19C171.81 436.194 170.62 436.199 169.395 436.203C168.16 436.209 166.926 436.215 165.654 436.22C163.042 436.23 160.431 436.236 157.819 436.24C153.845 436.247 149.871 436.281 145.896 436.312C143.354 436.319 140.812 436.324 138.27 436.328C137.09 436.34 135.911 436.353 134.695 436.366C125.854 436.342 116.963 435.617 110.125 429.437C109.077 428.538 109.077 428.538 108.008 427.621C101.762 419.467 101.406 410.758 101.469 400.812C101.466 399.461 101.462 398.109 101.457 396.757C101.451 393.94 101.46 391.123 101.479 388.306C101.501 384.722 101.488 381.139 101.464 377.555C101.45 374.768 101.454 371.981 101.465 369.195C101.469 367.24 101.457 365.284 101.444 363.329C101.534 354.686 102.649 347.375 108.008 340.379C109.056 339.48 109.056 339.48 110.125 338.562C110.808 337.945 111.491 337.328 112.195 336.691C120.322 331.79 129.013 331.543 138.277 331.566ZM122 353C119.766 356.351 119.74 357.483 119.709 361.402C119.697 362.507 119.684 363.611 119.671 364.75C119.669 365.943 119.666 367.137 119.664 368.367C119.657 369.594 119.651 370.821 119.644 372.085C119.634 374.682 119.629 377.28 119.629 379.877C119.625 383.852 119.589 387.826 119.551 391.801C119.545 394.323 119.541 396.845 119.539 399.367C119.525 400.557 119.51 401.747 119.496 402.972C119.479 409.389 119.479 409.389 121.841 415.227C125.192 417.979 127.94 418.13 132.126 418.161C133.171 418.171 134.216 418.18 135.292 418.19C136.42 418.194 137.549 418.199 138.711 418.203C139.871 418.209 141.032 418.215 142.227 418.22C144.683 418.23 147.139 418.236 149.596 418.24C153.353 418.25 157.11 418.281 160.867 418.312C163.253 418.319 165.638 418.324 168.023 418.328C169.148 418.34 170.272 418.353 171.43 418.366C172.481 418.363 173.532 418.36 174.615 418.356C175.536 418.36 176.458 418.364 177.407 418.367C181.489 417.789 184.127 415.873 187 413C187.321 410.481 187.321 410.481 187.291 407.512C187.303 406.364 187.316 405.216 187.329 404.033C187.331 402.787 187.334 401.541 187.336 400.258C187.343 398.983 187.349 397.708 187.356 396.394C187.366 393.692 187.372 390.99 187.371 388.289C187.37 384.829 187.398 381.371 187.432 377.912C187.46 374.61 187.459 371.309 187.461 368.008C187.475 366.766 187.49 365.524 187.504 364.245C187.495 362.513 187.495 362.513 187.486 360.747C187.489 359.731 187.492 358.716 187.494 357.669C186.865 354.272 185.68 353.116 183 351C180.011 350.004 177.997 349.862 174.874 349.839C173.306 349.824 173.306 349.824 171.708 349.81C170.58 349.805 169.451 349.801 168.289 349.797C167.129 349.791 165.968 349.785 164.773 349.78C162.317 349.77 159.861 349.764 157.404 349.76C153.647 349.75 149.89 349.719 146.133 349.687C143.747 349.681 141.362 349.676 138.977 349.672C137.852 349.66 136.728 349.647 135.57 349.634C134.519 349.637 133.468 349.64 132.385 349.644C131.464 349.64 130.542 349.636 129.593 349.632C126.425 350.082 124.576 351.125 122 353Z" fill="white"/>
<path d="M261.066 348.86C262.31 348.854 263.553 348.848 264.834 348.842C266.21 348.841 267.585 348.84 268.961 348.839C270.411 348.834 271.862 348.829 273.312 348.824C277.25 348.811 281.188 348.804 285.126 348.8C287.587 348.797 290.047 348.793 292.508 348.788C300.207 348.775 307.905 348.765 315.604 348.761C324.491 348.757 333.377 348.739 342.264 348.71C349.134 348.688 356.005 348.678 362.875 348.677C366.979 348.676 371.082 348.67 375.185 348.652C379.043 348.636 382.902 348.634 386.76 348.642C388.176 348.643 389.591 348.639 391.006 348.629C392.94 348.616 394.873 348.624 396.807 348.633C398.429 348.63 398.429 348.63 400.085 348.628C403.448 349.057 405.292 349.986 408 352C410.5 355.75 410.536 357.559 410 362C407.505 365.149 405.989 366.792 402.009 367.629C400.892 367.631 399.775 367.633 398.624 367.635C397.337 367.649 396.05 367.663 394.724 367.678C393.305 367.668 391.886 367.658 390.467 367.647C388.967 367.654 387.467 367.663 385.967 367.674C381.899 367.696 377.831 367.687 373.763 367.672C369.503 367.659 365.244 367.671 360.985 367.679C353.833 367.688 346.681 367.676 339.529 367.652C331.262 367.625 322.996 367.633 314.729 367.661C307.629 367.684 300.529 367.687 293.429 367.674C289.19 367.666 284.95 367.665 280.711 367.681C276.725 367.696 272.739 367.686 268.753 367.657C267.291 367.65 265.829 367.652 264.367 367.663C262.37 367.677 260.373 367.657 258.376 367.635C257.259 367.633 256.142 367.631 254.991 367.629C251.014 366.793 249.502 365.137 247 362C246.32 357.768 246.516 355.796 248.75 352.125C252.489 348.594 256.065 348.873 261.066 348.86Z" fill="white"/>
<path d="M260.908 109.866C262.142 109.862 263.375 109.858 264.647 109.853C266.016 109.854 267.386 109.854 268.755 109.855C270.196 109.852 271.637 109.848 273.077 109.845C276.992 109.836 280.908 109.833 284.823 109.833C288.091 109.832 291.359 109.828 294.627 109.825C302.337 109.816 310.047 109.814 317.757 109.815C325.711 109.815 333.665 109.805 341.619 109.789C348.448 109.776 355.276 109.771 362.104 109.771C366.182 109.771 370.261 109.769 374.339 109.758C378.176 109.748 382.012 109.748 385.848 109.756C387.256 109.757 388.663 109.754 390.07 109.748C391.993 109.74 393.916 109.746 395.838 109.753C396.914 109.752 397.989 109.752 399.097 109.751C403.032 110.089 405.906 110.982 408.812 113.688C410.536 117.043 410.522 119.28 410 123C407.502 126.143 405.988 127.792 402.009 128.629C400.892 128.631 399.775 128.633 398.624 128.635C397.337 128.649 396.05 128.663 394.724 128.678C393.305 128.668 391.886 128.658 390.467 128.647C388.967 128.654 387.467 128.663 385.967 128.674C381.899 128.696 377.831 128.688 373.763 128.672C369.503 128.659 365.244 128.671 360.985 128.679C353.833 128.688 346.681 128.676 339.529 128.652C331.262 128.625 322.996 128.634 314.729 128.661C307.629 128.684 300.529 128.687 293.429 128.674C289.19 128.666 284.95 128.665 280.711 128.682C276.725 128.696 272.739 128.686 268.753 128.657C267.291 128.65 265.829 128.652 264.367 128.663C262.37 128.677 260.373 128.657 258.376 128.635C257.259 128.633 256.142 128.631 254.991 128.629C251.014 127.793 249.505 126.135 247 123C246.375 119.5 246.375 119.5 247 116C251.217 110.758 254.399 109.876 260.908 109.866Z" fill="white"/>
<path d="M259.218 229.726C260.495 229.716 261.772 229.706 263.088 229.696C264.501 229.695 265.915 229.694 267.328 229.694C268.818 229.686 270.308 229.678 271.798 229.668C275.843 229.646 279.889 229.638 283.934 229.633C286.462 229.629 288.989 229.623 291.516 229.616C300.334 229.591 309.151 229.578 317.969 229.574C326.188 229.571 334.407 229.541 342.627 229.499C349.684 229.464 356.742 229.449 363.799 229.448C368.014 229.447 372.229 229.439 376.444 229.41C380.408 229.384 384.371 229.382 388.335 229.398C389.789 229.4 391.243 229.393 392.697 229.377C394.683 229.357 396.669 229.37 398.655 229.385C399.766 229.383 400.877 229.381 402.022 229.379C405.994 230.207 407.502 231.869 410 235C410.692 239.303 410.516 241.209 408.125 244.875C404.746 248.254 402.741 248.129 398.061 248.147C396.162 248.158 396.162 248.158 394.224 248.169C392.813 248.172 391.402 248.174 389.991 248.177C388.511 248.183 387.031 248.19 385.551 248.197C381.524 248.214 377.498 248.225 373.471 248.233C370.956 248.238 368.44 248.244 365.925 248.251C358.059 248.27 350.193 248.284 342.326 248.292C333.241 248.302 324.156 248.328 315.071 248.369C308.051 248.399 301.032 248.414 294.013 248.417C289.819 248.419 285.626 248.428 281.432 248.454C277.486 248.477 273.541 248.481 269.596 248.471C268.148 248.47 266.7 248.477 265.253 248.49C263.275 248.508 261.298 248.499 259.32 248.488C258.214 248.49 257.108 248.493 255.968 248.495C252.307 247.884 250.643 246.554 248 244C246.61 241.22 246.815 239.081 247 236C247.847 233.459 248.439 232.363 250.69 230.908C253.643 229.747 256.043 229.739 259.218 229.726Z" fill="white"/>
<path d="M261.501 391.839C262.381 391.834 263.261 391.829 264.167 391.824C267.087 391.809 270.006 391.802 272.926 391.797C274.951 391.791 276.977 391.785 279.002 391.78C283.253 391.769 287.504 391.763 291.756 391.76C297.203 391.754 302.651 391.73 308.098 391.702C312.284 391.683 316.469 391.678 320.655 391.676C322.663 391.673 324.671 391.665 326.68 391.652C329.49 391.635 332.3 391.637 335.111 391.644C335.94 391.634 336.77 391.625 337.625 391.616C342.235 391.649 345.254 392.008 349 395C350.579 398.158 350.819 401.607 350 405C348.01 407.62 346.389 409.668 343.082 410.458C340.725 410.63 338.414 410.641 336.051 410.599C334.713 410.605 334.713 410.605 333.349 410.611C330.408 410.618 327.468 410.589 324.527 410.559C322.481 410.554 320.435 410.552 318.39 410.551C314.105 410.545 309.82 410.523 305.536 410.487C300.042 410.442 294.549 410.427 289.055 410.423C284.832 410.419 280.609 410.404 276.386 410.384C274.36 410.376 272.334 410.369 270.308 410.364C267.479 410.355 264.649 410.333 261.82 410.306C260.982 410.306 260.144 410.305 259.281 410.304C252.097 410.212 252.097 410.212 249 408C246.698 404.777 246.525 401.88 247 398C251.168 391.748 254.404 391.848 261.501 391.839Z" fill="white"/>
<path d="M261.133 272.369C262.044 272.362 262.955 272.355 263.894 272.347C266.9 272.33 269.904 272.35 272.91 272.371C275.001 272.37 277.092 272.368 279.182 272.364C283.561 272.361 287.94 272.376 292.319 272.403C297.933 272.437 303.547 272.431 309.162 272.412C313.478 272.402 317.794 272.411 322.11 272.426C324.181 272.431 326.251 272.431 328.321 272.424C331.214 272.419 334.104 272.439 336.996 272.467C337.853 272.46 338.71 272.454 339.592 272.447C345.386 272.54 345.386 272.54 348.53 274.895C350.689 277.987 350.557 280.209 350.395 283.875C350 286 350 286 348.188 288.5C343.883 291.452 339.677 291.148 334.661 291.145C333.81 291.149 332.959 291.152 332.083 291.155C329.266 291.165 326.449 291.167 323.633 291.168C321.676 291.171 319.719 291.175 317.763 291.178C313.659 291.184 309.555 291.186 305.451 291.185C300.193 291.185 294.935 291.199 289.677 291.216C285.634 291.227 281.592 291.229 277.55 291.229C275.611 291.23 273.673 291.234 271.734 291.242C269.022 291.252 266.31 291.249 263.598 291.243C262.798 291.249 261.998 291.254 261.173 291.26C256.036 291.231 252.035 290.895 248.187 287.313C246.464 283.957 246.478 281.72 247 278C251.103 272.384 254.676 272.281 261.133 272.369Z" fill="white"/>
<path d="M261.501 152.839C262.381 152.834 263.261 152.829 264.167 152.824C267.087 152.809 270.006 152.802 272.926 152.797C274.951 152.791 276.977 152.785 279.002 152.78C283.253 152.769 287.504 152.763 291.756 152.76C297.203 152.754 302.651 152.73 308.098 152.702C312.284 152.683 316.469 152.678 320.655 152.676C322.663 152.673 324.671 152.665 326.68 152.652C329.49 152.635 332.3 152.637 335.111 152.644C335.94 152.634 336.77 152.625 337.625 152.616C342.236 152.649 345.254 153.008 349 156C350.579 159.158 350.819 162.607 350 166C348.006 168.631 346.382 170.668 343.066 171.464C340.684 171.644 338.347 171.664 335.959 171.631C335.057 171.638 334.156 171.645 333.227 171.653C330.254 171.67 327.282 171.65 324.309 171.629C322.24 171.63 320.172 171.632 318.104 171.636C313.772 171.639 309.44 171.624 305.109 171.597C299.554 171.563 294.001 171.569 288.447 171.588C284.177 171.598 279.907 171.589 275.638 171.574C273.59 171.569 271.541 171.569 269.493 171.576C266.632 171.581 263.773 171.561 260.912 171.533C260.064 171.54 259.217 171.546 258.344 171.553C252.601 171.46 252.601 171.46 249.505 169.092C246.96 165.555 246.571 163.375 247 159C251.168 152.748 254.404 152.848 261.501 152.839Z" fill="white"/>
</g>
<defs>
<clipPath id="clip0_78_33">
<rect width="512" height="512" fill="white"/>
</clipPath>
</defs>
</svg>
