<svg width="512" height="512" viewBox="0 0 512 512" fill="none" xmlns="http://www.w3.org/2000/svg">
<g clip-path="url(#clip0_144_3)">
<path d="M218.57 203.797C219.947 203.788 219.947 203.788 221.351 203.78C223.289 203.77 225.227 203.764 227.165 203.76C230.095 203.75 233.024 203.719 235.953 203.688C250.336 203.605 261.862 204.616 274 213C274.887 213.578 275.774 214.155 276.688 214.75C283.329 221.212 287.696 229.04 290 238C290 239.32 290 240.64 290 242C291.172 242.069 291.172 242.069 292.367 242.14C300.547 242.687 308.502 243.77 316.562 245.25C317.776 245.471 318.99 245.692 320.24 245.92C334.854 248.642 349.563 251.406 363 258C364.191 258.584 364.191 258.584 365.406 259.18C375.424 264.429 383.204 271.911 391 280C391.014 279.116 391.014 279.116 391.028 278.215C391.083 275.497 391.166 272.78 391.25 270.062C391.264 269.136 391.278 268.21 391.293 267.256C391.605 258.358 394.203 251.099 400.309 244.504C405.672 239.735 411.903 237.918 419 238C427.822 238.645 433.316 242.117 439.312 248.438C443.224 254.377 444.44 259.216 444.305 266.287C444.303 267.085 444.3 267.882 444.297 268.704C444.29 270.425 444.277 272.146 444.258 273.867C444.23 276.596 444.225 279.324 444.227 282.054C444.231 289.809 444.208 297.564 444.134 305.32C444.09 310.074 444.086 314.828 444.106 319.582C444.106 321.387 444.091 323.192 444.061 324.997C443.606 334.808 443.606 334.808 446.761 343.803C448.739 345.764 450.777 347.334 453 349C454.657 351.339 455.711 353.629 456.938 356.25C457.503 357.431 458.069 358.612 458.652 359.828C462.471 368.815 462.54 380.743 459.375 390C454.263 401.838 446.819 410.311 435.113 415.777C426.904 419.001 418.731 419.304 410 419C409.974 419.764 409.948 420.529 409.922 421.316C408.687 444.635 398.706 464.216 382.055 480.359C357.991 501.914 322.454 505.548 291.688 509.25C290.998 509.333 290.309 509.416 289.598 509.501C275.941 511.126 262.401 512.156 248.637 512.203C247.971 512.206 247.306 512.209 246.621 512.212C243.083 512.227 239.544 512.236 236.006 512.24C233.161 512.245 230.316 512.258 227.471 512.281C200.485 512.494 173.869 510.842 147.25 506.125C146.506 505.997 145.762 505.869 144.995 505.737C112.721 500.176 112.721 500.176 98 493C97.0938 492.584 96.1876 492.167 95.2539 491.738C87.3004 487.801 81.2005 482.216 75 476C74.1827 475.194 73.3655 474.389 72.5234 473.559C59.6743 460.158 50.9733 441.013 50.875 422.312C50.9163 421.219 50.9575 420.126 51 419C50.3684 419.035 49.7367 419.07 49.0859 419.105C35.4728 419.517 23.5651 416.705 13.25 407.562C12.5075 406.717 11.765 405.871 11 405C10.5205 404.535 10.0409 404.069 9.54688 403.59C1.94193 395.774 -0.479027 386.002 -0.5625 375.375C-0.386402 364.192 2.42593 355.399 10 347C10.7223 346.4 10.7223 346.4 11.4592 345.788C14.7352 342.947 15.8969 341.543 16.7326 337.143C16.7553 335.674 16.7457 334.204 16.7095 332.735C16.7158 331.524 16.7158 331.524 16.7222 330.288C16.7299 327.632 16.6964 324.977 16.6641 322.32C16.6652 320.465 16.6695 318.609 16.6768 316.754C16.6902 311.874 16.6714 306.995 16.6424 302.115C16.597 294.313 16.5815 286.511 16.6019 278.709C16.6016 275.992 16.5759 273.276 16.5482 270.56C16.5476 268.881 16.5479 267.202 16.5493 265.524C16.5349 264.777 16.5204 264.029 16.5055 263.259C16.5533 256.793 18.7896 251.911 22.6758 246.793C28.8633 240.724 35.3216 238.029 44 238C51.0136 238.558 56.8184 241.246 62 246C68.1352 254.039 69.1161 261 69.5625 270.812C69.6057 271.696 69.6489 272.58 69.6934 273.49C69.7989 275.66 69.8999 277.83 70 280C70.4033 279.489 70.8066 278.977 71.2222 278.45C88.8326 256.512 115.708 250.518 142 245.688C142.698 245.558 143.396 245.429 144.115 245.296C153.051 243.658 161.921 242.495 171 242C171.041 240.928 171.082 239.855 171.125 238.75C172.318 229.404 177.994 220.177 185 214C195.503 206.454 205.803 203.859 218.57 203.797ZM196 229C191.769 234.008 191.769 234.008 190 240C191.139 239.964 192.278 239.929 193.452 239.892C219.351 239.104 245.108 238.967 271 240C268.435 231.729 264.717 228.026 257.281 223.98C252.089 221.749 246.852 221.826 241.297 221.797C240.46 221.791 239.622 221.785 238.76 221.78C236.991 221.77 235.223 221.764 233.455 221.76C230.773 221.75 228.092 221.719 225.41 221.688C223.685 221.681 221.96 221.676 220.234 221.672C219.048 221.653 219.048 221.653 217.838 221.634C209.815 221.666 202.209 223.757 196 229ZM36.8018 258.578C34.3554 261.866 34.5174 263.986 34.5459 268.063C34.5453 268.766 34.5447 269.469 34.5441 270.193C34.5469 272.51 34.578 274.825 34.6094 277.141C34.6168 278.749 34.6225 280.358 34.6265 281.966C34.6418 286.195 34.6811 290.423 34.7253 294.651C34.7663 298.968 34.7845 303.285 34.8047 307.602C34.8476 316.068 34.9179 324.534 35 333C42.92 332.505 42.92 332.505 51 332C51.0678 323.09 51.1228 314.18 51.1554 305.27C51.1711 301.132 51.1923 296.995 51.2263 292.857C51.259 288.863 51.2769 284.869 51.2846 280.875C51.2902 279.352 51.301 277.83 51.3172 276.307C51.339 274.172 51.342 272.037 51.3406 269.902C51.3472 268.687 51.3539 267.472 51.3608 266.221C50.9656 262.693 50.1207 260.818 48 258C44.1945 256.097 40.2692 256.089 36.8018 258.578ZM87.4502 287.479C74.8047 300.742 68.6738 317.922 68.7253 336.017C68.7202 336.963 68.7151 337.909 68.7099 338.884C68.6961 341.981 68.6969 345.078 68.6992 348.176C68.6953 350.35 68.691 352.524 68.6862 354.698C68.6788 359.245 68.679 363.791 68.6843 368.338C68.6901 374.134 68.6732 379.93 68.65 385.726C68.6352 390.214 68.6344 394.702 68.6375 399.19C68.637 401.326 68.6318 403.461 68.6217 405.597C68.5624 419.851 68.7894 433.131 75.5625 446.062C75.9069 446.73 76.2513 447.398 76.6062 448.086C85.6294 464.891 99.9357 475.693 118.066 481.305C148.6 490.129 181.754 494.083 213.488 494.203C215.362 494.214 215.362 494.214 217.275 494.224C221.287 494.242 225.3 494.249 229.312 494.25C229.996 494.25 230.679 494.251 231.384 494.251C252.064 494.258 272.494 493.995 293 491C294.272 490.818 295.543 490.636 296.854 490.448C344.058 483.838 344.058 483.838 380.293 454.93C388.382 442.577 392.131 429.373 392.177 414.668C392.184 413.747 392.19 412.826 392.197 411.877C392.217 408.837 392.228 405.797 392.238 402.758C392.242 401.713 392.246 400.668 392.251 399.592C392.271 394.056 392.286 388.52 392.295 382.983C392.306 377.304 392.341 371.624 392.38 365.945C392.407 361.545 392.415 357.146 392.418 352.746C392.423 350.655 392.435 348.563 392.453 346.472C392.634 324.912 389.621 305.157 374.04 288.984C372.706 287.644 371.354 286.321 370 285C369.428 284.407 368.855 283.814 368.266 283.203C328.256 244.843 140.967 247.297 87.4502 287.479ZM410 262C409.281 265.319 409.281 265.319 409.432 268.993C409.432 269.677 409.431 270.36 409.43 271.065C409.434 273.311 409.472 275.555 409.512 277.801C409.521 279.363 409.528 280.925 409.533 282.488C409.552 286.59 409.601 290.691 409.657 294.793C409.708 298.982 409.731 303.172 409.756 307.361C409.809 315.575 409.897 323.787 410 332C415.28 332.33 420.56 332.66 426 333C426.09 323.829 426.164 314.659 426.207 305.487C426.228 301.229 426.256 296.97 426.302 292.712C426.345 288.601 426.369 284.49 426.38 280.379C426.387 278.812 426.401 277.245 426.423 275.678C426.452 273.48 426.456 271.283 426.454 269.085C426.463 267.835 426.472 266.585 426.481 265.297C425.909 261.377 424.84 259.723 422 257C416.026 255.914 413.697 257.367 410 262ZM24 358C18.1931 365.687 17.1853 372.438 18 382C20.2828 389.804 26.0693 395.059 33 399C39.4967 401.166 43.7616 401 51 401C51 384.17 51 367.34 51 350C40.424 350 31.7401 350.472 24 358ZM410 350C410 366.83 410 383.66 410 401C421.651 401 428.63 400.443 437.082 392.23C442.135 386.355 443.712 380.396 443.379 372.703C442.406 365.766 439.253 360.228 434.105 355.508C426.3 349.918 419.642 350 410 350Z" fill="white"/>
<path d="M299.254 -0.267411C300.082 -0.271942 300.909 -0.276473 301.762 -0.281142C304.533 -0.293795 307.304 -0.292165 310.075 -0.290513C312.063 -0.296497 314.051 -0.303303 316.039 -0.310868C321.437 -0.328542 326.836 -0.333224 332.235 -0.334499C336.743 -0.336399 341.251 -0.343757 345.759 -0.350844C356.395 -0.367131 367.032 -0.372012 377.669 -0.370591C388.638 -0.369389 399.607 -0.39049 410.577 -0.422078C419.997 -0.448237 429.417 -0.458958 438.837 -0.45768C444.462 -0.45717 450.087 -0.462861 455.712 -0.484036C461.004 -0.503412 466.295 -0.503547 471.587 -0.489003C473.527 -0.486913 475.467 -0.491627 477.406 -0.503724C480.06 -0.519196 482.712 -0.509856 485.365 -0.494462C486.128 -0.504749 486.891 -0.515036 487.678 -0.525635C494.343 -0.44049 499.477 1.76143 504.461 6.18361C505.093 6.9274 505.724 7.67119 506.375 8.43751C507.022 9.17873 507.669 9.91994 508.336 10.6836C511.517 15.1122 512.251 18.8671 512.267 24.2733C512.28 26.1699 512.28 26.1699 512.293 28.1048C512.293 29.4986 512.292 30.8924 512.291 32.2861C512.297 33.76 512.303 35.2338 512.311 36.7076C512.329 40.7057 512.333 44.7037 512.335 48.7019C512.336 51.2024 512.34 53.7029 512.346 56.2034C512.364 64.9346 512.372 73.6658 512.371 82.397C512.369 90.5228 512.39 98.6483 512.422 106.774C512.448 113.76 512.459 120.746 512.458 127.733C512.457 131.901 512.463 136.069 512.484 140.237C512.503 144.16 512.504 148.083 512.489 152.007C512.487 153.442 512.492 154.876 512.504 156.311C512.576 165.486 512.092 173.022 506.105 180.305C505.473 180.823 504.84 181.341 504.188 181.875C503.562 182.409 502.937 182.942 502.293 183.492C496.844 187.076 492.48 188.38 485.973 188.226C485.309 188.215 484.644 188.205 483.959 188.194C482.527 188.17 481.094 188.14 479.661 188.105C477.374 188.054 475.089 188.03 472.802 188.016C466.303 187.974 459.805 187.922 453.308 187.757C428.49 186.721 428.49 186.721 407.495 198.61C406.651 199.454 406.651 199.454 405.789 200.316C402.65 203.271 399.064 205.591 395.5 208C391.038 211.121 386.605 214.278 382.215 217.5C381.417 218.084 380.619 218.668 379.797 219.27C378.274 220.387 376.754 221.509 375.238 222.637C362.559 231.924 362.559 231.924 356.312 231C352.291 230.314 349.844 229.016 347 226C342.177 218.188 345.237 206.597 346.52 198.027C346.661 197.06 346.803 196.092 346.949 195.096C347.296 192.73 347.646 190.365 348 188C346.981 188.017 346.981 188.017 345.941 188.034C338.836 188.145 331.73 188.22 324.624 188.275C321.976 188.3 319.328 188.334 316.68 188.377C312.862 188.438 309.045 188.466 305.227 188.488C304.053 188.514 302.88 188.54 301.671 188.566C293.292 188.569 286.408 187.049 280.089 181.244C272.539 173.236 272.559 164.992 272.596 154.471C272.59 152.995 272.583 151.52 272.575 150.044C272.557 146.05 272.558 142.056 272.564 138.062C272.567 134.723 272.561 131.383 272.555 128.043C272.541 120.161 272.543 112.279 272.554 104.397C272.565 96.2782 272.551 88.1594 272.525 80.0404C272.502 73.0576 272.496 66.0749 272.502 59.092C272.505 54.9268 272.503 50.7617 272.485 46.5965C272.47 42.6786 272.474 38.7613 272.493 34.8434C272.496 33.41 272.493 31.9765 272.483 30.5431C272.42 21.248 272.814 14.7172 279.184 7.53908C280.299 6.59162 280.299 6.59162 281.437 5.62501C282.179 4.97791 282.92 4.3308 283.684 3.66408C288.683 0.0727253 293.234 -0.291632 299.254 -0.267411ZM292.541 19.6645C290.6 22.6061 290.495 24.3618 290.485 27.8762C290.473 29.0777 290.46 30.2792 290.447 31.5171C290.453 32.832 290.46 34.147 290.467 35.5017C290.459 36.9031 290.451 38.3044 290.44 39.7057C290.418 43.5095 290.421 47.3129 290.43 51.1168C290.435 54.2928 290.428 57.4687 290.42 60.6447C290.403 68.1377 290.407 75.6304 290.424 83.1233C290.441 90.8522 290.425 98.5806 290.392 106.309C290.366 112.946 290.358 119.583 290.367 126.221C290.372 130.184 290.37 134.147 290.349 138.111C290.331 141.838 290.337 145.565 290.361 149.292C290.369 151.311 290.351 153.329 290.333 155.347C290.339 162.213 290.339 162.213 293.135 168.313C296.531 170.313 298.54 170.626 302.471 170.628C303.759 170.641 305.047 170.654 306.374 170.668C307.772 170.658 309.169 170.647 310.566 170.637C312.007 170.645 313.448 170.655 314.888 170.668C318.673 170.697 322.457 170.697 326.242 170.69C332.302 170.683 338.363 170.714 344.423 170.753C346.537 170.762 348.651 170.756 350.765 170.749C352.05 170.753 353.335 170.757 354.658 170.761C356.355 170.758 356.355 170.758 358.085 170.755C360.964 170.997 362.612 171.409 365 173C369.366 181.733 365.11 197.616 364 207C369.408 204.044 374.348 200.708 379.312 197.063C380.898 195.907 382.484 194.753 384.07 193.598C384.88 193.006 385.69 192.415 386.524 191.805C390.569 188.856 394.629 185.929 398.688 183C399.417 182.473 400.146 181.946 400.898 181.403C402.276 180.406 403.656 179.411 405.037 178.418C406.351 177.468 407.662 176.513 408.967 175.551C414.234 171.701 417.405 170.876 423.871 170.858C424.913 170.853 424.913 170.853 425.976 170.848C427.483 170.84 428.991 170.835 430.498 170.831C432.886 170.824 435.274 170.809 437.661 170.79C444.449 170.738 451.237 170.69 458.026 170.674C462.179 170.664 466.332 170.635 470.485 170.593C472.066 170.58 473.648 170.575 475.229 170.578C477.443 170.58 479.656 170.558 481.871 170.53C483.13 170.524 484.388 170.518 485.686 170.512C489.686 169.894 491.159 168.848 494 166C494.745 163.219 494.745 163.219 494.628 160.079C494.641 158.868 494.653 157.656 494.667 156.408C494.655 155.069 494.643 153.73 494.631 152.391C494.636 150.978 494.644 149.565 494.653 148.152C494.671 144.317 494.658 140.483 494.639 136.648C494.622 132.636 494.631 128.623 494.636 124.61C494.641 117.872 494.625 111.133 494.597 104.395C494.565 96.6032 494.565 88.8123 494.582 81.0209C494.598 73.5266 494.591 66.0324 494.574 58.538C494.567 55.3482 494.568 52.1586 494.576 48.9689C494.583 45.2127 494.571 41.4571 494.544 37.7011C494.537 36.3224 494.537 34.9437 494.544 33.5651C494.553 31.6837 494.534 29.8022 494.515 27.9209C494.512 26.8679 494.509 25.8149 494.506 24.7299C494.17 21.9275 494.17 21.9275 492.459 19.6617C489.081 17.3792 486.082 17.4449 482.143 17.4921C481.346 17.4858 480.549 17.4796 479.728 17.4732C477.055 17.4572 474.382 17.4699 471.709 17.4824C469.794 17.477 467.878 17.4699 465.963 17.4612C460.759 17.4429 455.554 17.45 450.35 17.4627C444.908 17.4728 439.466 17.4635 434.024 17.4572C424.884 17.4499 415.745 17.4595 406.605 17.4785C396.033 17.5003 385.46 17.4932 374.888 17.4712C365.817 17.4531 356.746 17.4505 347.675 17.461C342.255 17.4672 336.834 17.468 331.414 17.4548C326.318 17.4433 321.223 17.4513 316.128 17.4744C314.255 17.4797 312.383 17.4782 310.511 17.4694C307.959 17.4585 305.409 17.4721 302.857 17.4921C302.113 17.4832 301.368 17.4742 300.601 17.465C297.299 17.5154 295.302 17.7954 292.541 19.6645Z" fill="white"/>
<path d="M292 293C293.28 293.182 294.56 293.364 295.878 293.552C350.79 301.516 350.79 301.516 365.812 320.262C375.103 333.57 376.316 346.751 376.301 362.519C376.305 364.227 376.309 365.934 376.314 367.641C376.321 371.209 376.321 374.777 376.316 378.345C376.31 382.887 376.327 387.429 376.35 391.971C376.365 395.495 376.366 399.018 376.363 402.542C376.363 404.215 376.368 405.888 376.378 407.561C376.474 425.6 373.334 440.221 360.461 453.715C331.268 480.822 268.217 478.424 231 478.312C229.703 478.31 228.406 478.308 227.07 478.306C207.542 478.254 188.343 477.857 169 475C168.292 474.896 167.584 474.792 166.855 474.684C108.698 466.056 108.698 466.056 93.125 445.125C87.2497 436.243 84.8554 426.806 84.8389 416.263C84.8339 415.5 84.8289 414.736 84.8238 413.95C84.8093 411.433 84.8024 408.916 84.7969 406.398C84.794 405.534 84.7912 404.67 84.7883 403.779C84.7733 399.202 84.7641 394.625 84.7598 390.047C84.7543 385.344 84.7303 380.64 84.7018 375.936C84.6831 372.299 84.678 368.661 84.6764 365.023C84.6734 363.291 84.6655 361.558 84.6523 359.826C84.5288 342.401 87.2597 328.315 99.6875 315.254C117.315 298.073 145.685 296.155 169 293C170.082 292.848 171.163 292.695 172.277 292.538C211.249 287.274 253.076 287.373 292 293ZM142 316C141.09 316.177 140.181 316.353 139.244 316.536C127.322 318.905 116.745 321.982 109 332C104.701 339.217 102.886 344.859 102.823 353.256C102.816 353.98 102.81 354.704 102.803 355.451C102.783 357.843 102.772 360.236 102.762 362.629C102.758 363.45 102.754 364.271 102.749 365.117C102.729 369.467 102.714 373.818 102.705 378.168C102.694 382.638 102.659 387.107 102.62 391.576C102.593 395.033 102.585 398.489 102.582 401.946C102.577 403.592 102.565 405.238 102.547 406.884C102.424 418.437 102.841 429.466 111.188 438.375C111.882 439.146 112.577 439.917 113.293 440.711C120.542 446.841 128.192 449.168 137.375 451.062C139.138 451.438 139.138 451.438 140.937 451.821C149.151 453.525 157.394 454.987 165.688 456.25C166.668 456.401 167.649 456.552 168.66 456.707C189.062 459.616 209.479 460.378 230.062 460.312C231.265 460.311 232.467 460.309 233.706 460.307C252.312 460.26 270.563 459.688 289 457C290.275 456.818 291.551 456.635 292.865 456.448C325.456 453.113 325.456 453.113 351.719 435.93C356.35 428.954 358.113 422.213 358.177 413.927C358.187 412.87 358.187 412.87 358.197 411.792C358.217 409.464 358.228 407.136 358.238 404.809C358.242 404.01 358.246 403.211 358.251 402.387C358.271 398.154 358.286 393.92 358.295 389.686C358.306 385.338 358.341 380.99 358.38 376.641C358.407 373.277 358.415 369.913 358.418 366.549C358.423 364.948 358.435 363.347 358.453 361.745C358.593 348.945 357.205 337.672 348 328C339.603 320.334 329.809 318.293 318.938 316.062C317.681 315.804 316.425 315.545 315.131 315.279C305.656 313.373 296.148 311.91 286.562 310.687C285.315 310.528 284.068 310.369 282.783 310.205C265.697 308.131 248.82 307.758 231.625 307.75C230.4 307.749 229.174 307.749 227.912 307.748C198.705 307.773 170.706 310.346 142 316Z" fill="white"/>
<path d="M412.078 50.3711C413.82 50.3682 413.82 50.3682 415.598 50.3652C416.803 50.3891 418.008 50.4129 419.25 50.4375C420.44 50.4265 421.63 50.4156 422.856 50.4043C431.916 50.4794 438.918 51.9839 445.813 58.0625C454.264 67.4467 453.599 79.4149 453.467 91.2798C453.438 94.1259 453.446 96.9702 453.459 99.8164C453.453 101.651 453.444 103.486 453.434 105.32C453.437 106.158 453.44 106.996 453.443 107.859C453.32 115.612 451.702 122.889 446.438 128.812C445.838 129.52 445.239 130.228 444.621 130.957C436.767 137.079 428.351 137.656 418.688 137.562C417.534 137.586 416.381 137.61 415.193 137.635C414.082 137.633 412.97 137.631 411.824 137.629C410.825 137.63 409.825 137.63 408.796 137.631C404.88 136.747 403.507 135.102 401 132C400.504 129.3 400.313 127.227 400.353 124.535C400.344 123.801 400.336 123.067 400.327 122.311C400.305 119.894 400.319 117.479 400.336 115.062C400.333 113.378 400.328 111.693 400.321 110.008C400.314 106.481 400.325 102.954 400.348 99.4268C400.377 94.9104 400.36 90.3954 400.33 85.8791C400.312 82.4011 400.318 78.9235 400.331 75.4455C400.334 73.7806 400.33 72.1156 400.319 70.4507C400.306 68.1212 400.325 65.7941 400.353 63.4648C400.338 62.4376 400.338 62.4376 400.322 61.3896C400.406 57.6013 400.95 56.0619 403.359 53.0729C406.528 50.5857 408.09 50.3683 412.078 50.3711ZM419 69C419 85.5 419 102 419 119C428.159 119.849 428.159 119.849 432.063 117.188C436.798 111.841 435.303 103.091 435.35 96.2952C435.367 94.562 435.394 92.8288 435.432 91.0959C435.487 88.5883 435.509 86.0823 435.523 83.5742C435.546 82.8053 435.569 82.0363 435.592 81.2441C435.577 77.2336 435.055 75.1045 433.155 71.4641C429.222 67.8715 429.222 67.8715 419 69Z" fill="white"/>
<path d="M372.774 54.375C378.084 58.2511 381.89 62.7534 384 69C384.274 71.9594 384.274 71.9594 384.306 75.2715C384.322 76.5163 384.338 77.7611 384.355 79.0436C384.361 80.3936 384.367 81.7437 384.371 83.0938C384.38 84.4871 384.389 85.8805 384.399 87.2738C384.415 90.1889 384.423 93.1039 384.426 96.0191C384.431 99.7485 384.469 103.477 384.514 107.206C384.544 110.082 384.551 112.957 384.552 115.833C384.557 117.208 384.569 118.582 384.59 119.957C384.759 132.042 384.759 132.042 381.684 135.342C378.104 137.554 376.136 137.739 372 137C368.841 134.459 367.285 132.854 366 129C365.92 127.592 365.892 126.18 365.902 124.77C365.906 123.967 365.909 123.165 365.912 122.338C365.925 121.088 365.925 121.088 365.938 119.813C365.942 118.968 365.947 118.123 365.951 117.252C365.963 115.168 365.981 113.084 366 111C360.72 111 355.44 111 350 111C350.058 112.458 350.116 113.916 350.176 115.418C350.223 117.341 350.268 119.264 350.313 121.188C350.354 122.147 350.396 123.107 350.44 124.096C350.563 131.232 350.563 131.232 347.699 135.141C344.149 137.586 342.231 137.68 338 137C334.611 134.863 333.274 133.823 332 130C331.892 128.203 331.841 126.402 331.823 124.602C331.81 123.496 331.797 122.391 331.784 121.252C331.777 120.055 331.769 118.858 331.762 117.625C331.754 116.39 331.746 115.155 331.737 113.883C331.723 111.264 331.713 108.644 331.705 106.025C331.692 102.044 331.644 98.0631 331.6 94.082C331.59 91.5339 331.581 88.9857 331.574 86.4375C331.557 85.2569 331.539 84.0763 331.521 82.8599C331.545 73.6628 332.885 65.127 339.188 58.0625C348.776 49.6296 361.528 47.9279 372.774 54.375ZM351 73C350.098 75.7072 349.882 77.2378 349.902 80.0117C349.906 80.7691 349.909 81.5264 349.912 82.3067C349.921 83.0923 349.929 83.878 349.938 84.6875C349.942 85.4848 349.947 86.2821 349.951 87.1035C349.963 89.0691 349.981 91.0345 350 93C355.28 93 360.56 93 366 93C366.135 89.7486 366.234 86.5028 366.313 83.25C366.354 82.3296 366.396 81.4092 366.44 80.461C366.629 74.9064 366.629 74.9064 363.672 70.3906C358.27 67.5789 354.72 68.1777 351 73Z" fill="white"/>
<path d="M314.164 342.973C323.429 348.157 328.384 356.967 331.457 366.895C331.636 367.589 331.815 368.284 332 369C332.184 369.713 332.369 370.426 332.559 371.16C335.075 387.347 332.798 402.946 323.848 416.781C320.001 421.858 314.3 425.825 308 427C299.886 427.907 293.728 426.716 287 422C278.592 414.756 273.751 403.47 272.779 392.508C272.097 376.815 273.182 362.965 283 350C291.203 341.078 302.847 337.961 314.164 342.973ZM296 363C290.545 372.994 289.23 384.206 291.754 395.32C293.399 400.056 295.177 404.627 299 408C301.891 409.329 301.891 409.329 305 409C310.818 404.705 313.929 398.035 315 391C315.644 380.858 315.19 371.707 309.688 362.937C307.254 359.847 307.254 359.847 304 358.812C299.924 359.067 298.744 359.968 296 363Z" fill="white"/>
<path d="M169.234 343.043C178.262 347.936 183.263 356.924 186.438 366.438C190.093 380.855 189.648 397.385 182.574 410.68C178.428 417.215 172.781 424.182 165.137 426.586C157.539 428.058 151.048 427.439 144.285 423.602C135.379 417.36 130.86 407.633 128.395 397.253C125.649 381.582 127.689 365.587 136.367 352.156C144.323 341.65 156.9 337.553 169.234 343.043ZM151 363C145.081 371.914 144.564 382.675 146 393C147.807 399.949 149.943 404.896 156 409C159.037 409.565 159.037 409.565 162 408C169.403 399.877 170.431 391.053 170.25 380.473C169.677 372.515 167.415 365.918 162 360C156.809 357.945 154.904 359.378 151 363Z" fill="white"/>
<path d="M222.5 411.062C228.781 412.745 233.962 412.476 240.125 410.437C244.461 409.024 247.52 408.656 252 410C254.437 411.562 254.437 411.562 256 414C256.693 418.851 256.847 420.808 254 424.812C245.188 431.238 234.583 431.67 224 431C216.596 429.808 209.416 428.307 204.562 422.187C203.688 418.787 204.096 416.374 205 413C209.821 406.974 215.961 409.078 222.5 411.062Z" fill="white"/>
</g>
<defs>
<clipPath id="clip0_144_3">
<rect width="512" height="512" fill="white"/>
</clipPath>
</defs>
</svg>
