<svg width="512" height="512" viewBox="0 0 512 512" fill="none" xmlns="http://www.w3.org/2000/svg">
<g clip-path="url(#clip0_78_30)">
<path d="M270.752 2.10473C274.273 3.90565 277.639 5.91856 281 7.99999C281.879 8.53641 282.758 9.07282 283.664 9.62548C288.718 12.7204 293.74 15.8643 298.742 19.043C304.845 22.9175 311.005 26.691 317.187 30.4375C319.078 31.5846 320.969 32.7317 322.859 33.8789C323.735 34.4102 324.611 34.9414 325.514 35.4888C330.69 38.6353 335.847 41.8151 341 45C340.954 43.8772 340.907 42.7544 340.859 41.5977C340.569 31.6442 340.707 24.247 347.25 16.25C353.228 11.3592 358.467 7.92728 366.334 7.82299C367.183 7.81016 368.031 7.79732 368.905 7.7841C370.271 7.77302 370.271 7.77302 371.664 7.76171C372.611 7.75364 373.559 7.74557 374.534 7.73725C376.54 7.72343 378.546 7.7127 380.551 7.70483C382.59 7.69333 384.628 7.67292 386.666 7.6433C389.624 7.60035 392.581 7.58442 395.539 7.57421C396.437 7.5567 397.336 7.5392 398.261 7.52116C406.019 7.54733 412.88 9.3552 418.875 14.4375C419.576 15.2831 420.277 16.1287 421 17C421.722 17.8044 422.444 18.6087 423.187 19.4375C426.726 24.4402 427.248 29.1756 427.227 35.1987C427.227 35.8921 427.228 36.5855 427.228 37.2999C427.227 39.5724 427.211 41.8447 427.195 44.1172C427.192 45.7004 427.189 47.2837 427.187 48.867C427.179 53.0197 427.159 57.1722 427.137 61.3249C427.117 65.5681 427.108 69.8114 427.098 74.0547C427.076 82.3698 427.042 90.6849 427 99C427.782 99.3059 428.564 99.6119 429.37 99.9271C431.833 100.932 433.92 102.064 436.168 103.477C436.965 103.974 437.763 104.472 438.584 104.984C439.443 105.526 440.302 106.067 441.187 106.625C443.077 107.805 444.966 108.985 446.855 110.164C447.854 110.788 448.852 111.413 449.88 112.056C454.144 114.713 458.422 117.345 462.703 119.974C464.904 121.327 467.104 122.682 469.303 124.04C474.525 127.264 479.759 130.462 485.039 133.59C485.984 134.156 486.929 134.723 487.902 135.307C489.645 136.35 491.394 137.383 493.152 138.4C501.194 143.251 508.212 149.963 511.375 159C513.428 168.854 513.543 180.304 508 189C502.196 197.014 494.997 203.234 485 205C482.667 205.015 480.333 205.016 478 205C478.001 205.606 478.003 206.212 478.005 206.836C478.094 242.76 478.163 278.685 478.204 314.609C478.209 318.923 478.214 323.238 478.22 327.552C478.221 328.411 478.222 329.27 478.223 330.155C478.24 344.059 478.272 357.962 478.309 371.866C478.346 386.134 478.368 400.403 478.376 414.672C478.382 423.475 478.399 432.277 478.432 441.08C478.453 447.119 478.459 453.157 478.454 459.195C478.451 462.678 478.455 466.16 478.477 469.643C478.497 473.424 478.492 477.203 478.481 480.984C478.493 482.078 478.504 483.173 478.516 484.3C478.455 492.182 477.014 498.468 471.816 504.559C471.073 505.179 470.329 505.799 469.562 506.438C468.821 507.076 468.08 507.714 467.316 508.371C462.625 511.67 458.725 512.251 453.035 512.257C452.343 512.261 451.651 512.264 450.938 512.268C448.613 512.277 446.288 512.272 443.963 512.267C442.282 512.271 440.6 512.276 438.919 512.281C434.294 512.293 429.668 512.293 425.043 512.291C420.057 512.29 415.07 512.301 410.084 512.311C400.313 512.327 390.542 512.333 380.771 512.334C372.829 512.335 364.888 512.339 356.947 512.346C334.439 512.363 311.932 512.372 289.424 512.371C288.21 512.371 286.996 512.371 285.746 512.371C284.531 512.371 283.315 512.37 282.063 512.37C262.365 512.37 242.668 512.389 222.97 512.417C202.752 512.446 182.533 512.459 162.315 512.458C150.961 512.457 139.607 512.463 128.253 512.484C118.586 512.502 108.92 512.507 99.2531 512.493C94.3205 512.487 89.3881 512.486 84.4555 512.504C79.9395 512.519 75.4239 512.517 70.9079 512.499C69.2746 512.496 67.6414 512.5 66.0082 512.511C56.3658 512.572 49.1139 512.465 41.539 505.852C40.9074 505.117 40.2757 504.382 39.625 503.625C38.9779 502.895 38.3307 502.166 37.664 501.414C33.3446 495.148 33.7208 488.665 33.7595 481.345C33.7577 480.164 33.756 478.982 33.7543 477.766C33.7516 474.495 33.7578 471.225 33.7678 467.955C33.7765 464.426 33.7735 460.896 33.772 457.366C33.771 451.254 33.7773 445.142 33.7885 439.029C33.8048 430.192 33.81 421.354 33.8125 412.517C33.8169 398.178 33.8302 383.839 33.8491 369.5C33.8674 355.573 33.8816 341.645 33.8901 327.717C33.8909 326.429 33.8909 326.429 33.8917 325.115C33.8943 320.807 33.8968 316.5 33.8993 312.192C33.92 276.461 33.9553 240.731 34 205C32.9014 205.012 31.8029 205.023 30.6711 205.035C21.5248 204.948 14.6327 200.723 8.16793 194.516C0.350015 185.444 -0.675746 175.547 -0.170445 164.054C0.562624 155.217 5.79297 148.921 12 143C15.8008 140.198 19.7992 137.816 23.875 135.438C25.0244 134.751 26.1728 134.063 27.3203 133.373C29.6964 131.947 32.0766 130.527 34.4599 129.113C40.0141 125.809 45.503 122.398 51 119C53.1663 117.666 55.333 116.333 57.5 115C59.1087 114.01 59.1087 114.01 60.75 113C98.6666 89.6667 136.583 66.3333 174.5 43C175.573 42.3397 176.646 41.6794 177.751 40.999C179.913 39.6688 182.075 38.3387 184.237 37.0088C189.73 33.6291 195.222 30.2467 200.711 26.8594C210.851 20.6041 220.996 14.3578 231.187 8.18749C231.983 7.70184 232.778 7.21619 233.597 6.71582C245.157 -0.247346 257.814 -3.71424 270.752 2.10473ZM235 27C234.287 27.4442 233.575 27.8885 232.84 28.3462C228.977 30.7574 225.131 33.1946 221.293 35.6445C215.379 39.4089 209.411 43.0818 203.437 46.75C202.339 47.4249 201.24 48.0998 200.108 48.7952C197.86 50.1756 195.611 51.5557 193.363 52.9355C187.906 56.2857 182.453 59.6432 177 63C174.837 64.3307 172.674 65.6615 170.512 66.9922C166.138 69.6834 161.766 72.3762 157.395 75.0703C147.072 81.43 136.741 87.7733 126.375 94.0625C117.531 99.43 108.75 104.893 99.9865 110.39C92.1752 115.284 84.3146 120.091 76.4336 124.871C69.2444 129.234 62.0848 133.642 54.9485 138.091C50.2447 141.017 45.5163 143.892 40.75 146.715C39.7078 147.336 38.6656 147.957 37.5918 148.598C35.5829 149.793 33.5688 150.98 31.5488 152.156C25.4715 155.785 20.3342 158.997 18 166C17.4783 170.969 17.4276 174.855 19.6875 179.375C24.0124 184.284 27.2968 186.601 33.8125 187.562C41.1713 187.398 46.9874 182.807 53 179C54.8092 177.873 56.6191 176.746 58.4297 175.621C62.5269 173.07 66.6166 170.506 70.7031 167.938C76.6662 164.197 82.6685 160.525 88.6875 156.875C96.7794 151.966 104.844 147.017 112.887 142.028C123.126 135.677 133.392 129.369 143.656 123.057C146.98 121.012 150.303 118.965 153.625 116.918C164.005 110.523 174.393 104.142 184.812 97.8125C192.85 92.9296 200.86 88.0067 208.852 83.0498C215.553 78.8935 222.262 74.7499 228.977 70.6157C230.633 69.5959 232.289 68.5756 233.945 67.5552C235.993 66.2942 238.045 65.0375 240.099 63.7856C242.007 62.6114 243.901 61.4149 245.78 60.1948C249.16 58.039 252.08 56.2261 255.988 55.2656C260.914 56.4667 264.906 59.0964 269.187 61.75C270.161 62.3398 271.135 62.9296 272.139 63.5373C279.059 67.7467 285.917 72.0567 292.747 76.4094C298.908 80.3331 305.129 84.1502 311.375 87.9375C318.708 92.3847 326.025 96.8538 333.312 101.375C341.095 106.203 348.887 111.014 356.687 115.812C357.779 116.484 358.871 117.155 359.995 117.847C362.22 119.215 364.445 120.584 366.669 121.952C372.114 125.3 377.557 128.65 383 132C385.167 133.333 387.333 134.667 389.5 136C402.5 144 402.5 144 405.751 146C407.915 147.332 410.079 148.664 412.243 149.996C417.698 153.352 423.153 156.71 428.605 160.07C435.067 164.052 441.533 168.027 448 172C449.098 172.675 450.195 173.35 451.326 174.045C454.528 176.013 457.732 177.976 460.937 179.938C461.909 180.535 462.881 181.133 463.882 181.749C464.775 182.294 465.669 182.84 466.59 183.402C467.372 183.882 468.155 184.361 468.961 184.855C473.184 187.226 477.262 187.486 482 187C487.675 184.997 491.307 181.386 494 176C494.352 173.606 494.352 173.606 494.437 170.875C494.498 169.965 494.559 169.055 494.621 168.117C493.437 162.174 490.06 158.498 485.22 154.979C481.837 152.836 478.407 150.81 474.937 148.812C473.671 148.066 472.405 147.318 471.141 146.569C468.608 145.068 466.072 143.574 463.532 142.085C458.764 139.281 454.067 136.367 449.375 133.438C447.689 132.39 446.003 131.343 444.316 130.297C443.462 129.766 442.607 129.236 441.727 128.689C436.596 125.511 431.454 122.35 426.312 119.187C425.22 118.516 424.128 117.844 423.003 117.152C420.779 115.784 418.555 114.416 416.331 113.048C410.886 109.7 405.443 106.35 400 103C397.833 101.667 395.667 100.333 393.5 99C328.5 59 328.5 59 325.249 56.999C323.087 55.6688 320.925 54.3387 318.763 53.0088C313.27 49.6291 307.778 46.2467 302.289 42.8594C292.054 36.5462 281.811 30.2508 271.5 24.0625C270.663 23.5601 269.826 23.0577 268.963 22.54C255.585 14.5385 247.424 19.181 235 27ZM361 28C356.273 35.0906 356.74 45.6719 357.932 53.8477C360.646 61.859 369.051 65.088 376.141 68.6484C377.272 69.1895 378.403 69.7306 379.568 70.2881C385.215 73.1048 390.479 76.514 395.812 79.875C397.711 81.0452 399.613 82.2098 401.52 83.3672C402.315 83.853 403.11 84.3388 403.929 84.8393C406.084 86.1325 406.084 86.1325 409 87C409.101 79.0981 409.171 71.1963 409.22 63.2939C409.238 60.6049 409.265 57.9163 409.302 55.2275C409.35 51.3651 409.373 47.5033 409.391 43.6406C409.411 42.4363 409.432 41.232 409.453 39.9913C409.453 38.8704 409.454 37.7495 409.454 36.5947C409.467 35.1158 409.467 35.1158 409.481 33.607C408.865 30.2695 407.591 29.1165 405 27C401.757 25.3784 398.196 25.8369 394.633 25.832C393.802 25.8287 392.971 25.8254 392.114 25.8219C390.354 25.8169 388.594 25.8145 386.833 25.8147C384.143 25.8125 381.452 25.7944 378.762 25.7754C377.052 25.7725 375.342 25.7705 373.633 25.7695C372.426 25.7587 372.426 25.7587 371.196 25.7478C365.761 25.7122 365.761 25.7122 361 28ZM252.917 75.7124C251.885 76.3923 251.885 76.3923 250.832 77.0859C249.637 77.8513 249.637 77.8513 248.417 78.6321C247.128 79.4948 247.128 79.4948 245.812 80.375C243.917 81.5961 242.021 82.8161 240.125 84.0351C238.626 85.0099 238.626 85.0099 237.098 86.0044C231.889 89.3599 226.598 92.5793 221.312 95.8125C219.1 97.1726 216.888 98.5333 214.676 99.8945C213.572 100.573 212.468 101.252 211.331 101.952C205.886 105.3 200.443 108.65 195 112C192.833 113.333 190.667 114.667 188.5 116C187.427 116.66 186.355 117.32 185.25 118C97.5 172 97.5 172 94.4253 173.886C92.2726 175.209 90.1342 176.55 88.0004 177.904C82.491 181.376 77.0609 184.52 71.1489 187.284C59.0216 193.019 59.0216 193.019 50.5243 202.92C48.3696 210.596 48.6235 218.411 48.9236 226.316C49.0289 229.855 48.9814 233.393 48.9539 236.933C48.9232 243.845 49.029 250.747 49.1811 257.657C49.3523 265.708 49.3781 273.757 49.3966 281.81C49.4339 296.171 49.5899 310.529 49.8188 324.889C50.0407 338.818 50.1962 352.745 50.27 366.676C50.2768 367.965 50.2768 367.965 50.2838 369.281C50.302 372.737 50.3199 376.193 50.3374 379.649C50.414 394.544 50.5371 409.438 50.6734 424.332C50.688 425.937 50.7025 427.543 50.7167 429.149C50.8052 439.094 50.9169 449.039 51.0719 458.984C51.1145 461.756 51.148 464.528 51.1732 467.3C51.2114 471.073 51.2742 474.845 51.344 478.617C51.3501 479.723 51.3562 480.829 51.3624 481.968C51.3864 482.976 51.4104 483.985 51.4351 485.023C51.4477 485.894 51.4603 486.765 51.4732 487.662C52.1795 490.797 53.5144 492.023 56 494C59.1882 494.55 59.1882 494.55 62.7343 494.391C64.0298 494.378 65.3254 494.365 66.6601 494.352C68.0234 494.318 69.3867 494.284 70.75 494.25C72.1288 494.23 73.5078 494.212 74.8867 494.195C78.2585 494.148 81.6289 494.082 85 494C85.0005 492.793 85.001 491.586 85.0016 490.342C85.0157 461.667 85.0555 432.991 85.1268 404.316C85.1356 400.784 85.1441 397.251 85.1525 393.719C85.1542 393.016 85.1559 392.313 85.1576 391.588C85.1843 380.214 85.1934 368.84 85.196 357.465C85.1991 345.788 85.2214 334.11 85.2605 322.433C85.2818 315.876 85.2944 309.32 85.2861 302.764C85.2786 296.589 85.2944 290.416 85.328 284.242C85.3363 281.979 85.336 279.716 85.3266 277.453C85.3149 274.355 85.3341 271.259 85.3607 268.162C85.3501 267.273 85.3394 266.384 85.3284 265.468C85.4461 258.09 87.728 251.536 92.8041 246.05C100.761 238.777 109.943 238.85 120.183 238.855C121.682 238.85 121.682 238.85 123.211 238.845C126.501 238.835 129.792 238.833 133.082 238.832C135.38 238.829 137.677 238.825 139.975 238.822C144.788 238.816 149.6 238.814 154.412 238.815C160.562 238.815 166.712 238.801 172.862 238.784C177.607 238.773 182.352 238.771 187.097 238.771C189.363 238.77 191.63 238.766 193.896 238.758C197.074 238.748 200.251 238.751 203.429 238.757C204.354 238.751 205.28 238.746 206.234 238.74C214.801 238.781 223.222 239.301 230 245C236.744 251.809 238.299 257.147 238.278 266.599C238.284 267.571 238.29 268.543 238.296 269.544C238.313 272.804 238.316 276.064 238.319 279.323C238.328 281.659 238.338 283.995 238.349 286.331C238.377 292.675 238.392 299.02 238.405 305.364C238.419 311.322 238.442 317.279 238.465 323.237C238.51 335.036 238.547 346.835 238.578 358.635C238.608 370.095 238.643 381.556 238.683 393.017C238.686 394.077 238.686 394.077 238.69 395.159C238.702 398.703 238.715 402.248 238.727 405.793C238.831 435.195 238.92 464.598 239 494C267.224 494.093 295.448 494.164 323.673 494.207C336.777 494.228 349.881 494.256 362.986 494.302C374.405 494.342 385.824 494.367 397.243 494.376C403.292 494.382 409.341 494.394 415.39 494.423C421.079 494.45 426.769 494.458 432.458 494.452C434.55 494.454 436.641 494.462 438.733 494.477C441.582 494.497 444.431 494.492 447.281 494.481C448.113 494.493 448.946 494.504 449.804 494.516C453.242 494.48 455.446 494.432 458.208 492.281C460.314 489.6 460.514 488.386 460.556 485.018C460.579 484.008 460.601 482.999 460.624 481.959C460.63 480.298 460.63 480.298 460.636 478.604C460.655 477.426 460.675 476.248 460.695 475.035C460.745 471.764 460.777 468.494 460.801 465.224C460.825 462.418 460.864 459.613 460.903 456.808C461.031 447.566 461.112 438.323 461.181 429.08C461.199 426.672 461.218 424.264 461.237 421.856C461.355 406.892 461.457 391.928 461.52 376.963C461.535 373.497 461.55 370.032 461.565 366.566C461.569 365.705 461.573 364.843 461.577 363.956C461.64 350.016 461.797 336.079 461.991 322.14C462.189 307.818 462.3 293.497 462.327 279.174C462.344 271.136 462.4 263.102 462.554 255.065C462.685 248.216 462.738 241.372 462.689 234.522C462.666 231.028 462.68 227.546 462.796 224.054C463.605 209.865 463.605 209.865 457.781 197.556C452.316 193.182 446.332 190.188 439.953 187.378C435.279 185.197 431.009 182.424 426.687 179.625C425.731 179.032 424.774 178.439 423.789 177.828C422.652 177.122 422.652 177.122 421.492 176.402C415.441 172.65 409.377 168.918 403.312 165.188C402.221 164.516 401.129 163.845 400.005 163.153C397.78 161.785 395.555 160.416 393.331 159.048C387.886 155.7 382.443 152.35 377 149C374.833 147.667 372.667 146.333 370.5 145C305.5 105 305.5 105 302.245 102.997C300.096 101.674 297.946 100.352 295.796 99.0308C290.72 95.9102 285.648 92.7846 280.587 89.6409C278.197 88.1572 275.806 86.6764 273.414 85.1958C271.728 84.1503 270.045 83.1006 268.361 82.0508C267.338 81.4178 266.316 80.7849 265.262 80.1328C264.364 79.5748 263.467 79.0168 262.542 78.4419C257.977 75.514 257.977 75.514 252.917 75.7124ZM104.393 259.497C102.259 263.332 102.597 266.969 102.639 271.289C102.637 272.239 102.634 273.19 102.631 274.17C102.626 277.364 102.643 280.557 102.659 283.751C102.66 286.037 102.66 288.324 102.658 290.61C102.657 296.824 102.675 303.039 102.696 309.253C102.715 315.745 102.716 322.236 102.72 328.728C102.728 339.626 102.747 350.525 102.774 361.423C102.801 372.648 102.822 383.873 102.835 395.099C102.836 395.798 102.837 396.497 102.838 397.217C102.845 403.297 102.851 409.377 102.857 415.457C102.886 441.638 102.945 467.819 103 494C141.94 494 180.88 494 221 494C221.116 452.686 221.116 452.686 221.195 411.371C221.203 405.805 221.211 400.238 221.22 394.671C221.221 393.974 221.222 393.276 221.223 392.557C221.24 381.287 221.272 370.018 221.309 358.748C221.346 347.186 221.368 335.623 221.376 324.061C221.382 317.565 221.394 311.069 221.423 304.574C221.45 298.464 221.458 292.354 221.452 286.244C221.453 283.998 221.462 281.751 221.477 279.505C221.497 276.445 221.492 273.387 221.481 270.327C221.498 268.984 221.498 268.984 221.516 267.615C221.479 262.724 221.479 262.724 219.22 258.48C215.714 256.143 212.822 255.876 208.68 255.866C207.824 255.862 206.967 255.858 206.085 255.853C205.153 255.854 204.222 255.854 203.262 255.855C202.275 255.851 201.287 255.848 200.27 255.845C197.004 255.835 193.738 255.833 190.473 255.832C188.203 255.829 185.934 255.825 183.665 255.822C178.908 255.816 174.151 255.814 169.394 255.815C163.296 255.815 157.198 255.801 151.101 255.784C146.414 255.773 141.728 255.771 137.041 255.771C134.793 255.77 132.545 255.766 130.296 255.758C127.153 255.748 124.01 255.751 120.867 255.757C119.938 255.751 119.008 255.746 118.051 255.74C110.617 255.749 110.617 255.749 104.393 259.497Z" fill="white"/>
<path d="M308.183 237.855C309.182 237.851 310.182 237.848 311.211 237.844C314.501 237.835 317.792 237.833 321.082 237.832C323.38 237.829 325.678 237.825 327.975 237.822C332.788 237.816 337.6 237.814 342.412 237.815C348.562 237.815 354.712 237.801 360.862 237.784C365.607 237.773 370.352 237.771 375.097 237.771C377.363 237.77 379.63 237.766 381.896 237.758C385.074 237.748 388.251 237.751 391.429 237.757C392.354 237.751 393.28 237.746 394.234 237.74C404.37 237.788 412.435 238.944 420 246C425.652 251.958 427.455 258.039 427.404 266.087C427.411 266.864 427.418 267.641 427.425 268.441C427.443 270.989 427.439 273.537 427.434 276.086C427.438 277.87 427.443 279.655 427.449 281.439C427.458 285.173 427.456 288.907 427.446 292.641C427.435 297.407 427.455 302.173 427.484 306.94C427.502 310.624 427.502 314.308 427.496 317.992C427.496 319.748 427.502 321.505 427.515 323.261C427.576 333.412 427.377 341.674 421.43 350.269C414.718 356.931 407.12 359.43 397.759 359.542C396.764 359.534 395.768 359.526 394.742 359.518C393.125 359.528 393.125 359.528 391.476 359.539C387.942 359.556 384.409 359.545 380.875 359.531C378.402 359.534 375.929 359.538 373.457 359.543C368.285 359.549 363.114 359.54 357.943 359.521C351.333 359.499 344.723 359.512 338.112 359.536C333.009 359.55 327.907 359.546 322.804 359.535C320.367 359.533 317.93 359.536 315.494 359.545C312.081 359.555 308.67 359.54 305.258 359.518C303.764 359.53 303.764 359.53 302.241 359.542C294.051 359.444 287.575 357.293 280.688 352.875C271.846 343.417 272.27 333.354 272.371 321.148C272.37 319.321 272.368 317.494 272.364 315.666C272.361 311.852 272.376 308.038 272.403 304.224C272.437 299.35 272.431 294.478 272.412 289.604C272.402 285.836 272.411 282.069 272.426 278.301C272.431 276.504 272.431 274.708 272.424 272.911C272.419 270.397 272.439 267.883 272.467 265.369C272.46 264.637 272.454 263.905 272.447 263.152C272.575 256.171 275.301 250.103 280.313 245.187C288.234 237.773 297.943 237.85 308.183 237.855ZM292.213 259.177C290.284 262.076 290.61 264.719 290.596 268.162C290.589 268.887 290.582 269.613 290.575 270.36C290.557 272.76 290.561 275.159 290.566 277.559C290.562 279.226 290.557 280.894 290.551 282.561C290.542 286.058 290.544 289.554 290.554 293.05C290.565 297.53 290.545 302.01 290.516 306.49C290.498 309.935 290.498 313.379 290.504 316.824C290.504 318.475 290.498 320.127 290.485 321.779C290.471 324.089 290.481 326.398 290.498 328.709C290.498 330.023 290.499 331.338 290.499 332.692C291.08 336.531 291.966 337.671 295 340C297.315 341.157 298.654 341.133 301.231 341.147C302.562 341.158 302.562 341.158 303.92 341.169C305.384 341.173 305.384 341.173 306.878 341.177C307.904 341.184 308.93 341.19 309.988 341.197C313.394 341.217 316.801 341.228 320.207 341.238C321.368 341.242 322.53 341.246 323.726 341.251C329.872 341.271 336.018 341.286 342.164 341.295C348.52 341.306 354.875 341.341 361.231 341.38C366.111 341.406 370.992 341.415 375.872 341.418C378.215 341.423 380.559 341.435 382.902 341.453C386.179 341.478 389.456 341.477 392.734 341.47C393.704 341.483 394.674 341.496 395.673 341.509C399.981 341.475 402.348 341.403 406.079 339.096C409.41 335.461 409.139 333.017 409.177 328.151C409.184 327.447 409.19 326.743 409.197 326.017C409.217 323.682 409.228 321.347 409.238 319.012C409.242 318.214 409.246 317.417 409.251 316.596C409.272 312.375 409.286 308.155 409.295 303.935C409.306 299.577 409.341 295.219 409.38 290.861C409.406 287.509 409.415 284.158 409.418 280.806C409.423 279.199 409.435 277.593 409.453 275.987C409.478 273.736 409.477 271.487 409.47 269.237C409.479 267.317 409.479 267.317 409.488 265.359C408.911 261.386 407.891 259.747 405 257C402.196 256.064 399.623 255.873 396.68 255.866C395.824 255.862 394.967 255.858 394.085 255.853C393.153 255.854 392.222 255.854 391.262 255.855C390.275 255.851 389.287 255.848 388.27 255.844C385.004 255.835 381.738 255.833 378.473 255.832C376.203 255.829 373.934 255.825 371.665 255.822C366.908 255.816 362.151 255.814 357.394 255.815C351.296 255.815 345.199 255.801 339.101 255.784C334.414 255.773 329.728 255.771 325.041 255.771C322.793 255.77 320.545 255.766 318.296 255.758C315.153 255.748 312.011 255.751 308.867 255.757C307.938 255.751 307.008 255.746 306.051 255.74C300.677 255.766 296.795 256.158 292.213 259.177Z" fill="white"/>
</g>
<defs>
<clipPath id="clip0_78_30">
<rect width="512" height="512" fill="white"/>
</clipPath>
</defs>
</svg>
