<svg width="512" height="512" viewBox="0 0 512 512" fill="none" xmlns="http://www.w3.org/2000/svg">
<g clip-path="url(#clip0_74_27)">
<path d="M175 17C179.36 18.7558 183.366 21.0363 187.438 23.375C188.603 24.0266 189.77 24.6765 190.938 25.3247C194.303 27.1976 197.651 29.0994 201 31C203.254 32.2546 205.512 33.5013 207.771 34.7471C209.882 35.9135 211.988 37.0887 214.094 38.2656C220.321 41.7419 226.567 45.1819 232.813 48.625C233.736 49.1342 233.736 49.1342 234.678 49.6536C235.297 49.9951 235.917 50.3365 236.555 50.6882C237.818 51.3846 239.081 52.081 240.344 52.7773C240.975 53.1255 241.607 53.4737 242.258 53.8324C246.663 56.2616 251.066 58.6944 255.469 61.1289C267.841 67.9688 280.233 74.7698 292.673 81.4868C297.78 84.2469 302.877 87.0223 307.946 89.8501C309.381 90.6486 310.819 91.4414 312.261 92.228C316.462 94.5304 320.552 96.954 324.613 99.4961C326.555 100.664 328.496 101.832 330.438 103C331.769 103.876 331.769 103.876 333.127 104.77C335.82 106.356 337.924 107.426 341 108C345.175 106.746 348.43 104.453 352 102C353.744 101.003 355.498 100.023 357.262 99.0625C359.071 98.043 360.88 97.0221 362.688 96C363.675 95.4417 364.663 94.8833 365.68 94.3081C373.762 89.7269 381.793 85.0629 389.81 80.3708C397.15 76.0753 404.507 71.8095 411.875 67.5625C413.493 66.6299 413.493 66.6299 415.143 65.6785C419.525 63.1531 423.908 60.6288 428.291 58.1045C442.047 50.1803 455.785 42.2275 469.492 34.2187C470.384 33.6992 471.276 33.1798 472.194 32.6445C474.208 31.464 476.216 30.2726 478.22 29.0742C479.284 28.4413 480.349 27.8083 481.445 27.1562C482.412 26.5768 483.379 25.9974 484.376 25.4004C488.957 22.956 492.811 22.6482 498 23C503.787 24.8956 507.839 27.5679 511.121 32.78C512.258 35.6518 512.253 37.9925 512.257 41.0821C512.264 42.3369 512.27 43.5917 512.277 44.8845C512.274 46.2795 512.271 47.6746 512.267 49.0697C512.271 50.5496 512.276 52.0296 512.281 53.5096C512.293 57.5822 512.293 61.6546 512.291 65.7272C512.29 70.1172 512.301 74.5072 512.311 78.8972C512.328 87.5 512.333 96.1028 512.334 104.706C512.335 111.697 512.339 118.688 512.346 125.679C512.363 145.491 512.372 165.303 512.371 185.116C512.371 186.718 512.371 186.718 512.371 188.354C512.371 189.423 512.37 190.493 512.37 191.595C512.37 208.937 512.389 226.28 512.417 243.622C512.446 261.42 512.459 279.217 512.458 297.015C512.457 307.011 512.463 317.007 512.484 327.003C512.502 335.512 512.507 344.022 512.493 352.532C512.486 356.875 512.486 361.218 512.504 365.561C512.519 369.536 512.517 373.51 512.499 377.485C512.496 378.924 512.5 380.363 512.511 381.802C512.607 395.119 512.607 395.119 508 400C502.073 405.38 494.551 409.005 487.564 412.826C481.145 416.34 474.813 419.987 468.5 423.688C460.057 428.632 451.602 433.552 443.125 438.438C442.047 439.059 440.969 439.68 439.858 440.321C435.475 442.846 431.092 445.371 426.709 447.896C415.123 454.57 403.545 461.255 392 468C383.367 473.044 374.721 478.064 366.063 483.062C364.991 483.682 363.919 484.301 362.814 484.939C360.8 486.101 358.783 487.257 356.762 488.407C355.001 489.423 353.255 490.465 351.531 491.542C347.619 493.925 344.052 495.962 339.301 495.619C333.606 494.087 328.56 490.762 323.5 487.812C322.211 487.078 320.921 486.345 319.63 485.615C317.008 484.13 314.39 482.638 311.775 481.142C306.338 478.043 300.826 475.085 295.313 472.125C287.913 468.131 280.536 464.1 273.192 460.005C264.958 455.413 256.702 450.864 248.446 446.312C247.183 445.616 245.919 444.919 244.656 444.223C244.025 443.874 243.393 443.526 242.742 443.168C238.337 440.738 233.934 438.306 229.531 435.871C227.084 434.518 224.636 433.165 222.188 431.812C221.288 431.316 221.288 431.316 220.371 430.809C210.926 425.591 201.453 420.426 191.941 415.333C185.907 412.09 180.058 408.699 174.367 404.879C170.915 403.597 169.317 404.502 166 406C163.537 407.348 161.145 408.728 158.75 410.188C157.236 411.094 155.722 411.999 154.207 412.902C153.379 413.397 152.551 413.892 151.698 414.402C146.639 417.399 141.535 420.319 136.438 423.25C127.943 428.141 119.462 433.054 111 438C102.722 442.837 94.4306 447.649 86.125 452.438C85.0491 453.058 83.9733 453.678 82.8648 454.318C77.3395 457.503 71.8116 460.683 66.2813 463.859C64.0624 465.135 61.8437 466.411 59.625 467.688C58.551 468.304 57.477 468.921 56.3704 469.557C51.2689 472.498 46.1937 475.471 41.168 478.539C40.2603 479.092 39.3527 479.646 38.4175 480.216C36.7412 481.243 35.0693 482.278 33.4029 483.321C26.7886 487.38 20.9639 489.683 13.1407 488.539C7.59637 487.143 4.21152 483.52 1.00003 479C-0.352138 476.296 -0.129201 474.194 -0.134188 471.164C-0.138646 469.913 -0.143114 468.662 -0.147707 467.374C-0.147618 465.973 -0.147422 464.572 -0.147142 463.171C-0.15044 461.693 -0.154163 460.214 -0.158281 458.736C-0.168321 454.659 -0.17202 450.582 -0.174669 446.505C-0.178567 442.113 -0.188149 437.722 -0.196886 433.331C-0.216667 422.718 -0.226718 412.106 -0.235613 401.493C-0.239993 396.499 -0.245356 391.505 -0.250597 386.511C-0.267611 369.915 -0.282114 353.319 -0.289354 336.723C-0.291264 332.415 -0.293182 328.106 -0.295137 323.797C-0.295621 322.726 -0.296104 321.656 -0.296602 320.552C-0.304906 303.197 -0.330249 285.842 -0.362719 268.486C-0.395762 250.68 -0.413796 232.873 -0.416994 215.066C-0.419162 205.063 -0.427954 195.061 -0.453463 185.059C-0.475133 176.541 -0.48324 168.024 -0.473497 159.507C-0.468942 155.16 -0.470903 150.813 -0.490252 146.466C-0.507809 142.487 -0.506943 138.509 -0.49135 134.53C-0.488963 133.09 -0.493368 131.65 -0.50519 130.21C-0.60793 116.869 -0.607923 116.869 4.00003 112C7.31896 108.996 10.878 106.795 14.7696 104.602C15.8931 103.965 17.0167 103.328 18.1743 102.672C18.7668 102.338 19.3592 102.005 19.9696 101.662C23.1346 99.8812 26.2913 98.086 29.4492 96.293C30.4098 95.7484 30.4098 95.7484 31.3897 95.1928C37.3295 91.8221 43.2319 88.3891 49.125 84.9375C62.8109 76.9303 76.551 69.0182 90.291 61.1045C102.852 53.8685 115.401 46.612 127.915 39.2956C133.327 36.1346 138.746 32.9878 144.176 29.8594C145.072 29.3428 145.072 29.3428 145.987 28.8158C148.895 27.1411 151.803 25.4681 154.713 23.7969C155.753 23.1987 156.792 22.6006 157.863 21.9844C158.784 21.4555 159.705 20.9267 160.654 20.3818C165.784 17.3606 168.977 15.9541 175 17ZM154.063 45.0625C146.552 49.5138 139.004 53.8952 131.438 58.25C122.943 63.1414 114.462 68.0539 106 73C92.2696 81.0229 78.4892 88.9586 64.709 96.8955C61.4307 98.784 58.1529 100.673 54.875 102.562C53.9368 103.103 52.9985 103.643 52.0318 104.199C50.0503 105.341 48.0878 106.517 46.1436 107.721C42.9214 109.614 39.6345 110.948 36.1508 112.292C24.2592 117.329 24.2592 117.329 16.621 127.214C14.5745 136.315 14.9277 145.608 15.2145 154.877C15.3188 159.112 15.283 163.347 15.2648 167.584C15.2523 174.911 15.3271 182.232 15.4625 189.558C15.6582 200.148 15.7201 210.736 15.7502 221.328C15.8026 238.515 15.9621 255.698 16.1895 272.883C16.41 289.569 16.5798 306.255 16.6817 322.942C16.688 323.972 16.6943 325.002 16.7008 326.063C16.7321 331.229 16.7624 336.396 16.7923 341.563C17.0408 384.377 17.4632 427.188 18 470C19.8862 469.067 21.7712 468.131 23.6558 467.195C24.7056 466.674 25.7555 466.154 26.8372 465.617C31.7141 463.124 36.4148 460.355 41.125 457.562C43.234 456.322 45.3434 455.083 47.4532 453.844C48.5315 453.21 49.6098 452.575 50.7207 451.922C56.09 448.775 61.4821 445.668 66.875 442.562C67.9527 441.941 69.0303 441.32 70.1407 440.68C74.5236 438.154 78.9074 435.629 83.291 433.104C95.8546 425.867 108.406 418.611 120.922 411.291C126.294 408.152 131.676 405.03 137.07 401.93C137.661 401.59 138.252 401.25 138.86 400.9C141.722 399.255 144.584 397.612 147.449 395.973C148.479 395.381 149.509 394.789 150.57 394.18C151.928 393.402 151.928 393.402 153.313 392.609C154.643 391.812 154.643 391.812 156 391C157.031 390.588 158.061 390.175 159.123 389.75C162.527 386.496 162.475 385.653 162.738 381.104C162.764 378.526 162.756 375.96 162.722 373.383C162.724 371.953 162.729 370.522 162.737 369.092C162.751 365.155 162.726 361.22 162.696 357.284C162.671 353.041 162.679 348.799 162.684 344.556C162.687 337.204 162.668 329.852 162.634 322.499C162.586 311.869 162.57 301.239 162.562 290.609C162.549 273.363 162.509 256.117 162.453 238.871C162.398 222.117 162.355 205.362 162.33 188.607C162.328 187.575 162.326 186.543 162.325 185.479C162.317 180.299 162.309 175.12 162.302 169.941C162.24 126.96 162.134 83.9801 162 41C159.425 41 156.291 43.7327 154.063 45.0625ZM180 41C179.771 84.9761 179.595 128.952 179.489 172.929C179.477 178.118 179.464 183.308 179.451 188.498C179.448 189.531 179.445 190.564 179.443 191.628C179.399 208.366 179.32 225.104 179.229 241.842C179.135 259.011 179.079 276.18 179.059 293.35C179.045 303.948 179.002 314.546 178.921 325.144C178.868 332.407 178.852 339.67 178.865 346.934C178.871 351.127 178.861 355.319 178.808 359.513C178.759 363.352 178.757 367.188 178.791 371.027C178.795 372.416 178.783 373.806 178.751 375.194C178.664 379.318 178.716 383.063 180 387C183.003 389.905 186.165 391.43 190 393C191.127 393.641 192.255 394.283 193.417 394.944C194.426 395.5 195.436 396.056 196.477 396.629C198.207 397.583 198.207 397.583 199.971 398.556C201.189 399.225 202.407 399.894 203.625 400.562C204.906 401.268 206.187 401.973 207.468 402.678C216.518 407.657 225.595 412.584 234.683 417.493C241.082 420.952 247.456 424.452 253.808 427.995C260.798 431.893 267.804 435.761 274.813 439.625C275.424 439.962 276.035 440.299 276.665 440.646C279.176 442.031 281.687 443.416 284.199 444.801C288.775 447.324 293.351 449.849 297.926 452.375C299.868 453.447 301.809 454.519 303.751 455.591C304.979 456.268 306.206 456.946 307.434 457.624C310.238 459.172 313.042 460.719 315.849 462.263C317.971 463.433 320.09 464.609 322.206 465.792C323.198 466.343 324.189 466.893 325.211 467.461C326.088 467.951 326.965 468.442 327.869 468.947C329.903 470.148 329.903 470.148 332 470C332 355.82 332 241.64 332 124C325.73 120.7 319.46 117.4 313 114C303.775 108.905 303.775 108.905 300.152 106.875C293.845 103.349 287.516 99.8633 281.188 96.375C278.677 94.9909 276.167 93.6068 273.656 92.2226C273.025 91.8744 272.393 91.5262 271.742 91.1675C267.337 88.7384 262.934 86.3055 258.531 83.8711C246.164 77.0344 233.778 70.2381 221.345 63.522C208.64 56.6532 196.023 49.6409 183.527 42.3984C181.336 40.9193 181.336 40.9193 180 41ZM488.277 44.5703C487.276 45.1297 486.276 45.689 485.244 46.2654C484.153 46.879 483.062 47.4927 481.938 48.125C480.811 48.7574 479.684 49.3897 478.523 50.0412C468.988 55.4038 459.535 60.9015 450.098 66.4336C443.75 70.1533 437.376 73.8289 431 77.5C421.666 82.876 412.354 88.2863 403.054 93.7217C395.573 98.0914 388.071 102.426 380.563 106.75C373.008 111.103 365.458 115.463 357.938 119.875C357.235 120.286 356.533 120.697 355.809 121.12C352.728 122.82 352.728 122.82 350 125C349.902 126.835 349.876 128.674 349.877 130.511C349.875 131.715 349.873 132.919 349.871 134.159C349.874 135.512 349.877 136.865 349.88 138.218C349.879 139.642 349.878 141.066 349.877 142.49C349.875 146.421 349.879 150.352 349.884 154.283C349.888 158.516 349.887 162.748 349.886 166.981C349.886 174.32 349.889 181.659 349.894 188.998C349.902 199.61 349.905 210.221 349.906 220.832C349.908 238.047 349.915 255.261 349.925 272.475C349.934 289.202 349.941 305.928 349.945 322.655C349.945 323.685 349.946 324.716 349.946 325.777C349.947 330.945 349.948 336.113 349.95 341.282C349.96 384.188 349.978 427.094 350 470C354.83 468.469 358.938 466.44 363.25 463.812C364.764 462.906 366.278 462.001 367.793 461.098C368.621 460.603 369.449 460.108 370.302 459.598C375.361 456.601 380.465 453.681 385.563 450.75C394.057 445.859 402.538 440.946 411 436C422.537 429.259 434.109 422.578 445.687 415.909C451.272 412.691 456.855 409.471 462.438 406.25C463.418 405.685 464.398 405.12 465.408 404.537C467.377 403.402 469.328 402.235 471.26 401.037C474.007 399.426 476.708 398.382 479.728 397.38C485.385 395.251 490.223 392.847 494 388C497.415 378.457 496.449 367.472 496.205 357.471C496.123 353.234 496.151 348.996 496.165 344.758C496.175 337.424 496.116 330.093 496.009 322.759C495.854 312.157 495.805 301.556 495.781 290.953C495.74 273.749 495.613 256.546 495.433 239.343C495.259 222.636 495.124 205.93 495.044 189.223C495.039 188.192 495.034 187.162 495.029 186.1C495.004 180.929 494.98 175.759 494.956 170.588C494.759 127.724 494.425 84.8623 494 42C491.972 42 489.983 43.6166 488.277 44.5703Z" fill="white"/>
</g>
<defs>
<clipPath id="clip0_74_27">
<rect width="512" height="512" fill="white"/>
</clipPath>
</defs>
</svg>
