<svg width="768" height="768" viewBox="0 0 768 768" fill="none" xmlns="http://www.w3.org/2000/svg">
<path d="M502.75 127.562C503.489 127.566 504.228 127.569 504.989 127.572C517.035 127.645 528.395 128.638 540 132C540.745 132.204 541.49 132.407 542.258 132.617C574.972 141.709 603.603 163.898 621 193C621.602 193.997 621.602 193.997 622.217 195.013C628.962 206.374 633.449 218.298 637 231C637.193 231.679 637.387 232.357 637.586 233.057C643.222 253.962 641.927 280.385 636 301C635.818 301.66 635.636 302.32 635.449 303C625.699 337.635 601.856 366.65 570.832 384.418C560.845 389.961 560.845 389.961 555 391C555.004 392.171 555.007 393.342 555.011 394.548C555.098 422.369 555.164 450.189 555.204 478.009C555.209 481.436 555.214 484.863 555.22 488.29C555.221 488.972 555.222 489.654 555.223 490.357C555.24 501.392 555.272 512.427 555.309 523.462C555.346 534.791 555.368 546.121 555.376 557.451C555.382 563.811 555.394 570.172 555.423 576.533C555.45 582.523 555.458 588.513 555.452 594.503C555.453 596.698 555.461 598.894 555.477 601.089C555.497 604.094 555.492 607.098 555.481 610.104C555.493 610.966 555.504 611.827 555.516 612.716C555.446 619.922 553.623 626.674 549.105 632.402C548.473 632.909 547.84 633.416 547.187 633.937C546.25 634.724 546.25 634.724 545.293 635.527C539.895 638.994 535.475 640.375 529.07 640.38C528.406 640.385 527.742 640.39 527.058 640.394C524.84 640.406 522.624 640.397 520.406 640.388C518.797 640.392 517.188 640.397 515.579 640.404C511.164 640.418 506.748 640.414 502.333 640.407C497.569 640.402 492.805 640.415 488.04 640.425C478.709 640.442 469.378 640.443 460.047 640.438C452.464 640.434 444.88 640.435 437.296 640.44C435.678 640.441 435.678 640.441 434.026 640.443C431.834 640.444 429.642 640.446 427.45 640.447C406.89 640.461 386.329 640.456 365.769 640.444C346.958 640.434 328.146 640.447 309.334 640.471C290.02 640.495 270.705 640.505 251.391 640.498C240.547 640.495 229.702 640.497 218.858 640.515C209.627 640.529 200.396 640.53 191.165 640.513C186.455 640.504 181.746 640.502 177.036 640.517C172.723 640.531 168.411 640.526 164.099 640.507C162.54 640.503 160.981 640.506 159.422 640.517C150.092 640.574 143.442 640.132 135.793 634.324C135.263 633.784 134.733 633.244 134.187 632.687C133.645 632.155 133.102 631.623 132.543 631.074C127.489 624.281 127.568 617.841 127.606 609.646C127.599 608.402 127.593 607.158 127.587 605.876C127.573 602.433 127.573 598.991 127.578 595.548C127.581 591.831 127.567 588.114 127.554 584.397C127.533 577.119 127.529 569.84 127.531 562.562C127.532 556.645 127.528 550.727 127.521 544.81C127.519 543.104 127.516 541.399 127.514 539.693C127.513 538.844 127.512 537.995 127.511 537.12C127.492 521.069 127.493 505.018 127.5 488.967C127.506 474.292 127.485 459.617 127.452 444.942C127.418 429.865 127.403 414.788 127.408 399.711C127.41 391.25 127.405 382.789 127.38 374.328C127.359 367.124 127.355 359.921 127.374 352.717C127.383 349.043 127.384 345.371 127.364 341.697C127.341 337.709 127.358 333.722 127.379 329.734C127.366 328.582 127.353 327.429 127.341 326.241C127.421 318.856 128.733 313.132 133 307C140.283 299.893 148.413 297.544 158.352 297.601C159.261 297.595 160.171 297.588 161.107 297.581C164.137 297.563 167.166 297.565 170.195 297.568C172.374 297.559 174.552 297.548 176.731 297.537C182.633 297.509 188.535 297.5 194.437 297.494C200.61 297.484 206.783 297.458 212.955 297.434C224.639 297.39 236.322 297.362 248.006 297.339C261.309 297.311 274.613 297.268 287.916 297.222C315.277 297.129 342.639 297.058 370 297C369.79 295.911 369.58 294.822 369.364 293.701C369.088 292.253 368.812 290.805 368.536 289.357C368.398 288.641 368.26 287.926 368.118 287.189C367.043 281.527 366.392 275.951 366.187 270.187C366.152 269.261 366.118 268.334 366.082 267.379C365.155 233.234 376.867 200.915 399 175C399.674 174.192 400.348 173.383 401.043 172.551C416.679 154.409 437.757 141.013 460.5 133.687C461.21 133.457 461.92 133.227 462.651 132.989C475.912 128.966 488.952 127.441 502.75 127.562ZM426 174C425.304 174.556 424.608 175.111 423.891 175.684C419.4 179.349 415.659 183.516 412 188C411.31 188.829 410.621 189.658 409.91 190.512C392.983 211.841 384.564 237.134 384.687 264.25C384.692 265.528 384.697 266.805 384.702 268.122C384.818 277.457 385.502 285.992 388 295C388.317 296.195 388.634 297.39 388.961 298.621C393.774 314.751 402.191 329.187 413 342C413.593 342.744 414.186 343.488 414.797 344.254C419.513 349.991 425.152 354.462 431 359C432.23 360.005 432.23 360.005 433.484 361.031C457.8 380.061 489.856 386.242 519.949 382.723C550.805 378.607 579.623 361.294 598.609 336.738C608.085 323.456 614.531 309.646 619 294C619.342 292.859 619.683 291.718 620.035 290.543C627.528 260.607 620.64 227.938 605.096 201.764C587.968 174.198 561.099 156.763 530.387 147.965C493.191 139.375 454.905 149.926 426 174ZM147 319C145.763 321.473 145.871 323.106 145.866 325.873C145.861 326.909 145.857 327.945 145.852 329.013C145.852 330.16 145.853 331.307 145.853 332.489C145.849 333.701 145.845 334.912 145.842 336.161C145.833 339.535 145.828 342.909 145.825 346.283C145.821 349.917 145.812 353.552 145.803 357.187C145.783 365.969 145.773 374.752 145.764 383.534C145.76 387.667 145.755 391.799 145.749 395.932C145.732 409.664 145.718 423.397 145.711 437.129C145.709 440.694 145.707 444.258 145.705 447.823C145.704 448.709 145.704 449.595 145.703 450.508C145.695 464.871 145.67 479.233 145.637 493.596C145.604 508.331 145.586 523.067 145.583 537.802C145.581 546.08 145.572 554.357 145.546 562.635C145.525 569.682 145.517 576.73 145.526 583.777C145.531 587.375 145.529 590.972 145.51 594.57C145.489 598.466 145.499 602.361 145.512 606.257C145.501 607.4 145.49 608.542 145.479 609.72C145.488 610.761 145.496 611.802 145.505 612.875C145.504 613.775 145.503 614.674 145.502 615.601C146.186 618.898 147.282 620.039 150 622C153.019 622.6 153.019 622.6 156.444 622.506C157.092 622.512 157.74 622.518 158.408 622.525C160.589 622.54 162.769 622.527 164.95 622.515C166.525 622.52 168.101 622.527 169.676 622.536C174.013 622.554 178.35 622.548 182.686 622.538C187.361 622.531 192.035 622.547 196.709 622.56C205.869 622.581 215.029 622.581 224.189 622.573C231.632 622.567 239.075 622.568 246.518 622.574C247.577 622.575 248.635 622.576 249.725 622.577C251.875 622.579 254.024 622.581 256.174 622.582C276.344 622.599 296.515 622.59 316.686 622.574C335.151 622.559 353.616 622.573 372.08 622.602C391.027 622.632 409.975 622.643 428.922 622.633C431.064 622.632 433.206 622.631 435.348 622.63C436.402 622.63 437.456 622.629 438.542 622.629C445.977 622.626 453.413 622.636 460.849 622.651C469.908 622.668 478.968 622.668 488.027 622.646C492.652 622.634 497.276 622.631 501.9 622.65C506.131 622.667 510.362 622.66 514.593 622.636C516.126 622.631 517.659 622.634 519.192 622.647C521.272 622.663 523.35 622.649 525.43 622.626C527.165 622.626 527.165 622.626 528.934 622.626C532.982 621.799 534.48 620.214 537 617C537.72 615.001 537.72 615.001 537.615 612.949C537.625 612.173 537.635 611.396 537.645 610.596C537.631 609.755 537.616 608.914 537.601 608.047C537.606 607.144 537.61 606.241 537.614 605.311C537.622 602.286 537.595 599.262 537.568 596.237C537.566 594.069 537.567 591.901 537.57 589.732C537.571 583.844 537.542 577.957 537.507 572.069C537.476 565.916 537.473 559.763 537.467 553.611C537.451 541.959 537.41 530.307 537.36 518.656C537.304 505.391 537.277 492.126 537.252 478.862C537.199 451.574 537.111 424.287 537 397C529.08 398.485 529.08 398.485 521 400C520.996 402.4 520.993 404.8 520.989 407.273C520.953 429.875 520.895 452.476 520.816 475.078C520.776 486.698 520.744 498.318 520.729 509.938C520.716 520.067 520.689 530.195 520.645 540.324C520.623 545.686 520.607 551.049 520.608 556.411C520.609 561.461 520.591 566.51 520.559 571.56C520.55 573.411 520.549 575.262 520.554 577.113C520.561 579.646 520.543 582.178 520.519 584.711C520.531 585.802 520.531 585.802 520.542 586.916C520.453 592.3 519.21 596.618 516 601C509.865 606.217 503.201 605.562 495.443 605.508C494.055 605.513 492.667 605.519 491.28 605.527C487.476 605.543 483.673 605.535 479.869 605.523C475.763 605.514 471.658 605.528 467.552 605.539C459.513 605.557 451.474 605.553 443.435 605.541C436.902 605.532 430.369 605.531 423.836 605.535C422.442 605.536 422.442 605.536 421.019 605.537C419.13 605.538 417.241 605.54 415.352 605.541C397.641 605.552 379.93 605.539 362.219 605.518C347.02 605.5 331.821 605.503 316.623 605.521C298.973 605.543 281.324 605.551 263.675 605.539C261.793 605.538 259.911 605.536 258.03 605.535C257.104 605.535 256.178 605.534 255.224 605.533C248.698 605.53 242.172 605.536 235.646 605.545C227.695 605.556 219.743 605.553 211.791 605.532C207.734 605.521 203.677 605.517 199.619 605.531C195.905 605.543 192.192 605.536 188.478 605.515C186.497 605.508 184.516 605.521 182.536 605.535C171.565 605.438 171.565 605.438 167 601C162.386 595.857 162.431 591.362 162.492 584.79C162.486 583.764 162.48 582.738 162.473 581.681C162.457 578.245 162.47 574.809 162.482 571.373C162.477 568.909 162.47 566.445 162.461 563.981C162.445 557.984 162.447 551.987 162.459 545.99C162.468 541.115 162.469 536.241 162.465 531.367C162.464 530.673 162.463 529.978 162.463 529.263C162.462 527.853 162.46 526.443 162.459 525.033C162.448 511.815 162.461 498.597 162.482 485.379C162.5 474.04 162.497 462.701 162.478 451.362C162.457 438.19 162.449 425.019 162.461 411.848C162.462 410.443 162.463 409.038 162.465 407.633C162.465 406.942 162.466 406.251 162.467 405.539C162.47 400.671 162.464 395.803 162.455 390.935C162.442 384.382 162.451 377.829 162.474 371.276C162.48 368.869 162.478 366.462 162.469 364.056C162.458 360.773 162.472 357.492 162.492 354.21C162.479 352.777 162.479 352.777 162.465 351.316C162.533 345.548 163.291 342.463 167 338C167.454 337.422 167.907 336.845 168.375 336.25C173.126 332.596 178.887 332.707 184.618 332.721C185.472 332.716 186.327 332.71 187.207 332.704C190.063 332.687 192.919 332.684 195.775 332.681C197.825 332.672 199.875 332.662 201.925 332.651C207.487 332.623 213.048 332.608 218.61 332.595C224.423 332.58 230.237 332.553 236.05 332.527C247.057 332.48 258.065 332.444 269.072 332.411C281.604 332.372 294.136 332.323 306.667 332.273C332.445 332.169 358.222 332.08 384 332C381.69 326.72 379.38 321.44 377 316C348.421 315.932 319.843 315.878 291.264 315.847C287.891 315.843 284.518 315.839 281.144 315.835C280.473 315.834 279.801 315.834 279.109 315.833C268.233 315.82 257.356 315.796 246.48 315.769C235.321 315.74 224.162 315.724 213.003 315.718C206.734 315.714 200.466 315.705 194.198 315.683C188.3 315.662 182.403 315.656 176.506 315.661C174.339 315.66 172.172 315.654 170.005 315.642C167.051 315.627 164.097 315.631 161.143 315.639C160.282 315.63 159.421 315.622 158.534 315.613C153.873 315.648 150.78 315.957 147 319ZM180 350C180 428.54 180 507.08 180 588C286.59 588 393.18 588 503 588C503 552.69 503 517.38 503 481C495.41 473.41 487.82 465.82 480 458C477.69 455.36 475.38 452.72 473 450C471.188 448.115 469.358 446.249 467.504 444.406C467.025 443.929 466.547 443.452 466.054 442.961C464.559 441.471 463.061 439.986 461.562 438.5C460.534 437.477 459.506 436.453 458.478 435.43C455.988 432.95 453.495 430.474 451 428C444.937 433.14 439.2 438.362 434.062 444.445C428.34 451.017 422.021 457.035 415.825 463.155C408.441 470.384 408.441 470.384 401.488 478.02C398.544 481.477 395.372 484.673 392.137 487.855C391.614 488.37 391.092 488.885 390.553 489.415C388.38 491.551 386.205 493.684 384.02 495.808C382.406 497.38 380.802 498.961 379.199 500.543C378.706 501.017 378.214 501.491 377.706 501.979C374.885 504.78 373.189 507.197 372 511C376.83 516.533 381.787 521.868 387.023 527.016C387.541 527.525 388.059 528.035 388.592 528.56C390.728 530.66 392.866 532.756 395.014 534.843C396.607 536.394 398.191 537.954 399.773 539.516C400.706 540.426 401.638 541.336 402.599 542.274C405.892 546.013 408.074 549.121 407.875 554.187C406.957 557.137 406.563 558.321 404 560C400.737 560.993 398.888 561.417 395.757 559.946C392.034 557.318 388.957 554.223 385.758 550.988C385.071 550.301 384.385 549.614 383.677 548.906C382.228 547.454 380.78 545.999 379.335 544.541C377.145 542.332 374.946 540.131 372.746 537.932C371.333 536.513 369.92 535.095 368.508 533.676C367.86 533.026 367.211 532.377 366.544 531.708C362.766 527.892 359.187 523.958 355.674 519.896C353.189 517.082 350.55 514.444 347.875 511.812C347.324 511.266 346.774 510.719 346.207 510.155C344.473 508.434 342.737 506.717 341 505C327.839 491.994 327.839 491.994 322.539 485.766C319.864 482.696 316.962 479.856 314.062 477C313.474 476.416 312.886 475.832 312.279 475.23C310.855 473.818 309.428 472.409 308 471C301.998 475.94 296.509 481.338 291.03 486.84C289.507 488.368 287.978 489.891 286.449 491.414C280.353 497.506 280.353 497.506 274.594 503.914C268.899 510.567 262.476 516.576 256.252 522.728C250.616 528.303 245.038 533.837 239.896 539.877C235.272 545.054 230.238 549.862 225.312 554.75C224.174 555.884 223.035 557.018 221.896 558.152C219.812 560.229 217.726 562.304 215.638 564.378C213.999 566.007 212.375 567.65 210.774 569.315C208.707 571.278 207.81 571.544 205 571.5C202.151 571.33 201.015 571.009 198.5 569.5C196.833 566.722 196.125 564.506 196.306 561.243C197.22 558.289 198.685 556.744 200.793 554.484C202.017 553.171 202.017 553.171 203.266 551.832C208.149 546.775 213.122 541.813 218.125 536.875C225.994 529.208 225.994 529.208 233.398 521.102C239.261 514.233 245.904 508.044 252.321 501.7C260.943 493.176 260.943 493.176 269.059 484.177C273.45 479.252 278.179 474.635 282.844 469.971C284.699 468.113 286.546 466.248 288.393 464.383C289.578 463.195 290.763 462.007 291.949 460.82C292.497 460.265 293.045 459.71 293.61 459.138C298.113 454.661 301.022 452.714 307.375 452.625C308.29 452.597 309.205 452.568 310.148 452.539C315.99 453.483 320.107 457.857 324.152 461.922C324.616 462.386 325.079 462.849 325.556 463.327C326.529 464.303 327.499 465.281 328.467 466.262C329.925 467.737 331.391 469.205 332.857 470.672C337.568 475.4 342.142 480.199 346.487 485.267C348.696 487.797 351.046 490.141 353.437 492.5C354.302 493.356 355.167 494.212 356.059 495.094C356.699 495.723 357.34 496.352 358 497C358.689 496.31 359.378 495.62 360.088 494.909C362.657 492.341 365.232 489.778 367.808 487.217C370.335 484.704 372.859 482.188 375.383 479.672C376.706 478.353 378.031 477.036 379.356 475.719C388.533 466.633 388.533 466.633 397.174 457.046C402.221 451.389 407.783 446.171 413.175 440.845C419.344 434.745 425.372 428.611 431 422C436.943 415.468 441.412 410.599 450.5 409.625C458.341 410.465 462.702 414.122 468 419.574C468.639 420.217 469.279 420.86 469.937 421.522C471.968 423.568 473.984 425.628 476 427.687C477.353 429.052 478.707 430.416 480.062 431.779C481.376 433.106 482.688 434.433 484 435.762C484.598 436.367 485.196 436.973 485.812 437.597C488.862 440.714 491.789 443.889 494.625 447.202C497.189 450.174 499.811 452.681 503 455C503.025 447.47 503.043 439.941 503.055 432.411C503.06 429.847 503.067 427.283 503.075 424.719C503.087 421.043 503.093 417.367 503.098 413.691C503.103 412.537 503.108 411.383 503.113 410.194C503.113 409.133 503.113 408.072 503.113 406.979C503.116 406.039 503.118 405.1 503.12 404.132C503.238 402.016 503.238 402.016 502 401C500.568 400.82 499.128 400.7 497.687 400.605C458 397.699 426.302 382.302 399 353C398.01 351.515 398.01 351.515 397 350C394.103 349.706 391.42 349.609 388.521 349.639C387.193 349.635 387.193 349.635 385.837 349.631C382.842 349.626 379.848 349.643 376.853 349.659C374.68 349.66 372.507 349.66 370.334 349.658C364.498 349.658 358.662 349.675 352.825 349.696C347.355 349.713 341.885 349.714 336.415 349.716C320.402 349.732 304.388 349.774 288.375 349.812C252.611 349.874 216.847 349.936 180 350Z" fill="black"/>
<path d="M520.188 175.562C526.385 180.455 529.008 187.353 530 195C530.13 198.332 530.117 201.659 530.098 204.992C530.096 205.938 530.095 206.884 530.093 207.859C530.088 210.864 530.075 213.87 530.062 216.875C530.057 218.919 530.053 220.964 530.049 223.008C530.038 228.005 530.021 233.003 530 238C531.255 237.99 532.511 237.979 533.804 237.968C538.495 237.932 543.186 237.909 547.877 237.89C549.901 237.88 551.925 237.867 553.949 237.849C556.871 237.825 559.793 237.813 562.715 237.805C564.056 237.789 564.056 237.789 565.424 237.773C575.16 237.772 583.636 239.23 591 246C596.55 253.376 598.794 259.834 598 269C596.52 276.514 593.147 282.131 586.82 286.508C579.215 290.989 572.216 291.144 563.57 291.098C562.085 291.096 562.085 291.096 560.569 291.093C557.421 291.088 554.273 291.075 551.125 291.062C548.984 291.057 546.844 291.053 544.703 291.049C539.469 291.038 534.234 291.021 529 291C528.869 291.788 528.737 292.575 528.602 293.387C528 296 528 296 526.375 297.812C522.983 299.509 520.745 299.526 517 299C514.311 297.003 512.339 295.42 511.537 292.06C511.363 289.832 511.367 287.671 511.438 285.438C511.427 284.683 511.416 283.928 511.404 283.15C511.449 279.756 511.602 277.522 513.692 274.785C516.526 272.593 517.947 272.501 521.5 272.502C522.601 272.492 523.702 272.482 524.837 272.471C526.616 272.484 526.616 272.484 528.43 272.496C529.653 272.487 530.876 272.477 532.136 272.468C536.049 272.439 539.962 272.436 543.875 272.438C547.781 272.434 551.687 272.424 555.593 272.397C558.023 272.38 560.454 272.377 562.885 272.39C570.896 272.42 570.896 272.42 578 269C579.072 265.852 579.264 263.951 578.375 260.75C576.516 258.384 574.848 257.933 572 257C569.263 256.704 569.263 256.704 566.355 256.745C565.247 256.738 564.139 256.731 562.998 256.724C561.811 256.725 560.625 256.726 559.402 256.727C556.885 256.706 554.367 256.685 551.85 256.664C547.884 256.641 543.919 256.625 539.953 256.619C536.123 256.61 532.294 256.576 528.465 256.539C526.682 256.547 526.682 256.547 524.863 256.554C523.758 256.541 522.654 256.528 521.515 256.514C520.545 256.511 519.574 256.508 518.573 256.506C515.19 255.841 514.024 254.766 512 252C511.494 249.471 511.494 249.471 511.486 246.592C511.473 245.511 511.459 244.429 511.446 243.315C511.453 241.57 511.453 241.57 511.461 239.789C511.449 238.588 511.437 237.387 511.425 236.15C511.39 232.308 511.381 228.467 511.375 224.625C511.359 220.79 511.337 216.956 511.303 213.121C511.284 210.735 511.274 208.349 511.276 205.963C511.28 198.277 511.28 198.277 509 191C506.536 188.976 505.138 189 501.938 189C498.862 189.734 498.862 189.734 497.34 192.269C495.376 197.739 495.599 202.927 495.629 208.695C495.612 211.21 495.594 213.724 495.576 216.238C495.566 220.193 495.563 224.147 495.564 228.102C495.561 231.925 495.533 235.747 495.504 239.57C495.512 240.756 495.52 241.941 495.529 243.163C495.519 244.264 495.509 245.366 495.498 246.5C495.498 247.468 495.499 248.436 495.499 249.433C494.841 252.819 493.769 253.979 491 256C488.433 256.499 488.433 256.499 485.5 256.498C484.399 256.508 483.298 256.518 482.163 256.529C480.384 256.516 480.384 256.516 478.57 256.504C477.347 256.513 476.124 256.523 474.864 256.532C470.951 256.561 467.038 256.564 463.125 256.562C459.219 256.566 455.313 256.576 451.407 256.603C448.977 256.62 446.546 256.623 444.115 256.61C436.104 256.58 436.104 256.58 429 260C427.928 263.148 427.736 265.049 428.625 268.25C430.484 270.616 432.152 271.067 435 272C437.737 272.296 437.737 272.296 440.645 272.255C441.753 272.262 442.861 272.269 444.002 272.276C445.189 272.275 446.375 272.274 447.598 272.273C450.115 272.294 452.633 272.315 455.15 272.336C459.116 272.359 463.081 272.375 467.047 272.381C470.877 272.39 474.706 272.424 478.535 272.461C479.724 272.456 480.912 272.451 482.137 272.446C483.242 272.459 484.346 272.472 485.485 272.486C486.455 272.489 487.426 272.492 488.427 272.494C491.813 273.16 492.978 274.228 495 277C495.499 279.567 495.499 279.567 495.498 282.5C495.508 283.601 495.518 284.702 495.529 285.837C495.521 287.023 495.512 288.208 495.504 289.43C495.513 290.653 495.523 291.876 495.532 293.136C495.561 297.049 495.564 300.962 495.562 304.875C495.566 308.781 495.576 312.687 495.603 316.593C495.62 319.023 495.623 321.454 495.61 323.885C495.58 331.896 495.58 331.896 499 339C502.126 340.064 504.054 340.237 507.25 339.438C509.949 337.221 510.231 335.429 511 332C511.209 328.933 511.375 325.877 511.461 322.805C512.13 319.322 513.229 318.154 516 316C519.872 314.944 522.063 314.625 525.812 316.125C528.934 318.801 529.847 321.518 530.266 325.578C530.205 336.007 528.911 343.836 522 352C516.726 356.972 510.856 359.011 503.625 359.312C495.587 359.067 489.575 356.476 483.727 350.965C478.725 345.273 476.865 338.797 476.886 331.302C476.887 329.951 476.887 329.951 476.887 328.573C476.892 327.614 476.897 326.656 476.902 325.668C476.904 324.676 476.905 323.684 476.907 322.663C476.912 319.504 476.925 316.346 476.938 313.188C476.943 311.042 476.947 308.897 476.951 306.752C476.962 301.501 476.979 296.251 477 291C475.064 291.016 475.064 291.016 473.088 291.032C468.272 291.068 463.456 291.091 458.641 291.11C456.561 291.12 454.482 291.134 452.402 291.151C449.404 291.175 446.405 291.187 443.406 291.195C442.485 291.206 441.564 291.216 440.615 291.227C431.72 291.228 424.034 289.755 417 284C411.579 278.291 409.03 272.537 408.688 264.625C408.899 257.296 411.094 250.969 416.129 245.57C424.475 238.566 433.557 237.843 443.992 237.902C444.938 237.904 445.884 237.905 446.859 237.907C449.864 237.912 452.87 237.925 455.875 237.938C457.919 237.943 459.964 237.947 462.008 237.951C467.005 237.962 472.003 237.979 477 238C476.984 236.684 476.969 235.368 476.952 234.012C476.898 229.097 476.864 224.183 476.835 219.268C476.82 217.147 476.8 215.026 476.774 212.905C476.737 209.844 476.72 206.784 476.707 203.723C476.692 202.785 476.676 201.847 476.66 200.881C476.658 191.043 479.255 183.255 486 176C496.684 167.362 509.243 168.328 520.188 175.562Z" fill="black"/>
<path d="M272.375 382.25C282.354 389.868 288.938 399.517 290.781 412.082C291.677 424.037 289.477 435.667 281.75 445.094C273.748 453.81 264.432 460.455 252.312 461.238C239.466 461.57 228.88 459.851 219 451C218.395 450.499 217.791 449.997 217.168 449.48C208.029 441.297 204.643 429.979 203.688 418.125C204.068 405.588 209.088 395.297 217.516 386.332C232.542 372.227 255.297 370.96 272.375 382.25ZM226.633 403.508C222.706 409.501 221.234 415.766 222.441 422.848C224.57 431.051 229.232 436.019 236 441C241.799 444.026 249.197 444.006 255.465 442.348C262.438 439.57 267.294 435.127 270.875 428.562C273.164 421.315 273.712 415.169 271 408C267.384 401.318 261.32 395.691 253.984 393.359C242.854 391.344 233.761 394.706 226.633 403.508Z" fill="black"/>
<path d="M311 512C314.636 514.5 315.776 516.009 316.75 520.312C315.973 524.132 315.418 525.002 312.904 527.76C312.269 528.46 311.634 529.16 310.979 529.881C305.943 535.272 300.798 540.547 295.612 545.793C294.198 547.229 292.79 548.671 291.388 550.119C289.346 552.228 287.285 554.317 285.219 556.402C284.289 557.374 284.289 557.374 283.34 558.365C279.425 562.262 276.777 563.983 271 564C267.426 562.412 266.189 561.284 264 558C263.438 554.812 263.438 554.812 264 551C265.334 549.135 265.334 549.135 267.087 547.218C268.042 546.17 268.042 546.17 269.016 545.101C272.023 541.916 275.074 538.783 278.176 535.691C278.827 535.039 279.478 534.387 280.149 533.715C281.51 532.353 282.872 530.993 284.236 529.634C286.328 527.547 288.415 525.454 290.502 523.361C291.83 522.033 293.159 520.706 294.488 519.379C295.112 518.753 295.736 518.127 296.379 517.482C301.112 512.775 304.179 510.865 311 512Z" fill="black"/>
<path d="M458 462C460.648 464.307 460.959 465.788 461.625 469.25C460.968 473.191 460.479 473.962 457.909 476.778C457.273 477.477 456.637 478.176 455.981 478.897C452.978 482.085 449.926 485.217 446.824 488.309C446.173 488.961 445.522 489.613 444.851 490.285C443.49 491.646 442.128 493.007 440.764 494.366C438.672 496.453 436.585 498.546 434.498 500.639C433.17 501.966 431.841 503.294 430.512 504.621C429.576 505.56 429.576 505.56 428.621 506.518C423.186 511.923 423.186 511.923 418.125 512.25C415.527 512.193 413.998 511.999 411.563 511C409.228 508.012 408.627 504.707 409 501C411.504 495.849 415.554 492.141 419.555 488.144C420.663 487.03 420.663 487.03 421.793 485.893C423.352 484.328 424.914 482.766 426.478 481.206C428.868 478.819 431.245 476.419 433.621 474.018C435.14 472.497 436.659 470.976 438.18 469.457C438.888 468.739 439.597 468.022 440.327 467.282C441.333 466.285 441.333 466.285 442.359 465.269C442.943 464.684 443.527 464.1 444.128 463.498C448.953 459.637 452.346 459.696 458 462Z" fill="black"/>
</svg>
