<svg width="512" height="512" viewBox="0 0 512 512" fill="none" xmlns="http://www.w3.org/2000/svg">
<g clip-path="url(#clip0_78_55)">
<path d="M404.709 101.579C413.02 109.412 420.195 117.845 427 127C427.424 127.558 427.848 128.115 428.284 128.69C462.353 173.561 475.228 231.583 468 287C461.843 328.091 444.291 367.169 416.062 397.75C414.249 399.728 412.53 401.752 410.812 403.812C375.931 443.462 322.286 465.874 270.305 469.687C217.358 473.043 163.072 456.96 122 423C121.433 422.535 120.867 422.07 120.283 421.59C106.941 410.581 95.334 398.88 85 385C84.5695 384.43 84.1389 383.86 83.6953 383.273C76.9357 374.302 71.1846 364.962 66 355C65.4373 353.924 65.4373 353.924 64.8633 352.826C39.0396 302.732 35.2315 243.602 51.9272 190.024C56.6031 175.78 62.1803 161.245 71 149C74.1005 147.45 76.5789 147.71 80 148C83.4885 149.896 84.7069 151.13 85.9766 154.898C86.65 160.784 83.0634 165.983 80.5 171.062C57.97 217.78 54.9332 270.562 71.5186 319.706C77.7364 337.229 85.899 354.052 97 369C97.399 369.55 97.7979 370.1 98.209 370.667C106.871 382.586 116.681 393.539 128 403C128.496 402.299 128.993 401.597 129.504 400.875C133.731 394.971 138.065 389.328 143 384C144.145 382.762 144.145 382.762 145.312 381.5C161.915 366.055 181.188 358 204 358C204 351.73 204 345.46 204 339C202.35 338.34 200.7 337.68 199 337C184.966 327.985 177.647 316.4 173.75 300.59C172.903 296.534 172.664 293.112 173 289C171.989 288.794 170.979 288.587 169.938 288.375C164.574 286.801 160.764 283.691 157.707 279.027C155.546 274.728 154.807 270.98 154.562 266.187C154.155 258.552 151.15 252.321 147.781 245.551C144.19 237.791 143.19 228.121 146.078 219.949C147.199 216.363 146.803 214.247 146.125 210.562C144.945 202.891 144.736 195.226 144.698 187.476C144.688 185.494 144.662 183.513 144.635 181.531C144.644 158.681 151.972 137.24 168.129 120.75C189.772 100.02 220.005 94.032 249 93C250.599 92.9381 250.599 92.9381 252.23 92.875C284.123 92.2653 319.392 97.5385 343.44 120.223C359.651 136.298 367.064 157.781 367.189 180.334C367.188 181.647 367.188 182.96 367.188 184.312C367.189 184.982 367.19 185.652 367.192 186.342C367.201 195.608 366.785 204.606 365.242 213.75C364.969 217.417 365.772 219.566 367 223C367.986 233.321 366.65 241.002 361.914 250.082C359.537 254.898 358.639 259.074 358.062 264.437C357.175 272.007 355.709 278.468 350.035 283.871C347.416 285.905 345.022 287.672 341.848 288.691C339.633 289.966 339.633 289.966 339.094 293.309C338.882 294.683 338.685 296.059 338.5 297.437C335.708 314.458 328.566 325.178 315 336C310.423 339 310.423 339 308 339C308 345.27 308 351.54 308 358C310.97 358 313.94 358 317 358C337.08 360.461 353.446 369.071 368 383C368.626 383.563 369.253 384.127 369.898 384.707C374.616 389.094 377.897 394.171 381.301 399.621C381.862 400.406 382.422 401.191 383 402C387.584 402 391.879 396.009 395 393C430.826 356.861 450.622 307.103 451.312 256.375C451.075 203.575 429.862 156.094 394 118C393.305 117.239 392.61 116.479 391.895 115.695C362.719 84.8832 319.376 67.407 278 62C277.054 61.8672 276.108 61.7344 275.133 61.5976C237.234 57.1781 197.348 65.8383 164 84C163.4 84.3208 162.8 84.6416 162.182 84.9721C143.213 95.1545 126.765 108.512 112.061 124.188C107.672 128.752 107.672 128.752 104.297 129.996C100.621 130.002 98.1644 128.791 95 127C93.1994 124.224 93.0105 122.473 92.9375 119.187C94.5327 114.402 97.5136 111.574 101 108C101.455 107.521 101.909 107.042 102.377 106.549C110.314 98.1924 118.661 90.7541 128 84C128.991 83.2831 128.991 83.2831 130.002 82.5517C160.46 60.8182 194.922 47.6336 232 43C233.002 42.8685 234.003 42.737 235.035 42.6015C297.734 35.9257 358.923 59.2732 404.709 101.579ZM178 137C162.862 155.201 161.753 176.275 163 199C163.305 201.005 163.63 203.006 164 205C164.99 205 165.98 205 167 205C167.156 204.402 167.311 203.803 167.471 203.187C178.86 159.667 178.86 159.667 196.75 147.062C202.698 145.118 208.59 144.795 214.25 147.625C215.699 148.877 217.143 150.137 218.527 151.461C229.189 161.345 244.923 162.488 258.902 162.187C273.579 161.299 285.228 159.347 296 149C300.144 145.528 304.051 145.488 309.289 145.656C313.322 146.168 315.869 147.463 319 150C319.561 150.44 320.121 150.879 320.699 151.332C335.397 164.378 340.553 186.719 345 205C345.99 205 346.98 205 348 205C351.826 183.322 349.722 160.875 338 142C324.744 124.404 304.548 116.309 283.375 112.75C276.275 111.81 269.153 111.319 262 111C260.592 110.936 260.592 110.936 259.156 110.871C230.355 110.25 198.724 115.439 178 137ZM202.484 165.328C189.858 179.319 185.583 198.764 182.543 216.91C182 220 182 220 181 223C172.91 224.169 172.91 224.169 168.625 223.375C166.049 222.753 166.049 222.753 164.125 223.937C162.355 227.182 162.558 230.425 163 234C164.037 237.146 165.446 240.078 166.875 243.062C170.242 250.482 172.032 256.987 172.648 265.094C172.802 268.191 172.802 268.191 175 271C177.808 271.911 177.808 271.911 181 272.5C186.778 273.667 186.778 273.667 189 277C189.366 279.615 189.646 282.186 189.875 284.812C191.469 299.668 194.369 310.155 206.316 319.887C210.424 322.898 214.708 325.4 219.184 327.824C225.746 331.394 230.471 335.201 235.613 340.727C241.839 346.657 249.774 349.413 258.254 349.266C268.076 348.316 274.185 342.647 281 336C284.808 332.446 288.585 330.122 293.188 327.75C299.867 324.243 305.438 320.077 311 315C311.619 314.46 312.238 313.92 312.875 313.363C320.605 305.691 321.472 293.044 322.142 282.686C322.414 279.387 322.793 277.288 324.742 274.574C327.301 272.79 329.05 272.337 332.125 271.937C334.713 271.652 334.713 271.652 337 271C339.37 267.445 339.416 265.289 339.812 261.062C340.714 252.982 343.407 246.267 346.992 238.984C349.176 234.366 349.586 231.02 349 226C347.696 223.708 347.696 223.708 345 223C342.722 223.174 340.553 223.502 338.316 223.969C335.051 224.013 333.528 223.019 331 221C330.031 218.75 330.031 218.75 329.5 216C329.271 214.936 329.041 213.873 328.805 212.777C328.539 211.531 328.274 210.284 328 209C322.314 184.363 322.314 184.363 308 164C305.642 165.048 303.887 166.1 301.938 167.812C283.993 181.175 257.309 180.606 236.121 177.691C225.015 175.96 213.8 172.424 206 164C203.915 163.78 203.915 163.78 202.484 165.328ZM222 353C221.514 367.172 221.803 379.985 232 391C239.515 397.409 247.081 400.856 257 401C267.614 399.963 276.613 395.511 283.441 387.258C290.599 376.959 290.411 365.006 290 353C289.55 353.375 289.1 353.75 288.637 354.137C276.665 363.661 263.194 367.497 248 366C238.184 363.989 229.878 359.034 222 353ZM153.719 398.445C149.169 403.861 145.858 409.542 143 416C186.287 446.181 237.653 458.048 289.789 449.035C318.178 443.755 345.586 433.052 369 416C361.714 399.537 349.573 387.749 332.919 380.731C324.495 377.521 316.02 375.75 307 376C306.648 377.039 306.296 378.078 305.934 379.148C300.159 395.679 292.101 406.959 275.992 414.773C263.795 419.773 249.333 419.81 236.93 415.328C223.489 409.235 213.819 400.124 208.516 386.246C207.274 382.854 206.119 379.435 205 376C185.438 375.458 166.976 384.234 153.719 398.445Z" fill="white"/>
<path d="M255.063 -0.312439C256.055 -0.310284 257.048 -0.308129 258.07 -0.305909C272.897 -0.254277 287.415 0.0741477 302 3.00006C303.488 3.29808 303.488 3.29808 305.006 3.60211C344.022 11.7153 380.526 27.4116 412 52.0001C412.972 52.7593 413.944 53.5186 414.945 54.3008C430.325 66.6352 444.878 80.4361 457 96.0001C458.147 97.4039 458.147 97.4039 459.316 98.836C486.355 132.602 503.547 174.373 510 217C510.177 218.119 510.355 219.238 510.537 220.39C512.219 232.112 512.357 243.735 512.312 255.563C512.31 256.583 512.308 257.603 512.306 258.655C512.256 273.282 512.009 287.633 509 302C508.702 303.462 508.702 303.462 508.398 304.954C498.277 353.336 476.361 397.324 442 433C441.368 433.659 440.736 434.319 440.084 434.998C430.94 444.486 421.643 453.226 411 461C409.849 461.858 408.698 462.716 407.547 463.574C399.357 469.612 390.855 474.995 382 480C381.293 480.402 380.586 480.804 379.857 481.219C356.722 494.244 331.55 502.993 305.562 508.313C304.844 508.46 304.125 508.607 303.384 508.759C288.708 511.548 274.183 512.349 259.273 512.316C256.333 512.313 253.395 512.336 250.455 512.361C237.082 512.406 224.186 511.201 211 509C209.294 508.718 209.294 508.718 207.554 508.43C164.287 500.658 123.237 480.671 90 452C89.2549 451.366 88.5099 450.732 87.7422 450.078C74.2372 438.267 61.5658 425.516 51 411C50.1435 409.85 49.2867 408.7 48.4297 407.551C42.3897 399.361 37.0063 390.856 32 382C31.5978 381.293 31.1956 380.586 30.7813 379.857C17.7558 356.722 9.007 331.55 3.68751 305.563C3.54016 304.844 3.3928 304.125 3.24098 303.384C0.267121 287.738 -0.372992 272.264 -0.312488 256.375C-0.310333 255.357 -0.308178 254.339 -0.305957 253.29C-0.256286 238.681 -0.00538969 224.349 3.00001 210C3.19869 209.025 3.39737 208.05 3.60206 207.046C13.7227 158.664 35.6392 114.676 70 79.0001C70.6321 78.3407 71.2643 77.6814 71.9155 77.002C81.06 67.5138 90.3574 58.7739 101 51.0001C102.151 50.142 103.302 49.2839 104.453 48.4258C112.643 42.3883 121.145 37.0055 130 32.0001C130.707 31.5979 131.414 31.1957 132.143 30.7813C155.278 17.7559 180.45 9.00705 206.438 3.68756C207.156 3.5402 207.875 3.39285 208.616 3.24103C224.073 0.303122 239.365 -0.373806 255.063 -0.312439ZM91.7808 83.2501C89.9842 85.0156 88.1675 86.7585 86.3477 88.5001C78.9835 95.619 72.3731 103.051 66.2749 111.281C65.0373 112.95 63.7795 114.602 62.5195 116.254C32.6632 156.051 17.5143 205.857 17.625 255.313C17.6256 256.231 17.6261 257.15 17.6267 258.096C17.7711 311.411 35.8829 362.258 69 404C69.4269 404.544 69.8537 405.088 70.2935 405.648C82.1126 420.595 95.9301 434.6 111.361 445.806C113.003 447.002 114.619 448.229 116.234 449.461C156.004 479.349 205.867 494.486 255.313 494.375C256.231 494.375 257.15 494.374 258.096 494.373C308.645 494.236 360.37 478.061 400 446C400.83 445.359 401.66 444.719 402.516 444.059C409.35 438.74 415.727 432.96 422 427C422.536 426.493 423.071 425.986 423.623 425.464C431.918 417.558 439.185 409.205 446 400C446.429 399.426 446.858 398.853 447.3 398.262C478.057 356.989 494.494 307.557 494.375 256.125C494.374 255.233 494.374 254.34 494.373 253.421C494.225 200.315 475.968 149.555 443 108C442.573 107.456 442.146 106.912 441.707 106.352C429.887 91.4046 416.07 77.3997 400.639 66.1944C398.997 64.9977 397.381 63.7715 395.766 62.5391C355.996 32.6511 306.133 17.5143 256.688 17.6251C255.769 17.6256 254.85 17.6261 253.904 17.6267C193.855 17.7894 134.752 40.9515 91.7808 83.2501Z" fill="white"/>
</g>
<defs>
<clipPath id="clip0_78_55">
<rect width="512" height="512" fill="white"/>
</clipPath>
</defs>
</svg>
