<svg width="512" height="512" viewBox="0 0 512 512" fill="none" xmlns="http://www.w3.org/2000/svg">
<g clip-path="url(#clip0_78_44)">
<path d="M94.0968 -0.131367C94.9598 -0.135209 95.8227 -0.13905 96.7118 -0.143007C97.6654 -0.142141 98.6191 -0.141274 99.6017 -0.140382C100.61 -0.143353 101.619 -0.146324 102.659 -0.149385C106.061 -0.158102 109.463 -0.159583 112.866 -0.161072C115.296 -0.165699 117.727 -0.170723 120.158 -0.176118C126.778 -0.189265 133.398 -0.195728 140.018 -0.200128C144.152 -0.20289 148.285 -0.207127 152.419 -0.211632C163.865 -0.223828 175.31 -0.234126 186.755 -0.237508C187.855 -0.237837 187.855 -0.237837 188.976 -0.238173C189.711 -0.238391 190.445 -0.238609 191.202 -0.238834C192.691 -0.239278 194.18 -0.239724 195.668 -0.240174C196.407 -0.240395 197.145 -0.240617 197.906 -0.240845C209.864 -0.244791 221.821 -0.262236 233.779 -0.285534C246.055 -0.30926 258.332 -0.32171 270.608 -0.322875C277.501 -0.323792 284.394 -0.32953 291.287 -0.347695C297.773 -0.364727 304.258 -0.366339 310.744 -0.357556C313.124 -0.356785 315.504 -0.361141 317.884 -0.371014C321.135 -0.38371 324.385 -0.37787 327.636 -0.367432C329.047 -0.379517 329.047 -0.379517 330.486 -0.391846C338.453 -0.33209 345.401 1.39999 351.273 7.10211C358.912 15.4964 358.626 24.9684 358.312 35.6251C358.287 37.1211 358.265 38.6172 358.244 40.1133C358.19 43.7431 358.104 47.3713 358 51.0001C358.892 50.9791 359.784 50.9582 360.703 50.9366C364.052 50.8679 367.401 50.818 370.75 50.7803C372.192 50.7604 373.634 50.7332 375.076 50.6983C385.294 50.4575 392.553 51.4384 401.25 57.1251C410.602 66.9024 409.736 77.9436 409.707 90.6641C409.72 92.6677 409.735 94.6712 409.753 96.6747C409.793 101.919 409.803 107.163 409.807 112.407C409.816 117.77 409.854 123.133 409.889 128.496C409.953 138.997 409.986 149.499 410 160C410.45 159.577 410.901 159.155 411.365 158.719C413.439 156.772 415.515 154.826 417.59 152.879C418.298 152.214 419.006 151.55 419.736 150.865C425.032 145.897 430.357 140.961 435.707 136.051C438.103 133.843 440.469 131.606 442.824 129.356C454.242 118.478 463.485 110.225 480 110C487.26 110.585 492.934 113.073 499 117C499.887 117.557 500.774 118.114 501.687 118.688C507.889 124.889 512.196 133.188 512.381 141.977C512.349 154.341 509.842 162.095 501 171C500.053 171.973 499.107 172.945 498.16 173.918C493.168 179.007 488.123 183.956 482.621 188.5C480.809 190.177 479.425 191.99 478 194C478.843 194.892 479.686 195.784 480.555 196.703C481.662 197.885 482.768 199.068 483.875 200.25C484.431 200.837 484.986 201.423 485.559 202.027C486.361 202.888 486.361 202.888 487.18 203.766C487.672 204.289 488.164 204.813 488.671 205.353C491.741 209.159 492.362 212.399 492.5 217.25C492.577 218.867 492.577 218.867 492.656 220.516C491.193 228.283 484.598 233.647 478.937 238.75C477.955 239.651 477.955 239.651 476.953 240.57C475.613 241.799 474.27 243.025 472.925 244.248C470.629 246.338 468.348 248.442 466.068 250.55C465.025 251.515 463.981 252.478 462.936 253.44C459.942 256.197 456.963 258.968 453.996 261.754C453.321 262.388 452.645 263.021 451.949 263.674C450.639 264.904 449.33 266.136 448.023 267.369C439.091 275.751 439.091 275.751 433 276C430.121 274.626 428.25 273.25 426 271C425.209 267.238 425.092 263.523 427.098 260.159C428.643 258.434 430.26 256.904 432 255.375C432.553 254.854 433.106 254.333 433.676 253.797C436.686 250.987 439.803 248.3 442.91 245.598C447.193 241.864 451.318 237.976 455.437 234.063C461.206 228.606 466.997 223.199 473 218C472.091 216.724 471.172 215.454 470.25 214.188C469.74 213.48 469.229 212.772 468.703 212.043C466.975 209.97 465.215 208.526 463 207C456.259 212.979 449.666 219.102 443.102 225.273C438.878 229.244 434.639 233.197 430.375 237.125C429.437 238.016 428.499 238.908 427.532 239.826C425.247 241.946 422.92 243.815 420.371 245.606C414.739 249.777 410.053 253.788 408.732 260.934C408.096 266.977 408.257 273.008 408.398 279.073C408.4 281.394 408.396 283.714 408.387 286.035C408.379 291.011 408.416 295.985 408.487 300.96C408.6 308.832 408.616 316.702 408.619 324.575C408.631 335.613 408.693 346.651 408.791 357.689C408.892 369.027 408.979 380.364 409.035 391.702C409.039 392.401 409.042 393.1 409.046 393.82C409.084 401.458 409.115 409.096 409.137 416.734C409.139 417.406 409.141 418.078 409.143 418.771C409.153 422.123 409.162 425.475 409.17 428.827C409.192 436.648 409.246 444.468 409.325 452.289C409.37 457.156 409.395 462.023 409.416 466.89C409.43 469.142 409.453 471.393 409.485 473.645C409.528 476.726 409.54 479.806 409.545 482.888C409.565 483.772 409.585 484.656 409.606 485.567C409.564 492.936 407.248 499.382 402.274 504.923C394.669 512.183 386.008 512.436 376.019 512.381C374.07 512.388 374.07 512.388 372.081 512.395C368.488 512.408 364.896 512.402 361.304 512.392C357.424 512.385 353.544 512.396 349.664 512.404C342.069 512.418 334.474 512.415 326.879 512.406C320.706 512.399 314.532 512.398 308.359 512.402C307.04 512.402 307.04 512.402 305.694 512.403C303.908 512.404 302.122 512.405 300.336 512.406C283.594 512.414 266.852 512.405 250.11 512.388C235.749 512.375 221.389 512.377 207.028 512.391C190.345 512.407 173.663 512.414 156.98 512.404C155.2 512.403 153.421 512.402 151.641 512.402C150.766 512.401 149.89 512.401 148.988 512.4C142.823 512.398 136.659 512.402 130.494 512.409C122.979 512.417 115.464 512.415 107.95 512.399C104.117 512.391 100.284 512.388 96.4513 512.398C92.2943 512.409 88.1377 512.396 83.9807 512.381C82.1678 512.391 82.1678 512.391 80.3184 512.401C71.6 512.34 64.2166 511.2 57.7273 504.898C50.0878 496.504 50.3739 487.032 50.6875 476.375C50.7126 474.879 50.7354 473.383 50.7558 471.887C50.8104 468.257 50.8964 464.629 51 461C50.108 461.021 49.2161 461.042 48.2971 461.064C44.9479 461.132 41.5994 461.182 38.2497 461.22C36.8076 461.24 35.3655 461.267 33.9236 461.302C23.7064 461.543 16.4473 460.562 7.74998 454.875C0.00253868 446.775 -0.731165 438.288 -0.648398 427.488C-0.655602 426.033 -0.664977 424.578 -0.676314 423.123C-0.700957 419.148 -0.694649 415.173 -0.682967 411.198C-0.67575 406.902 -0.697305 402.606 -0.715018 398.31C-0.744917 389.904 -0.747592 381.498 -0.740004 373.092C-0.734174 366.259 -0.73738 359.427 -0.746977 352.595C-0.748321 351.621 -0.749667 350.648 -0.751051 349.645C-0.753795 347.668 -0.756545 345.691 -0.759306 343.714C-0.783892 325.185 -0.77632 306.657 -0.758742 288.128C-0.743631 271.179 -0.767849 254.23 -0.810767 237.28C-0.854519 219.869 -0.872411 202.457 -0.861998 185.046C-0.856592 175.273 -0.861323 165.501 -0.892958 155.729C-0.919574 147.413 -0.921658 139.097 -0.892096 130.781C-0.87768 126.539 -0.874493 122.297 -0.901755 118.055C-0.926422 114.17 -0.918647 110.286 -0.885252 106.401C-0.878833 104.998 -0.884173 103.594 -0.902602 102.19C-1.04625 90.4198 -1.04625 90.4198 3.31073 85.3608C4.51462 84.2128 5.7417 83.0882 6.99998 82.0001C8.04975 80.888 8.04975 80.888 9.12073 79.7535C10.0031 78.8705 10.0031 78.8705 10.9034 77.9697C11.5917 77.2786 12.2799 76.5875 12.9891 75.8754C13.7182 75.1484 14.4473 74.4213 15.1985 73.6722C16.3802 72.4878 16.3802 72.4878 17.5859 71.2794C20.1654 68.6955 22.7486 66.1153 25.332 63.5352C27.1334 61.7332 28.9346 59.9309 30.7357 58.1286C34.4972 54.3656 38.2605 50.6044 42.0251 46.8445C46.3777 42.4974 50.7267 38.1466 55.0738 33.794C59.2656 29.5971 63.4602 25.4031 67.6561 21.2102C69.4387 19.4282 71.2205 17.6456 73.0016 15.8621C75.4815 13.3797 77.9645 10.9005 80.4485 8.42218C81.1877 7.68093 81.9269 6.93969 82.6885 6.17598C83.6998 5.16894 83.6998 5.16894 84.7315 4.14155C85.3179 3.55555 85.9043 2.96954 86.5084 2.36577C89.0347 0.0526431 90.7739 -0.125832 94.0968 -0.131367ZM103 18.0001C102.996 18.7649 102.993 19.5297 102.989 20.3178C102.951 27.5697 102.894 34.8211 102.816 42.0727C102.777 45.7997 102.745 49.5265 102.729 53.2537C102.714 56.8591 102.679 60.4638 102.632 64.0689C102.617 65.4358 102.609 66.8027 102.608 68.1697C102.597 77.296 102.377 86.99 96.0746 94.2037C87.5979 102.272 79.3375 102.462 68.0976 102.512C66.6503 102.529 65.203 102.547 63.7557 102.566C59.9664 102.613 56.1772 102.643 52.3878 102.67C48.513 102.7 44.6383 102.746 40.7636 102.791C33.1759 102.877 25.5881 102.944 18 103C17.8856 145.592 17.7975 188.184 17.7447 230.776C17.7384 235.801 17.7319 240.827 17.7253 245.853C17.724 246.853 17.7227 247.854 17.7213 248.885C17.6996 265.096 17.6601 281.308 17.6142 297.519C17.5675 314.147 17.5397 330.775 17.5295 347.404C17.5227 357.668 17.501 367.933 17.4604 378.197C17.434 385.231 17.426 392.265 17.4325 399.299C17.4357 403.361 17.4307 407.422 17.4039 411.483C17.3797 415.2 17.3784 418.916 17.3955 422.633C17.3986 424.617 17.377 426.602 17.3546 428.587C17.3958 433.466 17.4401 436.955 19.7642 441.294C24.8602 443.981 29.6964 443.681 35.3744 443.622C36.6451 443.628 37.9158 443.634 39.2251 443.641C42.7502 443.658 46.2747 443.644 49.7999 443.624C53.6023 443.609 57.4046 443.622 61.207 443.632C68.655 443.647 76.1028 443.634 83.5509 443.613C92.2221 443.589 100.893 443.591 109.565 443.593C125.035 443.597 140.506 443.576 155.976 443.542C170.992 443.509 186.008 443.495 201.024 443.501C217.371 443.508 233.717 443.505 250.064 443.486C250.928 443.485 251.792 443.484 252.683 443.483C254.418 443.48 256.154 443.478 257.89 443.476C263.936 443.469 269.982 443.469 276.028 443.47C283.395 443.472 290.762 443.462 298.129 443.438C301.888 443.426 305.648 443.419 309.408 443.425C313.48 443.431 317.553 443.414 321.626 443.394C323.414 443.402 323.414 443.402 325.238 443.411C326.328 443.402 327.418 443.392 328.542 443.383C329.482 443.382 330.422 443.38 331.391 443.378C334.538 442.922 336.434 441.85 339 440C340.215 437.57 340.123 436.033 340.12 433.318C340.122 431.837 340.122 431.837 340.124 430.326C340.121 429.239 340.117 428.153 340.113 427.033C340.114 425.321 340.114 425.321 340.114 423.574C340.113 419.786 340.105 415.999 340.098 412.211C340.096 409.591 340.094 406.97 340.093 404.35C340.09 398.149 340.082 391.948 340.072 385.746C340.061 378.687 340.055 371.628 340.05 364.569C340.04 350.046 340.022 335.523 340 321C338.721 321.945 337.444 322.893 336.168 323.842C335.457 324.37 334.745 324.897 334.012 325.441C331.459 327.419 329.235 329.608 327 331.938C323.447 335.566 319.835 339.007 315.973 342.301C314.626 343.461 313.301 344.648 311.996 345.856C306.052 351.34 299.612 355.961 293.002 360.589C289.395 363.131 285.824 365.724 282.25 368.313C277.588 371.688 272.923 375.059 268.238 378.402C258.533 385.339 258.533 385.339 249.187 392.75C236.573 403.237 217.239 418.194 199.687 416.938C195.707 415.926 193.188 414.566 190 412C189.67 411.34 189.34 410.68 189 410C187.994 409.99 186.988 409.979 185.952 409.969C176.476 409.871 167 409.768 157.524 409.661C152.652 409.606 147.78 409.552 142.909 409.503C138.208 409.455 133.507 409.403 128.806 409.347C127.012 409.327 125.218 409.308 123.424 409.291C120.912 409.267 118.401 409.237 115.89 409.205C115.147 409.2 114.404 409.194 113.638 409.188C106.528 409.087 106.528 409.087 104 408C102.791 404.373 102.213 400.76 103 397C104.533 394.907 104.533 394.907 107 393C109.761 392.597 112.129 392.435 114.89 392.454C115.68 392.444 116.471 392.433 117.285 392.423C119.894 392.393 122.501 392.392 125.109 392.391C126.92 392.376 128.73 392.359 130.54 392.341C135.301 392.297 140.062 392.277 144.823 392.262C149.683 392.242 154.543 392.2 159.402 392.16C168.935 392.085 178.467 392.035 188 392C188.599 390.847 189.198 389.694 189.815 388.505C190.619 386.97 191.422 385.434 192.227 383.898C192.619 383.141 193.012 382.384 193.416 381.603C198.881 371.197 205.859 362.913 214.293 354.727C219.776 349.204 224.477 343.045 229.135 336.825C229.941 335.749 229.941 335.749 230.764 334.652C231.172 334.107 231.58 333.562 232 333C231.097 332.999 230.193 332.997 229.262 332.996C207.296 332.959 185.331 332.9 163.365 332.816C152.742 332.776 142.12 332.744 131.497 332.729C122.24 332.716 112.983 332.689 103.726 332.645C98.8232 332.623 93.9204 332.607 89.0174 332.608C84.4044 332.609 79.7919 332.591 75.1791 332.559C73.4844 332.55 71.7896 332.549 70.0949 332.554C67.7836 332.561 65.4738 332.543 63.1626 332.519C61.8684 332.515 60.5742 332.512 59.2408 332.508C55.4616 331.916 54.2773 331.013 52 328C51.2912 325.092 51.6603 323.058 52 320C53.5434 317.825 54.6366 317.182 57 316C59.4824 315.921 61.9357 315.902 64.4176 315.929C65.1915 315.934 65.9654 315.938 66.7627 315.942C68.4649 315.952 70.167 315.964 71.869 315.978C75.6077 316.01 79.3463 316.03 83.085 316.051C85.0993 316.062 87.1137 316.074 89.1281 316.087C96.535 316.133 103.942 316.159 111.349 316.171C112.96 316.174 112.96 316.174 114.604 316.177C119.038 316.184 123.472 316.19 127.906 316.196C140.497 316.213 153.086 316.25 165.676 316.353C175.671 316.435 185.665 316.47 195.661 316.452C200.95 316.444 206.237 316.459 211.526 316.529C216.508 316.595 221.487 316.6 226.47 316.559C228.292 316.554 230.115 316.572 231.937 316.614C242.5 317.04 242.5 317.04 251.425 312.178C253.399 309.995 255.113 307.711 256.765 305.278C258.927 302.108 261.218 299.627 264 297C264.945 296.045 265.889 295.09 266.832 294.133C267.825 293.13 268.819 292.128 269.812 291.125C270.295 290.634 270.778 290.143 271.275 289.637C274.691 286.199 278.259 282.997 281.923 279.826C285.451 276.725 288.844 273.483 292.25 270.25C298.114 264.707 304.015 259.212 309.977 253.773C314.09 250.011 318.156 246.197 322.223 242.384C322.799 241.845 323.375 241.306 323.969 240.75C324.543 240.19 325.117 239.631 325.708 239.054C328 237 328 237 330.968 234.924C335.842 231.367 339.949 227.926 341.105 221.771C341.664 216.584 341.544 211.404 341.442 206.196C341.446 204.202 341.456 202.209 341.471 200.215C341.496 194.828 341.446 189.444 341.381 184.058C341.325 178.413 341.333 172.769 341.332 167.125C341.322 157.654 341.266 148.184 341.18 138.714C341.081 127.765 341.04 116.816 341.034 105.867C341.028 94.2 340.983 82.5337 340.925 70.8671C340.91 67.5072 340.902 64.1472 340.895 60.7873C340.883 55.5124 340.844 50.2384 340.785 44.9639C340.767 43.0277 340.758 41.0915 340.758 39.1553C340.755 36.514 340.723 33.8749 340.682 31.234C340.692 30.0823 340.692 30.0823 340.701 28.9073C340.611 25.2255 340.078 23.1184 338.045 20.023C333.817 17.214 330.566 17.3172 325.591 17.3988C324.164 17.3924 324.164 17.3924 322.707 17.3858C319.516 17.3776 316.326 17.4051 313.135 17.4324C310.849 17.4338 308.563 17.4331 306.276 17.4302C300.066 17.4288 293.856 17.4582 287.645 17.4931C281.157 17.5243 274.668 17.5273 268.179 17.5332C257.286 17.547 246.394 17.5782 235.502 17.6229C224.283 17.6688 213.065 17.7042 201.846 17.7254C200.809 17.7274 200.809 17.7274 199.75 17.7294C196.28 17.7359 192.811 17.7422 189.341 17.7484C160.56 17.8003 131.78 17.8887 103 18.0001ZM80.5121 34.3524C79.7741 35.0934 79.7741 35.0934 79.0212 35.8494C78.5041 36.3648 77.987 36.8801 77.4543 37.411C75.7365 39.1244 74.0224 40.8414 72.3086 42.5587C71.1219 43.7447 69.935 44.9306 68.748 46.1163C66.2572 48.6056 63.7682 51.0968 61.2805 53.5892C58.0835 56.7919 54.882 59.9901 51.6792 63.1869C49.2265 65.636 46.7762 68.0874 44.3267 70.5395C43.1468 71.7201 41.9662 72.8999 40.7848 74.0789C39.1372 75.724 37.4929 77.3722 35.8493 79.0213C35.3553 79.5133 34.8613 80.0053 34.3523 80.5122C32.0107 82.4236 32.0107 82.4236 31 85.0001C37.7442 85.1015 44.4883 85.1716 51.2331 85.2198C53.5272 85.2399 55.8211 85.2672 58.115 85.3018C61.414 85.3504 64.7124 85.373 68.0117 85.3907C69.5479 85.4216 69.5479 85.4216 71.1151 85.4532C75.5573 85.4546 78.236 85.4493 82.1242 83.1631C84.8919 79.9715 85.1244 77.4139 85.1135 73.345C85.1134 72.4043 85.1134 71.4635 85.1133 70.4943C85.1081 69.4817 85.103 68.4691 85.0976 67.4258C85.0962 66.3869 85.0948 65.3479 85.0933 64.2774C85.0877 60.9558 85.0752 57.6342 85.0625 54.3126C85.0575 52.0619 85.0529 49.8113 85.0488 47.5606C85.0378 42.0404 85.021 36.5202 85 31.0001C82.9957 31.0001 81.8514 33.0215 80.5121 34.3524ZM358 69.0001C358 114.87 358 160.74 358 208C362.14 205.516 364.56 203.634 367.812 200.25C370.796 197.204 373.777 194.229 377 191.438C377.593 190.903 378.186 190.368 378.797 189.817C381 188 381 188 383.538 186.528C387.429 183.929 390.385 181.432 391.573 176.734C392.513 169.635 392.273 162.472 392.152 155.328C392.146 152.999 392.144 150.67 392.145 148.34C392.138 143.471 392.096 138.604 392.029 133.735C391.944 127.495 391.925 121.256 391.929 115.015C391.927 110.211 391.9 105.407 391.864 100.603C391.848 98.3018 391.838 96.0005 391.834 93.6992C391.823 90.4864 391.78 87.2758 391.726 84.0635C391.729 83.1138 391.731 82.1641 391.733 81.1856C391.712 80.3083 391.691 79.4309 391.669 78.527C391.66 77.769 391.652 77.011 391.643 76.23C390.947 73.1412 390.947 73.1412 386 69.0001C376.76 69.0001 367.52 69.0001 358 69.0001ZM460.035 138.922C456.868 142.155 453.433 145.056 450 148C448.499 149.311 446.999 150.624 445.5 151.938C444.333 152.958 443.167 153.979 442 155C443.541 158.713 445.808 160.981 448.687 163.75C452.481 167.456 456.042 171.231 459.43 175.309C461.135 177.145 462.958 178.555 465 180C465.629 179.359 466.258 178.719 466.906 178.059C470.86 174.064 474.792 170.096 479.062 166.438C482.086 163.833 485.008 161.151 487.875 158.375C488.615 157.661 489.355 156.947 490.117 156.211C493.529 152.204 494.465 148.313 494.316 143.055C493.576 138.246 490.973 134.901 487.437 131.625C476.816 124.544 467.603 131.048 460.035 138.922ZM425.559 170.379C424.007 171.954 422.463 173.536 420.92 175.119C417.439 178.653 413.816 181.947 410.064 185.19C406.56 188.263 403.193 191.48 399.812 194.688C394.691 199.527 389.561 204.355 384.375 209.125C379.731 213.397 375.109 217.691 370.5 222C365.322 226.84 360.127 231.659 354.914 236.461C350.76 240.291 346.627 244.142 342.5 248C337.322 252.84 332.127 257.659 326.914 262.461C322.76 266.291 318.627 270.142 314.5 274C309.307 278.853 304.099 283.688 298.872 288.505C292.565 294.319 286.283 300.16 280 306C281.417 309.252 283.125 311.314 285.687 313.75C289.135 317.104 292.322 320.59 295.457 324.234C297.218 326.249 299.07 328.147 301 330C304.773 328.41 307.337 326.032 310.312 323.25C310.829 322.77 311.345 322.29 311.877 321.795C313.589 320.201 315.294 318.601 317 317C318.221 315.86 319.442 314.721 320.664 313.582C323.204 311.214 325.741 308.844 328.277 306.473C331.672 303.302 335.083 300.147 338.5 297C343.184 292.685 347.847 288.349 352.5 284C357.677 279.161 362.871 274.342 368.084 269.541C372.26 265.691 376.414 261.817 380.562 257.938C385.981 252.871 391.434 247.845 396.91 242.84C401.088 239.01 405.223 235.133 409.363 231.262C413.917 227.006 418.489 222.772 423.075 218.55C426.68 215.228 430.265 211.884 433.843 208.532C439.478 203.255 445.116 198.001 451 193C446.814 188.023 442.472 183.206 438.048 178.44C435.694 175.894 433.415 173.313 431.223 170.629C430.489 169.761 429.756 168.894 429 168C427.551 167.884 427.551 167.884 425.559 170.379ZM387.559 275.379C386.517 276.439 385.476 277.5 384.437 278.563C381.042 281.998 377.66 285.405 374 288.563C373.429 289.085 372.858 289.607 372.27 290.145C370 292 370 292 367.027 293.648C362.032 296.958 358.704 299.928 357.326 305.942C356.333 314.546 356.565 323.21 356.746 331.854C356.812 335.689 356.805 339.524 356.805 343.359C356.815 350.619 356.882 357.876 356.973 365.135C357.135 378.127 357.214 391.119 357.251 404.111C357.267 408.662 357.312 413.212 357.381 417.763C357.42 420.602 357.439 423.441 357.452 426.28C357.468 428.206 357.51 430.132 357.552 432.057C357.566 439.727 356.513 445.654 352 452C344.263 459.535 336.361 460.298 325.984 460.279C324.884 460.284 323.783 460.29 322.649 460.296C318.967 460.313 315.286 460.316 311.604 460.319C308.962 460.328 306.321 460.338 303.68 460.349C297.996 460.372 292.311 460.387 286.627 460.397C278.409 460.411 270.191 460.437 261.973 460.465C248.639 460.51 235.304 460.547 221.97 460.578C209.019 460.608 196.068 460.643 183.117 460.683C181.919 460.686 181.919 460.686 180.697 460.69C176.69 460.702 172.684 460.715 168.677 460.727C135.451 460.831 102.226 460.92 69 461C68.8547 465.562 68.7659 470.124 68.6875 474.688C68.6456 475.981 68.6037 477.275 68.5605 478.607C68.5444 479.855 68.5283 481.102 68.5117 482.387C68.4855 483.534 68.4593 484.681 68.4324 485.862C69.1867 490.032 70.6527 491.469 74 494C76.6307 494.737 76.6307 494.737 79.4739 494.629C80.5676 494.642 81.6613 494.655 82.7881 494.669C83.9841 494.658 85.1801 494.646 86.4123 494.635C87.6871 494.643 88.962 494.651 90.2754 494.659C93.812 494.679 97.3479 494.669 100.884 494.654C104.699 494.642 108.514 494.66 112.328 494.674C119.8 494.696 127.272 494.691 134.744 494.677C140.816 494.665 146.888 494.664 152.96 494.669C153.824 494.67 154.688 494.671 155.578 494.671C157.333 494.673 159.087 494.675 160.842 494.676C177.301 494.691 193.76 494.674 210.218 494.647C224.344 494.625 238.47 494.629 252.597 494.652C268.996 494.679 285.395 494.689 301.795 494.674C303.543 494.672 305.291 494.671 307.039 494.669C307.9 494.668 308.76 494.668 309.646 494.667C315.712 494.662 321.777 494.67 327.843 494.682C335.234 494.696 342.624 494.692 350.015 494.665C353.787 494.652 357.558 494.647 361.33 494.663C365.416 494.681 369.501 494.66 373.588 494.635C374.784 494.646 375.98 494.657 377.212 494.669C382.034 494.611 385.078 494.567 389.238 492.01C391.623 487.935 391.683 484.845 391.601 480.199C391.606 479.312 391.61 478.426 391.614 477.513C391.622 474.543 391.595 471.574 391.568 468.604C391.566 466.476 391.567 464.347 391.57 462.218C391.571 456.437 391.542 450.657 391.507 444.876C391.476 438.836 391.473 432.795 391.467 426.755C391.451 415.316 391.41 403.877 391.36 392.437C391.304 379.415 391.277 366.392 391.252 353.369C391.199 326.579 391.111 299.79 391 273C389.551 272.884 389.551 272.884 387.559 275.379ZM266 321C260.633 326.849 255.466 332.807 250.48 338.984C248.614 341.253 246.727 343.486 244.801 345.703C244.254 346.333 243.707 346.963 243.144 347.612C242.065 348.851 240.983 350.086 239.897 351.317C237.682 353.864 236.079 355.764 235 359C236.409 360.632 237.827 362.255 239.25 363.875C240.039 364.78 240.828 365.685 241.641 366.617C243.792 368.79 245.287 369.754 248 371C256.974 364.696 265.923 358.36 274.812 351.938C275.57 351.39 276.328 350.843 277.109 350.279C280.426 347.878 283.729 345.463 287 343C284.809 338.125 281.258 334.722 277.625 330.875C276.952 330.147 276.279 329.418 275.586 328.668C274.931 327.971 274.276 327.273 273.602 326.555C273.007 325.92 272.412 325.286 271.799 324.632C269.964 322.967 268.26 321.991 266 321ZM220.469 373.441C216.007 378.249 212.343 383.291 208.937 388.875C208.531 389.529 208.125 390.184 207.707 390.858C206.719 392.524 205.85 394.259 205 396C205.33 396.99 205.66 397.98 206 399C215.173 394.619 223.902 390.229 232 384C230.56 380.787 228.77 378.379 226.437 375.75C225.817 375.044 225.197 374.337 224.559 373.609C224.044 373.078 223.53 372.547 223 372C221.771 371.886 221.771 371.886 220.469 373.441Z" fill="white"/>
<path d="M65.9067 144.365C66.912 144.357 67.9173 144.349 68.9531 144.341C72.3259 144.321 75.6975 144.337 79.0703 144.353C81.4866 144.346 83.9028 144.337 86.319 144.326C92.203 144.306 98.0866 144.309 103.971 144.324C108.753 144.335 113.534 144.336 118.316 144.331C118.997 144.33 119.678 144.329 120.379 144.329C121.762 144.327 123.144 144.325 124.527 144.324C137.492 144.309 150.457 144.326 163.422 144.353C174.546 144.375 185.67 144.371 196.795 144.348C209.714 144.321 222.632 144.311 235.551 144.326C236.928 144.328 238.306 144.329 239.684 144.331C240.7 144.332 240.7 144.332 241.737 144.333C246.514 144.338 251.29 144.33 256.066 144.319C262.495 144.303 268.923 144.314 275.351 144.343C277.713 144.35 280.075 144.348 282.437 144.337C285.656 144.323 288.874 144.34 292.093 144.365C293.032 144.354 293.972 144.343 294.939 144.331C299.492 144.4 301.386 144.519 305.075 147.411C306.921 149.894 307.706 150.965 307.688 154C307.712 154.639 307.736 155.279 307.762 155.938C306.508 159.333 304.069 161.271 301 163C297.676 163.712 294.432 163.663 291.042 163.615C290.044 163.62 289.045 163.626 288.016 163.632C284.671 163.645 281.328 163.622 277.984 163.599C275.586 163.601 273.187 163.605 270.789 163.611C264.953 163.62 259.117 163.606 253.281 163.581C246.485 163.553 239.689 163.552 232.893 163.552C220.768 163.551 208.644 163.526 196.519 163.487C184.753 163.45 172.987 163.428 161.22 163.426C160.495 163.425 159.77 163.425 159.023 163.425C158.3 163.425 157.576 163.425 156.83 163.424C155.373 163.424 153.916 163.424 152.459 163.423C151.381 163.423 151.381 163.423 150.281 163.423C139.068 163.419 127.855 163.401 116.642 163.381C112.577 163.374 108.513 163.369 104.448 163.366C97.4003 163.36 90.3525 163.345 83.3046 163.318C80.9616 163.31 78.6187 163.306 76.2757 163.306C73.0849 163.304 69.8945 163.291 66.7038 163.274C65.7702 163.277 64.8365 163.279 63.8746 163.281C62.5933 163.271 62.5933 163.271 61.2861 163.26C60.5496 163.258 59.8132 163.256 59.0544 163.254C56.624 162.954 55.0691 162.305 53 161C50.8879 157.832 50.6684 155.868 50.4414 152.133C52.5145 144.218 59.1586 144.285 65.9067 144.365Z" fill="white"/>
<path d="M64.2875 186.86C65.6054 186.854 66.9233 186.848 68.2812 186.842C69.7452 186.841 71.2093 186.84 72.6734 186.839C74.2125 186.834 75.7516 186.829 77.2907 186.824C81.4746 186.811 85.6585 186.804 89.8424 186.8C92.4558 186.797 95.0692 186.793 97.6825 186.788C105.858 186.775 114.033 186.765 122.208 186.761C131.648 186.757 141.088 186.739 150.528 186.71C157.823 186.689 165.118 186.678 172.413 186.677C176.771 186.676 181.129 186.67 185.487 186.652C189.586 186.636 193.685 186.634 197.784 186.642C199.288 186.643 200.792 186.639 202.296 186.629C204.351 186.616 206.404 186.622 208.459 186.633C209.608 186.631 210.757 186.63 211.941 186.628C215.392 187.048 217.235 187.923 220 190C222.5 193.75 222.536 195.559 222 200C219.464 203.23 217.958 204.807 213.884 205.629C212.708 205.631 211.532 205.633 210.32 205.635C209.662 205.643 209.004 205.651 208.326 205.659C206.127 205.678 203.931 205.663 201.732 205.647C200.154 205.654 198.575 205.663 196.996 205.674C192.713 205.696 188.43 205.687 184.147 205.672C179.664 205.659 175.18 205.671 170.697 205.679C163.168 205.688 155.64 205.676 148.111 205.652C139.408 205.625 130.705 205.633 122.002 205.661C114.529 205.684 107.055 205.687 99.5814 205.674C95.1183 205.666 90.6555 205.665 86.1924 205.681C81.9962 205.696 77.8008 205.686 73.6047 205.657C72.0652 205.65 70.5257 205.652 68.9862 205.663C66.8832 205.677 64.7827 205.66 62.6798 205.635C60.9156 205.632 60.9156 205.632 59.1157 205.629C55.0761 204.813 53.5736 203.143 51 200C50.0926 196.974 50.5357 195.25 51 192C54.6739 187.059 58.4368 186.875 64.2875 186.86Z" fill="white"/>
<path d="M147.338 229.372C149.256 229.353 149.256 229.353 151.213 229.333C152.622 229.345 154.032 229.357 155.441 229.369C156.932 229.364 158.422 229.357 159.912 229.347C163.953 229.329 167.994 229.342 172.036 229.361C176.267 229.378 180.498 229.369 184.729 229.364C191.834 229.359 198.939 229.375 206.044 229.403C214.256 229.435 222.468 229.435 230.68 229.418C238.583 229.402 246.486 229.409 254.389 229.426C257.751 229.433 261.112 229.432 264.474 229.424C268.434 229.417 272.393 229.429 276.353 229.456C277.805 229.463 279.258 229.463 280.71 229.456C282.694 229.447 284.678 229.466 286.662 229.485C287.772 229.488 288.881 229.491 290.025 229.494C293.717 230.122 295.381 231.361 298 234C299.149 237.949 299.431 240.03 297.75 243.813C296 246 296 246 293 248C290.284 248.252 290.284 248.252 286.934 248.254C285.665 248.26 284.396 248.265 283.089 248.271C281.68 248.267 280.271 248.263 278.862 248.259C277.38 248.262 275.898 248.265 274.417 248.269C270.39 248.279 266.363 248.275 262.336 248.269C258.125 248.264 253.913 248.268 249.702 248.271C242.627 248.275 235.553 248.27 228.479 248.261C220.299 248.25 212.119 248.253 203.938 248.264C196.918 248.274 189.898 248.275 182.878 248.27C178.684 248.266 174.49 248.266 170.296 248.273C166.352 248.278 162.408 248.274 158.464 248.263C157.016 248.26 155.568 248.261 154.12 248.265C152.145 248.271 150.169 248.263 148.193 248.254C147.087 248.253 145.981 248.252 144.842 248.252C141.976 247.998 140.371 247.598 138 246C135.888 242.832 135.668 240.868 135.441 237.133C137.016 231.122 141.669 229.375 147.338 229.372Z" fill="white"/>
<path d="M135.428 272.369C136.583 272.362 137.738 272.355 138.928 272.347C142.745 272.33 146.562 272.35 150.379 272.371C153.03 272.37 155.681 272.368 158.333 272.364C163.889 272.359 169.444 272.375 175 272.403C181.42 272.435 187.841 272.435 194.261 272.418C200.443 272.402 206.624 272.409 212.806 272.426C215.434 272.431 218.063 272.431 220.692 272.424C224.362 272.419 228.031 272.439 231.701 272.467C232.792 272.46 233.882 272.454 235.006 272.447C242.341 272.54 242.341 272.54 245.651 274.85C247.935 278.49 248.28 281.496 247.5 285.688C245.37 288.972 242.65 289.977 239 291C235.331 291.415 231.693 291.4 228.003 291.372C226.918 291.376 225.833 291.38 224.714 291.383C221.14 291.391 217.566 291.378 213.992 291.363C211.503 291.363 209.014 291.363 206.525 291.365C200.648 291.365 194.772 291.35 188.896 291.329C182.883 291.309 176.87 291.314 170.857 291.32C165.72 291.323 160.583 291.316 155.446 291.307C152.983 291.303 150.52 291.302 148.057 291.303C144.617 291.304 141.177 291.291 137.738 291.275C136.21 291.278 136.21 291.278 134.652 291.282C124.368 291.205 124.368 291.205 120.187 287.313C118.464 283.957 118.478 281.72 119 278C123.3 271.651 128.431 272.294 135.428 272.369Z" fill="white"/>
<path d="M165.465 59.3531C166.199 59.3443 166.933 59.3355 167.689 59.3265C170.106 59.3046 172.521 59.3191 174.937 59.336C176.622 59.3326 178.307 59.3278 179.992 59.3215C183.519 59.3141 187.046 59.3248 190.573 59.3482C195.09 59.3767 199.605 59.3603 204.121 59.3303C207.599 59.3122 211.076 59.318 214.554 59.331C216.219 59.3343 217.884 59.3302 219.549 59.3186C221.879 59.3058 224.206 59.3253 226.535 59.3531C227.22 59.3429 227.905 59.3328 228.61 59.3224C232.373 59.4054 233.943 59.9547 236.927 62.3217C239 65 239 65 239.625 68.5C238.846 72.8631 237.434 74.2847 234 77C230.574 78.1422 227.927 78.134 224.313 78.1453C223.638 78.1487 222.963 78.152 222.267 78.1555C220.035 78.165 217.803 78.1669 215.57 78.168C214.017 78.1712 212.464 78.1746 210.911 78.1781C207.654 78.1841 204.398 78.1859 201.141 78.1853C196.973 78.1852 192.804 78.1989 188.636 78.2161C185.427 78.2272 182.219 78.2293 179.01 78.2287C177.474 78.2299 175.937 78.2343 174.401 78.2421C172.249 78.2519 170.098 78.249 167.946 78.243C166.111 78.2451 166.111 78.2451 164.239 78.2473C160.13 77.9336 157.223 77.1384 154.187 74.3125C152.464 70.957 152.478 68.7199 153 65C156.674 60.2267 159.664 59.2673 165.465 59.3531Z" fill="white"/>
<path d="M67.25 229.336C68.8863 229.329 68.8863 229.329 70.5557 229.321C72.8588 229.318 75.1619 229.327 77.4649 229.348C80.9881 229.375 84.5081 229.348 88.0313 229.316C90.2709 229.32 92.5104 229.326 94.75 229.336C96.3283 229.321 96.3283 229.321 97.9385 229.305C105.242 229.422 105.242 229.422 109.164 232.41C112.002 236.413 111.688 238.182 111 243C109.13 245.431 107.719 246.641 105 248C103.485 248.105 101.965 248.149 100.446 248.161C99.5014 248.171 98.5567 248.18 97.5833 248.19C96.5594 248.195 95.5354 248.199 94.4805 248.203C93.4298 248.209 92.379 248.215 91.2965 248.22C89.0697 248.23 86.8428 248.236 84.616 248.24C81.2118 248.25 77.8083 248.281 74.4043 248.313C72.2422 248.319 70.0801 248.324 67.918 248.328C66.3912 248.347 66.3912 248.347 64.8336 248.366C55.9108 248.338 55.9108 248.338 52 245C50.421 241.842 50.1807 238.393 51 235C55.3989 228.763 60.2385 229.269 67.25 229.336Z" fill="white"/>
<path d="M258.484 186.839C259.388 186.829 260.293 186.82 261.225 186.81C262.2 186.806 263.175 186.801 264.18 186.797C265.687 186.788 265.687 186.788 267.225 186.78C269.352 186.77 271.478 186.764 273.605 186.76C276.855 186.75 280.105 186.719 283.355 186.688C285.422 186.681 287.488 186.676 289.555 186.672C291.011 186.653 291.011 186.653 292.497 186.635C298.811 186.655 302.41 187.41 307 192C307.79 198.881 307.79 198.881 305.168 202.596C300.509 206.131 296.452 205.701 290.75 205.629C289.659 205.631 288.568 205.634 287.444 205.636C285.141 205.635 282.838 205.622 280.535 205.597C277.012 205.563 273.492 205.576 269.969 205.596C267.729 205.589 265.49 205.579 263.25 205.566C262.198 205.571 261.146 205.576 260.062 205.581C252.774 205.464 252.774 205.464 248.836 203.103C246.154 200.031 246.351 198.044 246.57 194.125C247.191 191.053 248.449 189.749 251 188C253.812 187.063 255.571 186.864 258.484 186.839Z" fill="white"/>
<path d="M62.6523 272.434C63.3895 272.427 64.1266 272.421 64.8861 272.415C66.4419 272.408 67.9977 272.411 69.5535 272.424C71.927 272.437 74.2967 272.403 76.6699 272.365C78.1849 272.364 79.6999 272.366 81.2148 272.371C81.9202 272.358 82.6256 272.345 83.3523 272.331C87.204 272.403 88.8891 272.913 91.9514 275.321C94 278 94 278 94.5625 281.5C93.9125 285.544 92.9599 287.205 90 290C84.5405 291.933 78.2659 291.185 72.5625 291.188C71.3347 291.2 70.1068 291.212 68.8418 291.225C67.6578 291.227 66.4738 291.228 65.2539 291.23C64.1744 291.235 63.0949 291.239 61.9827 291.243C58.1558 290.931 55.281 289.967 52.2148 287.652C50.649 285.523 50.5669 284.19 50.5625 281.563C50.5432 280.801 50.5238 280.039 50.5039 279.254C51.9183 272.828 56.9646 272.394 62.6523 272.434Z" fill="white"/>
<path d="M68 391.437C69.0803 391.426 70.1605 391.416 71.2735 391.404C75.9321 391.447 79.0934 391.482 83.1875 393.82C85.7324 396.881 86 399.053 86 403C84.7826 405.883 83.8669 407.461 81.2009 409.118C77.014 410.796 72.515 410.327 68.0625 410.312C67.0732 410.329 66.0838 410.345 65.0645 410.361C55.9246 410.367 55.9246 410.367 52 407C50.421 403.842 50.1807 400.393 51 397C55.2473 390.47 60.9504 391.282 68 391.437Z" fill="white"/>
</g>
<defs>
<clipPath id="clip0_78_44">
<rect width="512" height="512" fill="white"/>
</clipPath>
</defs>
</svg>
