<svg width="128" height="128" viewBox="0 0 128 128" fill="none" xmlns="http://www.w3.org/2000/svg">
<g clip-path="url(#clip0_124_20)">
<path d="M16.4309 -0.560314C17.3045 -0.594338 18.1782 -0.628363 19.0783 -0.663418C27.2003 -0.959989 35.327 -1.12422 43.4533 -1.25233C48.9034 -1.339 54.3456 -1.46542 59.7917 -1.6941C102.191 -3.42247 102.191 -3.42247 114.395 7.23436C128.883 23.1441 124.248 51.282 123.5 70.9994C123.291 77.1733 123.209 83.3489 123.113 89.5254C122.955 98.5084 122.754 107.488 122.447 116.468C122.403 117.88 122.403 117.88 122.358 119.321C122.326 120.177 122.294 121.033 122.262 121.915C122.235 122.66 122.209 123.405 122.182 124.173C122 126 122 126 121 128C106.301 128.047 91.6024 128.082 76.9035 128.104C70.0789 128.114 63.2543 128.128 56.4297 128.151C49.8486 128.173 43.2675 128.185 36.6863 128.19C34.1704 128.193 31.6545 128.201 29.1386 128.211C25.6257 128.226 22.113 128.228 18.6001 128.227C17.5507 128.234 16.5012 128.241 15.42 128.249C13.9896 128.245 13.9896 128.245 12.5304 128.24C11.699 128.242 10.8675 128.244 10.0109 128.246C8 128 8 128 6 126C5.74831 123.823 5.74831 123.823 5.74603 121.065C5.74039 120.022 5.73475 118.979 5.72894 117.904C5.73299 116.755 5.73704 115.606 5.74121 114.422C5.7377 113.215 5.7342 112.009 5.73059 110.766C5.72328 107.452 5.72501 104.138 5.73134 100.824C5.7364 97.3601 5.73172 93.8964 5.72857 90.4326C5.72493 84.6152 5.72974 78.7979 5.73925 72.9805C5.75014 66.2492 5.74661 59.518 5.7356 52.7867C5.72653 47.0134 5.72524 41.2402 5.73048 35.4669C5.7336 32.0161 5.734 28.5654 5.72741 25.1146C5.72057 21.2691 5.73004 17.4237 5.74121 13.5781C5.73513 11.8544 5.73513 11.8544 5.72894 10.0958C5.73458 9.0526 5.74022 8.00939 5.74603 6.93456C5.74678 6.02458 5.74754 5.1146 5.74831 4.17705C6.4074 -1.52411 11.9414 -0.420658 16.4309 -0.560314ZM39 4.99999C39 12.26 39 19.52 39 27C42.96 27 46.92 27 51 27C51 19.74 51 12.48 51 4.99999C47.04 4.99999 43.08 4.99999 39 4.99999ZM24 4.99999C24 15.89 24 26.78 24 38C47.76 38 71.52 38 96 38C96 27.11 96 16.22 96 4.99999C82.8 4.99999 69.6 4.99999 56 4.99999C55.7107 13.1823 55.7107 13.1823 55.4319 21.365C55.3938 22.3776 55.3557 23.3903 55.3164 24.4336C55.2797 25.4757 55.2431 26.5178 55.2053 27.5915C55 30 55 30 54 31C52.5843 31.0865 51.1644 31.107 49.7461 31.0976C48.9771 31.0951 48.2081 31.0926 47.4158 31.0901C46.4329 31.081 45.4501 31.0719 44.4375 31.0625C41.3231 31.0419 38.2087 31.0212 35 31C34.67 22.42 34.34 13.84 34 4.99999C30.7 4.99999 27.4 4.99999 24 4.99999ZM11 4.99999C11 43.94 11 82.88 11 123C45.98 123 80.96 123 117 123C117.309 106.974 117.619 90.9487 117.937 74.4375C118.074 69.4056 118.211 64.3736 118.351 59.1892C118.402 54.619 118.402 54.619 118.432 50.0487C118.454 48.0364 118.507 46.0242 118.584 44.0132C119.219 30.7785 119.219 30.7785 113.596 19.2315C110.068 15.4485 106.268 11.938 102 8.99999C101.67 8.99999 101.34 8.99999 101 8.99999C100.962 10.4462 100.962 10.4462 100.924 11.9216C100.83 15.4869 100.73 19.0519 100.628 22.6169C100.584 24.1621 100.543 25.7074 100.503 27.2527C100.445 29.4694 100.381 31.6858 100.316 33.9023C100.3 34.5971 100.283 35.2919 100.266 36.0078C100.114 40.8861 100.114 40.8861 99 42C96.5714 42.1003 94.1713 42.1362 91.7422 42.1294C90.9829 42.1311 90.2235 42.1329 89.4412 42.1347C86.9191 42.1391 84.3971 42.1362 81.875 42.1328C80.13 42.1335 78.3851 42.1344 76.6401 42.1357C72.9782 42.1372 69.3162 42.135 65.6543 42.1304C60.9496 42.1247 56.2449 42.1279 51.5401 42.1339C47.9355 42.1375 44.3308 42.1364 40.7261 42.1338C38.9909 42.1331 37.2557 42.134 35.5204 42.1363C33.0995 42.1388 30.6787 42.135 28.2578 42.1294C27.5336 42.1314 26.8094 42.1334 26.0633 42.1355C21.1143 42.1143 21.1143 42.1143 20 41C19.84 38.3357 19.7406 35.6944 19.6836 33.0273C19.6628 32.2297 19.642 31.432 19.6206 30.6102C19.555 28.0527 19.4962 25.4951 19.4375 22.9375C19.3943 21.2077 19.3507 19.4778 19.3066 17.748C19.1993 13.4988 19.0981 9.24945 19 4.99999C16.36 4.99999 13.72 4.99999 11 4.99999Z" fill="white"/>
<path d="M20 64C31.4565 63.9769 42.913 63.9591 54.3695 63.9482C59.6887 63.943 65.0078 63.9359 70.3269 63.9246C75.4556 63.9138 80.5844 63.9078 85.7131 63.9052C87.6744 63.9033 89.6357 63.8997 91.597 63.8943C94.3342 63.8871 97.0712 63.886 99.8083 63.8865C101.037 63.8811 101.037 63.8811 102.291 63.8756C107.886 63.886 107.886 63.886 109 65C109.109 66.5237 109.149 68.0524 109.161 69.5799C109.171 70.5544 109.18 71.5288 109.19 72.5329C109.194 73.5932 109.199 74.6536 109.203 75.7461C109.209 76.8276 109.215 77.909 109.22 79.0232C109.23 81.3157 109.236 83.6082 109.24 85.9007C109.25 89.4191 109.281 92.9369 109.312 96.4551C109.319 98.6771 109.324 100.899 109.328 103.121C109.34 104.179 109.353 105.238 109.366 106.328C109.363 107.306 109.36 108.284 109.356 109.291C109.362 110.585 109.362 110.585 109.367 111.906C109.246 112.597 109.125 113.288 109 114C105.253 116.498 102.333 116.282 97.9961 116.259C96.7737 116.264 96.7737 116.264 95.5266 116.269C92.8302 116.278 90.134 116.272 87.4375 116.266C85.5657 116.267 83.6938 116.269 81.822 116.271C77.8979 116.274 73.9739 116.27 70.0498 116.261C65.0157 116.249 59.9818 116.256 54.9477 116.268C51.0821 116.275 47.2166 116.273 43.3511 116.268C41.4947 116.266 39.6383 116.268 37.782 116.273C35.1891 116.278 32.5967 116.27 30.0039 116.259C28.849 116.265 28.849 116.265 27.6707 116.271C23.9035 116.241 22.215 116.143 19 114C18.6325 111.951 18.6325 111.951 18.6436 109.398C18.6406 108.444 18.6376 107.49 18.6345 106.506C18.653 104.956 18.653 104.956 18.6719 103.375C18.6737 102.317 18.6756 101.259 18.6776 100.169C18.6843 97.93 18.6982 95.6906 18.7188 93.4512C18.7499 90.0142 18.7597 86.5777 18.7656 83.1407C18.7748 80.9688 18.7852 78.7969 18.7969 76.625C18.8011 75.5917 18.8054 74.5583 18.8098 73.4937C18.8194 72.5393 18.829 71.5849 18.8389 70.6016C18.8457 69.7594 18.8525 68.9171 18.8596 68.0493C19 66 19 66 20 64ZM24 69C24 82.53 24 96.06 24 110C50.4 110 76.8 110 104 110C104 96.47 104 82.94 104 69C77.6 69 51.2 69 24 69Z" fill="white"/>
<path d="M41 76C56.18 76 71.36 76 87 76C87.495 78.475 87.495 78.475 88 81C85.6858 82.1571 84.3411 82.1325 81.7656 82.1453C80.4542 82.1548 80.4542 82.1548 79.1162 82.1646C78.1704 82.1657 77.2245 82.1668 76.25 82.168C75.2809 82.1713 74.3119 82.1746 73.3135 82.1781C71.2624 82.1831 69.2113 82.1855 67.1602 82.1853C64.0129 82.1875 60.866 82.2057 57.7188 82.2246C55.7292 82.2275 53.7396 82.2295 51.75 82.2305C50.3312 82.2412 50.3312 82.2412 48.8838 82.2522C48.0095 82.2492 47.1352 82.2461 46.2344 82.2429C45.0776 82.2451 45.0776 82.2451 43.8975 82.2472C42 82 42 82 40 80C40.33 78.68 40.66 77.36 41 76Z" fill="white"/>
<path d="M42.9046 97.8798C43.7373 97.882 44.57 97.8842 45.428 97.8865C46.3689 97.8866 47.3098 97.8866 48.2792 97.8867C49.3021 97.8919 50.325 97.897 51.3789 97.9024C52.4207 97.9038 53.4625 97.9052 54.5359 97.9066C57.8781 97.9123 61.2203 97.9248 64.5625 97.9375C66.8223 97.9425 69.082 97.9471 71.3418 97.9512C76.8946 97.9622 82.4473 97.979 88 98C87.67 99.65 87.34 101.3 87 103C71.82 103 56.64 103 41 103C40.67 101.68 40.34 100.36 40 99C41 98 41 98 42.9046 97.8798Z" fill="white"/>
<path d="M42.8666 86.8798C44.089 86.8831 44.089 86.8831 45.3362 86.8865C46.2571 86.8866 47.1779 86.8866 48.1267 86.8867C49.1278 86.8919 50.1288 86.897 51.1602 86.9024C52.1798 86.9038 53.1994 86.9052 54.2499 86.9066C57.5208 86.9123 60.7916 86.9248 64.0625 86.9375C66.2741 86.9425 68.4857 86.9471 70.6973 86.9512C76.1315 86.9622 81.5658 86.979 87 87C87.5625 88.9375 87.5625 88.9375 88 91C87 92 87 92 85.1334 92.1203C84.3184 92.118 83.5035 92.1158 82.6638 92.1135C81.2825 92.1134 81.2825 92.1134 79.8733 92.1133C78.8722 92.1082 77.8712 92.103 76.8398 92.0977C75.8202 92.0963 74.8006 92.0948 73.7501 92.0934C70.4792 92.0878 67.2084 92.0752 63.9375 92.0625C61.7259 92.0575 59.5143 92.0529 57.3027 92.0488C51.8685 92.0378 46.4342 92.021 41 92C40.4375 90.0625 40.4375 90.0625 40 88C41 87 41 87 42.8666 86.8798Z" fill="white"/>
<path d="M96.625 75.875C98.2956 75.9369 98.2956 75.9369 100 76C100.625 77.875 100.625 77.875 101 80C99 82 99 82 95.875 82.125C94.9262 82.0837 93.9775 82.0425 93 82C92.34 80.68 91.68 79.36 91 78C93 76 93 76 96.625 75.875Z" fill="white"/>
<path d="M32.625 75.875C34.2956 75.9369 34.2956 75.9369 36 76C36.625 77.875 36.625 77.875 37 80C35 82 35 82 31.875 82.125C30.9262 82.0837 29.9775 82.0425 29 82C28.34 80.68 27.68 79.36 27 78C29 76 29 76 32.625 75.875Z" fill="white"/>
<path d="M93.8477 86.9023C95.8984 86.9349 97.9492 86.9674 100 87C100.562 88.9375 100.562 88.9375 101 91C100 92 100 92 98.1523 92.0977C96.1016 92.0651 94.0508 92.0326 92 92C91.4375 90.0625 91.4375 90.0625 91 88C92 87 92 87 93.8477 86.9023Z" fill="white"/>
<path d="M29.8477 86.9023C31.8984 86.9349 33.9492 86.9674 36 87C36.5625 88.9375 36.5625 88.9375 37 91C36 92 36 92 34.1523 92.0977C32.1016 92.0651 30.0508 92.0326 28 92C27.4375 90.0625 27.4375 90.0625 27 88C28 87 28 87 29.8477 86.9023Z" fill="white"/>
<path d="M93.8477 97.9023C95.8984 97.9349 97.9492 97.9674 100 98C100.562 99.9375 100.562 99.9375 101 102C100 103 100 103 98.1523 103.098C96.1016 103.065 94.0508 103.033 92 103C91.4375 101.062 91.4375 101.062 91 99C92 98 92 98 93.8477 97.9023Z" fill="white"/>
<path d="M29.8477 97.9023C31.8984 97.9349 33.9492 97.9674 36 98C36.5625 99.9375 36.5625 99.9375 37 102C36 103 36 103 34.1523 103.098C32.1016 103.065 30.0508 103.033 28 103C27.4375 101.062 27.4375 101.062 27 99C28 98 28 98 29.8477 97.9023Z" fill="white"/>
</g>
<defs>
<clipPath id="clip0_124_20">
<rect width="128" height="128" fill="white"/>
</clipPath>
</defs>
</svg>
