<svg width="128" height="128" viewBox="0 0 128 128" fill="none" xmlns="http://www.w3.org/2000/svg">
<g clip-path="url(#clip0_124_35)">
<path d="M57 -3.15905e-06C58.6797 1.03125 58.6797 1.03125 60 3C60.2171 5.81127 60.2828 8.38833 60.1875 11.1875C60.1672 12.3119 60.1672 12.3119 60.1465 13.459C60.1112 15.3063 60.0574 17.1532 60 19C60.62 18.9536 61.2401 18.9072 61.8789 18.8594C78.1021 18.1982 92.3748 24.539 104.652 34.8125C116.147 45.5232 123.502 59.7943 124.281 75.5586C124.829 94.6095 119.65 109.111 107.27 123.602C104.523 126.504 102.977 127.92 98.9375 128.25C96 128 96 128 94 126C93.3842 121.894 94.2597 119.31 96 115.688C99.8333 106.578 99.4409 95.5904 95.9375 86.4375C91.2594 76.9118 84.9374 70.8949 75 67C70.07 65.6347 65.0531 64.7774 60 64C60.0464 65.253 60.0928 66.5059 60.1406 67.7969C60.1781 69.4479 60.2145 71.0989 60.25 72.75C60.3003 73.9875 60.3003 73.9875 60.3516 75.25C60.4134 79.0818 60.416 81.3304 58.3594 84.6406C56 86 56 86 53.0625 85.9883C49.6229 84.8783 47.7245 83.5502 45 81.1875C44.0512 80.3767 43.1025 79.5659 42.125 78.7305C41.0833 77.8203 40.0417 76.9102 39 76C37.2657 74.5085 35.5279 73.0211 33.79 71.5337C32.5926 70.5077 31.3966 69.4801 30.2021 68.4507C26.5965 65.3464 22.9488 62.306 19.25 59.3125C18.3825 58.5996 17.5149 57.8868 16.6211 57.1523C14.7921 55.6504 12.9498 54.1646 11.0977 52.6914C4.4005 47.1214 4.4005 47.1214 2.75 42.5C4.80873 36.7355 9.3049 33.7333 14 30C15.7296 28.5839 17.4588 27.1672 19.1875 25.75C20.0976 25.0139 21.0077 24.2779 21.9453 23.5195C25.5404 20.5542 29.0511 17.5009 32.5625 14.4375C34.4613 12.7936 36.3615 11.1514 38.2622 9.50976C39.8294 8.14821 41.3824 6.77037 42.9336 5.39062C50.8273 -1.38571 50.8273 -1.38571 57 -3.15905e-06ZM48.25 8.75C47.2626 9.57242 46.2752 10.3948 45.2578 11.2422C40.6727 15.1129 36.1182 19.0193 31.5703 22.9336C28.0612 25.9519 24.5343 28.9487 21 31.9375C20.4845 32.3737 19.9691 32.8099 19.438 33.2593C15.9717 36.1887 12.489 39.0977 9 42C12.6779 46.9461 16.97 50.54 21.7734 54.3789C25.4343 57.3215 28.9633 60.4102 32.5 63.5C37.0381 67.4458 41.5792 71.3862 46.1875 75.25C47.4463 76.3096 47.4463 76.3096 48.7305 77.3906C51.1107 79.285 51.1107 79.285 55 80C55.33 73.4 55.66 66.8 56 60C70.3354 59.488 81.9108 61.8158 92.8438 71.6602C100.915 80.3701 104.483 91.8307 104.273 103.562C103.818 107.619 102.696 111.486 101.559 115.398C100.749 118.095 100.749 118.095 102 121C113.324 108.245 119.793 94.5537 119.277 77.2148C118.052 63.0136 111.762 48.55 101 39C86.9323 27.8901 73.7188 24.1191 56 23C55.505 14.09 55.505 14.09 55 5C51.9181 5 50.5898 6.79785 48.25 8.75Z" fill="white"/>
</g>
<defs>
<clipPath id="clip0_124_35">
<rect width="128" height="128" fill="white"/>
</clipPath>
</defs>
</svg>
